G04 Layer_Color=8388736*
%FSLAX25Y25*%
%MOIN*%
G70*
G01*
G75*
%ADD27C,0.08000*%
%ADD28C,0.06506*%
%ADD29R,0.06506X0.06506*%
%ADD30C,0.07600*%
%ADD31C,0.10600*%
%ADD32C,0.00600*%
D27*
X632874Y164449D02*
D03*
Y154449D02*
D03*
Y126890D02*
D03*
Y136890D02*
D03*
X108268Y164449D02*
D03*
Y154449D02*
D03*
Y126890D02*
D03*
Y136890D02*
D03*
D28*
X320000Y105000D02*
D03*
X310000D02*
D03*
X300000D02*
D03*
X290000D02*
D03*
X280000D02*
D03*
X270000D02*
D03*
X260000D02*
D03*
X250000D02*
D03*
X240000D02*
D03*
X230000D02*
D03*
X220000D02*
D03*
D29*
X210000D02*
D03*
D30*
X139921Y140984D02*
D03*
Y150984D02*
D03*
X202913Y140984D02*
D03*
Y150984D02*
D03*
X265905Y140984D02*
D03*
Y150984D02*
D03*
X454882Y140984D02*
D03*
Y150984D02*
D03*
X517874Y140984D02*
D03*
Y150984D02*
D03*
X580866Y140984D02*
D03*
Y150984D02*
D03*
D31*
X159921Y145984D02*
D03*
X169921Y125984D02*
D03*
X149921D02*
D03*
X129921D02*
D03*
X222913Y145984D02*
D03*
X232913Y125984D02*
D03*
X212913D02*
D03*
X192913D02*
D03*
X285906Y145984D02*
D03*
X295905Y125984D02*
D03*
X275905D02*
D03*
X255906D02*
D03*
X474882Y145984D02*
D03*
X484882Y125984D02*
D03*
X464882D02*
D03*
X444882D02*
D03*
X537874Y145984D02*
D03*
X547874Y125984D02*
D03*
X527874D02*
D03*
X507874D02*
D03*
X600866Y145984D02*
D03*
X610866Y125984D02*
D03*
X590866D02*
D03*
X570866D02*
D03*
D32*
X421260Y142717D02*
D03*
X318898D02*
D03*
X631890Y177165D02*
D03*
Y110236D02*
D03*
X110236D02*
D03*
Y177165D02*
D03*
M02*
