G04 Layer_Color=16711935*
%FSLAX25Y25*%
%MOIN*%
G70*
G01*
G75*
%ADD27C,0.08000*%
%ADD28C,0.06506*%
%ADD29R,0.06506X0.06506*%
%ADD30C,0.07600*%
%ADD31C,0.10600*%
%ADD32C,0.00600*%
G04:AMPARAMS|DCode=33|XSize=36mil|YSize=28mil|CornerRadius=8.5mil|HoleSize=0mil|Usage=FLASHONLY|Rotation=270.000|XOffset=0mil|YOffset=0mil|HoleType=Round|Shape=RoundedRectangle|*
%AMROUNDEDRECTD33*
21,1,0.03600,0.01100,0,0,270.0*
21,1,0.01900,0.02800,0,0,270.0*
1,1,0.01700,-0.00550,-0.00950*
1,1,0.01700,-0.00550,0.00950*
1,1,0.01700,0.00550,0.00950*
1,1,0.01700,0.00550,-0.00950*
%
%ADD33ROUNDEDRECTD33*%
G04:AMPARAMS|DCode=34|XSize=36mil|YSize=28mil|CornerRadius=8.5mil|HoleSize=0mil|Usage=FLASHONLY|Rotation=0.000|XOffset=0mil|YOffset=0mil|HoleType=Round|Shape=RoundedRectangle|*
%AMROUNDEDRECTD34*
21,1,0.03600,0.01100,0,0,0.0*
21,1,0.01900,0.02800,0,0,0.0*
1,1,0.01700,0.00950,-0.00550*
1,1,0.01700,-0.00950,-0.00550*
1,1,0.01700,-0.00950,0.00550*
1,1,0.01700,0.00950,0.00550*
%
%ADD34ROUNDEDRECTD34*%
%ADD35R,0.10049X0.19773*%
%ADD36O,0.07293X0.01978*%
D27*
X632874Y164449D02*
D03*
Y154449D02*
D03*
Y126890D02*
D03*
Y136890D02*
D03*
X108268Y164449D02*
D03*
Y154449D02*
D03*
Y126890D02*
D03*
Y136890D02*
D03*
D28*
X320000Y105000D02*
D03*
X310000D02*
D03*
X300000D02*
D03*
X290000D02*
D03*
X280000D02*
D03*
X270000D02*
D03*
X260000D02*
D03*
X250000D02*
D03*
X240000D02*
D03*
X230000D02*
D03*
X220000D02*
D03*
D29*
X210000D02*
D03*
D30*
X139921Y140984D02*
D03*
Y150984D02*
D03*
X202913Y140984D02*
D03*
Y150984D02*
D03*
X265905Y140984D02*
D03*
Y150984D02*
D03*
X454882Y140984D02*
D03*
Y150984D02*
D03*
X517874Y140984D02*
D03*
Y150984D02*
D03*
X580866Y140984D02*
D03*
Y150984D02*
D03*
D31*
X159921Y145984D02*
D03*
X169921Y125984D02*
D03*
X149921D02*
D03*
X129921D02*
D03*
X222913Y145984D02*
D03*
X232913Y125984D02*
D03*
X212913D02*
D03*
X192913D02*
D03*
X285906Y145984D02*
D03*
X295905Y125984D02*
D03*
X275905D02*
D03*
X255906D02*
D03*
X474882Y145984D02*
D03*
X484882Y125984D02*
D03*
X464882D02*
D03*
X444882D02*
D03*
X537874Y145984D02*
D03*
X547874Y125984D02*
D03*
X527874D02*
D03*
X507874D02*
D03*
X600866Y145984D02*
D03*
X610866Y125984D02*
D03*
X590866D02*
D03*
X570866D02*
D03*
D32*
X421260Y142717D02*
D03*
X318898D02*
D03*
X631890Y177165D02*
D03*
Y110236D02*
D03*
X110236D02*
D03*
Y177165D02*
D03*
D33*
X377709Y133465D02*
D03*
X383709D02*
D03*
X189913Y151575D02*
D03*
X195913D02*
D03*
X189913Y146653D02*
D03*
X195913D02*
D03*
X189913Y141732D02*
D03*
X195913D02*
D03*
X189913Y136811D02*
D03*
X195913D02*
D03*
D34*
X373048Y167241D02*
D03*
Y173241D02*
D03*
X368126Y167241D02*
D03*
Y173241D02*
D03*
X363205Y167241D02*
D03*
Y173241D02*
D03*
X358283Y167241D02*
D03*
Y173241D02*
D03*
X353362Y167241D02*
D03*
Y173241D02*
D03*
X348441Y167241D02*
D03*
Y173241D02*
D03*
X343520Y167241D02*
D03*
Y173241D02*
D03*
X338598Y167241D02*
D03*
Y173241D02*
D03*
X234646Y150835D02*
D03*
Y156835D02*
D03*
X239567Y150787D02*
D03*
Y156787D02*
D03*
X244488Y150787D02*
D03*
Y156787D02*
D03*
X234646Y140835D02*
D03*
Y146835D02*
D03*
X239567Y140945D02*
D03*
Y146945D02*
D03*
X244488Y140945D02*
D03*
Y146945D02*
D03*
X416339Y112157D02*
D03*
Y118157D02*
D03*
X426181Y112157D02*
D03*
Y118157D02*
D03*
X416339Y122984D02*
D03*
Y128984D02*
D03*
X421260Y122984D02*
D03*
Y128984D02*
D03*
X426181Y122984D02*
D03*
Y128984D02*
D03*
X377953Y122984D02*
D03*
Y128984D02*
D03*
X382874Y122984D02*
D03*
Y128984D02*
D03*
X387795Y122984D02*
D03*
Y128984D02*
D03*
X392717Y122984D02*
D03*
Y128984D02*
D03*
X421260Y112157D02*
D03*
Y118157D02*
D03*
D35*
X358268Y143701D02*
D03*
D36*
X369488Y157776D02*
D03*
Y155217D02*
D03*
Y152657D02*
D03*
Y150098D02*
D03*
Y147539D02*
D03*
Y144980D02*
D03*
Y142421D02*
D03*
Y139862D02*
D03*
Y137303D02*
D03*
Y134744D02*
D03*
Y132185D02*
D03*
Y129626D02*
D03*
X347047Y157776D02*
D03*
Y155217D02*
D03*
Y152657D02*
D03*
Y150098D02*
D03*
Y147539D02*
D03*
Y144980D02*
D03*
Y142421D02*
D03*
Y139862D02*
D03*
Y137303D02*
D03*
Y134744D02*
D03*
Y132185D02*
D03*
Y129626D02*
D03*
M02*
