M48
;Layer_Color=9474304
;FILE_FORMAT=2:5
INCH,TZ
;TYPE=PLATED
T2F00S00C0.01378
T3F00S00C0.03200
T4F00S00C0.03543
T5F00S00C0.05000
;TYPE=NON_PLATED
T1F00S00C0.12598
%
T02
X205512Y114173
X213779Y117716
X234252Y136811
X239173
X244094
X268701Y118110
X272637Y118110
X185039Y136811
Y141732
Y146653
X356102Y145866
Y150197
X360433
Y145866
Y141535
X356102
Y137205
X360433
X374016Y123031
X397638
X387795Y133858
X399606Y152362
X416339Y107283
X421260
X426181
X474803Y174803
X285906Y174724
X248331Y156787
X222835Y174803
X195669Y158268
T03
X108268Y126890
Y136890
Y154449
X632874
Y136890
Y126890
Y164449
X108268
T04
X210000Y105000
X220000
X230000
X240000
X250000
X260000
X270000
X280000
X290000
X300000
X310000
X320000
T05
X129921Y125984
X149921
X139921Y140984
Y150984
X159921Y145984
X169921Y125984
X192913
X212913
X232913
X255906
X275905
X295905
X285906Y145984
X265905Y140984
Y150984
X222913Y145984
X202913Y140984
Y150984
X454882
Y140984
X464882Y125984
X444882
X484882
X507874
X527874
X547874
X570866
X590866
X610866
X600866Y145984
X580866Y140984
Y150984
X537874Y145984
X517874Y140984
Y150984
X474882Y145984
T01
X110236Y110236
X318898Y142717
X421260
X631890Y110236
Y177165
X110236
M30
