G04 Layer_Physical_Order=2*
G04 Layer_Color=16750950*
%FSLAX25Y25*%
%MOIN*%
G70*
G01*
G75*
%ADD10C,0.00787*%
%ADD11C,0.07874*%
%ADD12C,0.03937*%
%ADD13C,0.01181*%
%ADD14C,0.07400*%
%ADD15C,0.05905*%
%ADD16R,0.05905X0.05905*%
%ADD17C,0.07000*%
%ADD18C,0.10000*%
%ADD19C,0.02953*%
G04:AMPARAMS|DCode=20|XSize=30mil|YSize=22mil|CornerRadius=5.5mil|HoleSize=0mil|Usage=FLASHONLY|Rotation=270.000|XOffset=0mil|YOffset=0mil|HoleType=Round|Shape=RoundedRectangle|*
%AMROUNDEDRECTD20*
21,1,0.03000,0.01100,0,0,270.0*
21,1,0.01900,0.02200,0,0,270.0*
1,1,0.01100,-0.00550,-0.00950*
1,1,0.01100,-0.00550,0.00950*
1,1,0.01100,0.00550,0.00950*
1,1,0.01100,0.00550,-0.00950*
%
%ADD20ROUNDEDRECTD20*%
G04:AMPARAMS|DCode=21|XSize=30mil|YSize=22mil|CornerRadius=5.5mil|HoleSize=0mil|Usage=FLASHONLY|Rotation=0.000|XOffset=0mil|YOffset=0mil|HoleType=Round|Shape=RoundedRectangle|*
%AMROUNDEDRECTD21*
21,1,0.03000,0.01100,0,0,0.0*
21,1,0.01900,0.02200,0,0,0.0*
1,1,0.01100,0.00950,-0.00550*
1,1,0.01100,-0.00950,-0.00550*
1,1,0.01100,-0.00950,0.00550*
1,1,0.01100,0.00950,0.00550*
%
%ADD21ROUNDEDRECTD21*%
%ADD22R,0.09449X0.19173*%
%ADD23O,0.06693X0.01378*%
%ADD24C,0.01968*%
%ADD25C,0.02953*%
G36*
X109755Y142135D02*
X109789Y141782D01*
X109844Y141446D01*
X109922Y141125D01*
X110022Y140821D01*
X110145Y140531D01*
X110290Y140258D01*
X110457Y140000D01*
X110646Y139758D01*
X110858Y139532D01*
X105678D01*
X105889Y139758D01*
X106079Y140000D01*
X106246Y140258D01*
X106390Y140531D01*
X106513Y140821D01*
X106613Y141125D01*
X106691Y141446D01*
X106747Y141782D01*
X106780Y142135D01*
X106791Y142502D01*
X109744D01*
X109755Y142135D01*
D02*
G37*
G36*
X372435Y140491D02*
X372482Y140483D01*
X372552Y140476D01*
X372894Y140460D01*
X373661Y140453D01*
Y139272D01*
X372410Y139225D01*
Y140500D01*
X372435Y140491D01*
D02*
G37*
G36*
X344126Y139225D02*
X344100Y139234D01*
X344053Y139242D01*
X343983Y139249D01*
X343641Y139264D01*
X342874Y139272D01*
Y140453D01*
X344126Y140500D01*
Y139225D01*
D02*
G37*
G36*
X636581Y151439D02*
Y139900D01*
X636108Y139739D01*
X635941Y139956D01*
X635043Y140646D01*
X633996Y141079D01*
X633483Y141147D01*
X633379Y141209D01*
X633097Y141251D01*
X632844Y141309D01*
X632593Y141386D01*
X632346Y141483D01*
X632099Y141601D01*
X631854Y141739D01*
X631611Y141899D01*
X631368Y142081D01*
X631127Y142286D01*
X630874Y142525D01*
X630855Y142533D01*
X629074Y144314D01*
X629068Y144331D01*
X628719Y144719D01*
X628477Y145065D01*
X628314Y145389D01*
X628223Y145693D01*
X628194Y145984D01*
X628223Y146275D01*
X628314Y146579D01*
X628477Y146904D01*
X628719Y147250D01*
X629068Y147638D01*
X629074Y147655D01*
X630375Y148956D01*
X630394Y148963D01*
X630647Y149201D01*
X630886Y149399D01*
X631125Y149570D01*
X631365Y149716D01*
X631604Y149837D01*
X631844Y149934D01*
X632086Y150008D01*
X632330Y150060D01*
X632578Y150091D01*
X632859Y150100D01*
X632889Y150114D01*
X633996Y150259D01*
X635043Y150693D01*
X635941Y151382D01*
X636108Y151600D01*
X636581Y151439D01*
D02*
G37*
G36*
X578068Y154006D02*
X577942Y153908D01*
X577285Y153052D01*
X576872Y152055D01*
X576731Y150988D01*
X576717Y150954D01*
X576713Y150470D01*
X576655Y149611D01*
X576604Y149256D01*
X576538Y148933D01*
X576458Y148653D01*
X576368Y148414D01*
X576271Y148216D01*
X576168Y148059D01*
X576032Y147902D01*
X576015Y147850D01*
X568356Y140190D01*
X539826D01*
X539727Y140690D01*
X540698Y141093D01*
X541868Y141990D01*
X542766Y143160D01*
X543330Y144522D01*
X543522Y145984D01*
X543330Y147446D01*
X542766Y148808D01*
X542450Y149220D01*
Y154479D01*
X577908D01*
X578068Y154006D01*
D02*
G37*
G36*
X533298Y156728D02*
Y149220D01*
X532982Y148808D01*
X532418Y147446D01*
X532226Y145984D01*
X532418Y144522D01*
X532982Y143160D01*
X533880Y141990D01*
X535050Y141093D01*
X536021Y140690D01*
X535922Y140190D01*
X534831D01*
X530348Y144674D01*
Y155194D01*
X530348Y155194D01*
X530255Y155659D01*
X529992Y156053D01*
X516626Y169419D01*
X516232Y169682D01*
X516006Y169727D01*
X516056Y170227D01*
X519798D01*
X533298Y156728D01*
D02*
G37*
G36*
X143262Y142068D02*
X143330Y141964D01*
X143414Y141873D01*
X143514Y141794D01*
X143630Y141727D01*
X143762Y141672D01*
X143910Y141630D01*
X144074Y141599D01*
X144253Y141581D01*
X144449Y141575D01*
Y140394D01*
X144253Y140388D01*
X144074Y140369D01*
X143910Y140339D01*
X143762Y140296D01*
X143630Y140242D01*
X143514Y140175D01*
X143414Y140096D01*
X143330Y140004D01*
X143262Y139901D01*
X143210Y139785D01*
Y142183D01*
X143262Y142068D01*
D02*
G37*
G36*
X630693Y141802D02*
X630963Y141574D01*
X631237Y141368D01*
X631516Y141185D01*
X631799Y141024D01*
X632087Y140887D01*
X632379Y140773D01*
X632676Y140681D01*
X632977Y140613D01*
X633283Y140567D01*
X629206Y137372D01*
X629230Y137676D01*
X629224Y137976D01*
X629187Y138272D01*
X629119Y138565D01*
X629020Y138854D01*
X628890Y139139D01*
X628730Y139420D01*
X628538Y139698D01*
X628316Y139973D01*
X628063Y140243D01*
X630428Y142054D01*
X630693Y141802D01*
D02*
G37*
G36*
X344126Y136665D02*
X344100Y136674D01*
X344053Y136682D01*
X343983Y136689D01*
X343641Y136705D01*
X342874Y136713D01*
Y137894D01*
X344126Y137941D01*
Y136665D01*
D02*
G37*
G36*
X211609Y161397D02*
X206047Y155835D01*
X205996Y155818D01*
X205838Y155682D01*
X205681Y155580D01*
X205484Y155482D01*
X205245Y155392D01*
X204964Y155313D01*
X204642Y155246D01*
X204286Y155195D01*
X203427Y155137D01*
X202944Y155133D01*
X202910Y155119D01*
X201843Y154979D01*
X200846Y154566D01*
X199989Y153908D01*
X199332Y153052D01*
X198919Y152055D01*
X198778Y150984D01*
X198919Y149914D01*
X199332Y148917D01*
X199989Y148060D01*
X200846Y147403D01*
X201843Y146990D01*
X202913Y146849D01*
X203984Y146990D01*
X204981Y147403D01*
X205838Y148060D01*
X206219Y148557D01*
X206719Y148387D01*
Y146506D01*
X206047Y145835D01*
X205996Y145818D01*
X205838Y145682D01*
X205681Y145580D01*
X205484Y145482D01*
X205245Y145392D01*
X204964Y145313D01*
X204642Y145246D01*
X204286Y145195D01*
X203427Y145137D01*
X202944Y145133D01*
X202910Y145119D01*
X201843Y144979D01*
X200846Y144566D01*
X199989Y143908D01*
X199332Y143052D01*
X198919Y142055D01*
X198778Y140984D01*
X198919Y139914D01*
X199332Y138917D01*
X199989Y138060D01*
X200846Y137403D01*
X201843Y136990D01*
X202913Y136849D01*
X203984Y136990D01*
X204981Y137403D01*
X205838Y138060D01*
X206495Y138917D01*
X206908Y139914D01*
X207048Y140981D01*
X207063Y141014D01*
X207066Y141498D01*
X207124Y142357D01*
X207175Y142712D01*
X207242Y143035D01*
X207321Y143316D01*
X207411Y143555D01*
X207509Y143752D01*
X207611Y143909D01*
X207747Y144067D01*
X207764Y144118D01*
X208791Y145145D01*
X208791Y145145D01*
X209054Y145539D01*
X209146Y146003D01*
X209146Y146004D01*
Y151918D01*
X215204Y157975D01*
X215232Y157970D01*
X215397Y157427D01*
X212055Y154086D01*
X211792Y153692D01*
X211700Y153227D01*
X211700Y153227D01*
Y131473D01*
X211452Y131440D01*
X210089Y130876D01*
X208919Y129978D01*
X208022Y128808D01*
X207457Y127446D01*
X207265Y125984D01*
X207457Y124522D01*
X208022Y123160D01*
X208919Y121990D01*
X210089Y121093D01*
X211452Y120528D01*
X212913Y120336D01*
X214292Y120517D01*
X214557Y120350D01*
X214763Y120148D01*
X214761Y120059D01*
X214670Y119973D01*
X214600Y119917D01*
X214536Y119873D01*
X214477Y119841D01*
X214425Y119819D01*
X214378Y119804D01*
X214335Y119796D01*
X214293Y119792D01*
X214248Y119794D01*
X214166Y119806D01*
X214056Y119778D01*
X213779Y119833D01*
X212969Y119672D01*
X212282Y119213D01*
X211823Y118526D01*
X211728Y118048D01*
X211186Y117884D01*
X206154Y122915D01*
Y129113D01*
X206066Y129784D01*
X205807Y130409D01*
X205396Y130945D01*
X198260Y138081D01*
Y158268D01*
X198172Y158938D01*
X197913Y159563D01*
X197501Y160100D01*
X196965Y160511D01*
X196340Y160770D01*
X195669Y160858D01*
X194999Y160770D01*
X194374Y160511D01*
X193837Y160100D01*
X193426Y159563D01*
X193167Y158938D01*
X193079Y158268D01*
Y137008D01*
X193167Y136337D01*
X193426Y135713D01*
X193837Y135176D01*
X200973Y128040D01*
Y121842D01*
X201061Y121171D01*
X201320Y120546D01*
X201732Y120010D01*
X205086Y116655D01*
X204941Y116177D01*
X204702Y116129D01*
X204015Y115670D01*
X203825Y115386D01*
X203770Y115363D01*
X202558Y114154D01*
X202532Y114091D01*
X202253Y113812D01*
X163810D01*
X156485Y121137D01*
X156470Y121186D01*
X156295Y121395D01*
X156158Y121624D01*
X156026Y121924D01*
X155905Y122296D01*
X155800Y122737D01*
X155715Y123231D01*
X155573Y125174D01*
X155570Y125937D01*
X155565Y125950D01*
X155570Y125984D01*
X155377Y127446D01*
X154813Y128808D01*
X153915Y129978D01*
X152745Y130876D01*
X151383Y131440D01*
X149921Y131633D01*
X148459Y131440D01*
X147097Y130876D01*
X145927Y129978D01*
X145030Y128808D01*
X144465Y127446D01*
X144273Y125984D01*
X144465Y124522D01*
X145030Y123160D01*
X145927Y121990D01*
X147097Y121093D01*
X148459Y120528D01*
X149921Y120336D01*
X149956Y120341D01*
X149969Y120335D01*
X150737Y120332D01*
X152092Y120260D01*
X152660Y120193D01*
X153169Y120106D01*
X153610Y120001D01*
X153981Y119880D01*
X154281Y119747D01*
X154511Y119610D01*
X154720Y119436D01*
X154768Y119421D01*
X162449Y111740D01*
X162449Y111740D01*
X162843Y111477D01*
X163307Y111384D01*
X163307Y111385D01*
X202756D01*
X202756Y111384D01*
X203220Y111477D01*
X203614Y111740D01*
X204019Y112145D01*
X204042Y112149D01*
X204074Y112196D01*
X204127Y112216D01*
X204221Y112304D01*
X204287Y112358D01*
X204339Y112392D01*
X204357Y112401D01*
X204445Y112389D01*
X204702Y112217D01*
X205512Y112056D01*
X206322Y112217D01*
X207009Y112676D01*
X207468Y113363D01*
X207515Y113603D01*
X207994Y113748D01*
X209902Y111839D01*
X210439Y111428D01*
X211064Y111169D01*
X211734Y111081D01*
X216948D01*
X217409Y110620D01*
Y109040D01*
X217382Y108974D01*
X217381Y108644D01*
X217358Y107656D01*
X217337Y107388D01*
X217334Y107361D01*
X216897Y106792D01*
X216539Y105927D01*
X216417Y105000D01*
X216539Y104073D01*
X216897Y103208D01*
X217466Y102466D01*
X217910Y102126D01*
X217740Y101626D01*
X214174D01*
X213756Y102047D01*
Y104409D01*
X206244D01*
Y102047D01*
X205826Y101626D01*
X101626D01*
Y124159D01*
X102126Y124310D01*
X102282Y124077D01*
X105218Y121141D01*
X105218Y121141D01*
X105611Y120878D01*
X106076Y120785D01*
X110582D01*
X110582Y120785D01*
X111046Y120878D01*
X111440Y121141D01*
X115425Y125126D01*
X115425Y125126D01*
X115688Y125520D01*
X115781Y125984D01*
Y129025D01*
X119400Y132644D01*
X164961D01*
X164961Y132644D01*
X165425Y132737D01*
X165819Y133000D01*
X194678Y161859D01*
X211418D01*
X211609Y161397D01*
D02*
G37*
G36*
X426778Y120200D02*
X426795Y119988D01*
X426824Y119801D01*
X426865Y119639D01*
X426918Y119502D01*
X426982Y119390D01*
X427058Y119302D01*
X427145Y119240D01*
X427245Y119203D01*
X427355Y119190D01*
X425007D01*
X425118Y119203D01*
X425217Y119240D01*
X425304Y119302D01*
X425380Y119390D01*
X425445Y119502D01*
X425497Y119639D01*
X425538Y119801D01*
X425567Y119988D01*
X425585Y120200D01*
X425591Y120437D01*
X426772D01*
X426778Y120200D01*
D02*
G37*
G36*
X416935D02*
X416953Y119988D01*
X416982Y119801D01*
X417023Y119639D01*
X417075Y119502D01*
X417139Y119390D01*
X417215Y119302D01*
X417303Y119240D01*
X417402Y119203D01*
X417513Y119190D01*
X415164D01*
X415275Y119203D01*
X415374Y119240D01*
X415462Y119302D01*
X415538Y119390D01*
X415602Y119502D01*
X415655Y119639D01*
X415695Y119801D01*
X415725Y119988D01*
X415742Y120200D01*
X415748Y120437D01*
X416929D01*
X416935Y120200D01*
D02*
G37*
G36*
X421856D02*
X421874Y119988D01*
X421903Y119801D01*
X421944Y119639D01*
X421996Y119502D01*
X422061Y119390D01*
X422136Y119302D01*
X422224Y119240D01*
X422323Y119203D01*
X422434Y119190D01*
X420085D01*
X420196Y119203D01*
X420296Y119240D01*
X420383Y119302D01*
X420459Y119390D01*
X420523Y119502D01*
X420576Y119639D01*
X420617Y119801D01*
X420646Y119988D01*
X420663Y120200D01*
X420669Y120437D01*
X421850D01*
X421856Y120200D01*
D02*
G37*
G36*
X578367Y138534D02*
X578008Y138888D01*
X577327Y139483D01*
X577004Y139724D01*
X576693Y139929D01*
X576394Y140096D01*
X576107Y140226D01*
X575831Y140319D01*
X575568Y140375D01*
X575316Y140394D01*
Y141575D01*
X575568Y141593D01*
X575831Y141649D01*
X576107Y141742D01*
X576394Y141872D01*
X576693Y142040D01*
X577004Y142244D01*
X577327Y142486D01*
X578008Y143081D01*
X578367Y143434D01*
Y138534D01*
D02*
G37*
G36*
X421260Y117567D02*
X421245Y117559D01*
X421214Y117534D01*
X421105Y117433D01*
X420910Y117242D01*
X421275Y117071D01*
X421197Y117096D01*
X421111Y117104D01*
X421019Y117093D01*
X420919Y117063D01*
X420811Y117016D01*
X420696Y116949D01*
X420573Y116865D01*
X420443Y116762D01*
X420306Y116641D01*
X420161Y116502D01*
X419302Y116757D01*
X419459Y116919D01*
X419698Y117202D01*
X419782Y117324D01*
X419841Y117432D01*
X419876Y117527D01*
X419887Y117608D01*
X419873Y117676D01*
X419835Y117731D01*
X419773Y117772D01*
X420136Y117603D01*
X420669Y118158D01*
X421260Y117567D01*
D02*
G37*
G36*
X514558Y145161D02*
X514784Y145015D01*
X515044Y144886D01*
X515340Y144775D01*
X515669Y144682D01*
X516034Y144606D01*
X516433Y144549D01*
X517336Y144488D01*
X517839Y144484D01*
X514374Y141019D01*
X514370Y141523D01*
X514309Y142425D01*
X514252Y142824D01*
X514177Y143189D01*
X514084Y143519D01*
X513973Y143814D01*
X513844Y144074D01*
X513697Y144300D01*
X513532Y144491D01*
X514367Y145326D01*
X514558Y145161D01*
D02*
G37*
G36*
X451566D02*
X451792Y145015D01*
X452052Y144886D01*
X452347Y144775D01*
X452677Y144682D01*
X453042Y144606D01*
X453441Y144549D01*
X454344Y144488D01*
X454847Y144484D01*
X451382Y141019D01*
X451378Y141523D01*
X451317Y142425D01*
X451260Y142824D01*
X451185Y143189D01*
X451091Y143519D01*
X450980Y143814D01*
X450851Y144074D01*
X450705Y144300D01*
X450540Y144491D01*
X451375Y145326D01*
X451566Y145161D01*
D02*
G37*
G36*
X344126Y141784D02*
X344100Y141793D01*
X344053Y141800D01*
X343983Y141808D01*
X343641Y141823D01*
X342874Y141831D01*
Y143012D01*
X344126Y143059D01*
Y141784D01*
D02*
G37*
G36*
X628585Y148072D02*
X628209Y147655D01*
X627917Y147237D01*
X627708Y146819D01*
X627583Y146402D01*
X627541Y145984D01*
X627583Y145567D01*
X627708Y145149D01*
X627917Y144731D01*
X628209Y144314D01*
X628585Y143896D01*
X625886Y142420D01*
X625460Y142817D01*
X625016Y143172D01*
X624555Y143485D01*
X624077Y143756D01*
X623582Y143986D01*
X623069Y144174D01*
X622539Y144320D01*
X621992Y144424D01*
X621427Y144487D01*
X620845Y144508D01*
Y147461D01*
X621427Y147482D01*
X621992Y147544D01*
X622539Y147649D01*
X623069Y147795D01*
X623582Y147983D01*
X624077Y148212D01*
X624555Y148484D01*
X625016Y148797D01*
X625460Y149152D01*
X625886Y149549D01*
X628585Y148072D01*
D02*
G37*
G36*
X231815Y151469D02*
X231836Y151410D01*
X232258Y150958D01*
X232399Y150782D01*
X232508Y150627D01*
X232523Y150601D01*
Y150285D01*
X232549Y150156D01*
X232536Y150119D01*
X232560Y150070D01*
X232551Y150017D01*
X232586Y149967D01*
X232612Y149836D01*
X232867Y149456D01*
X233003Y149364D01*
X233012Y149343D01*
X233073Y149317D01*
X233247Y149201D01*
X233331Y149185D01*
X233341Y149157D01*
X233366Y149061D01*
X233386Y148927D01*
X233394Y148835D01*
X233386Y148742D01*
X233366Y148608D01*
X233341Y148512D01*
X233331Y148485D01*
X233247Y148468D01*
X233073Y148352D01*
X233012Y148327D01*
X233003Y148305D01*
X232867Y148214D01*
X232612Y147833D01*
X232523Y147385D01*
Y146285D01*
X232612Y145836D01*
X232867Y145456D01*
X233247Y145201D01*
X233696Y145112D01*
X234802D01*
X234863Y145077D01*
X234939Y145025D01*
X235165Y144835D01*
X235294Y144711D01*
X235363Y144684D01*
X235415Y144632D01*
X235435Y144608D01*
X235439Y144608D01*
X237300Y142747D01*
X237351Y142458D01*
X237216Y142266D01*
X236610Y142273D01*
X236560Y142349D01*
X236118Y142645D01*
X235596Y142748D01*
X235236D01*
Y140835D01*
Y138921D01*
X235596D01*
X236118Y139025D01*
X236560Y139321D01*
X236856Y139763D01*
X236862Y139797D01*
X237237Y139855D01*
X237380Y139838D01*
X237653Y139431D01*
X238095Y139135D01*
X238617Y139031D01*
X238976D01*
Y140945D01*
X240158D01*
Y139031D01*
X240517D01*
X241039Y139135D01*
X241481Y139431D01*
X241771Y139864D01*
X241824Y139873D01*
X242231Y139873D01*
X242285Y139864D01*
X242574Y139431D01*
X243016Y139135D01*
X243538Y139031D01*
X243898D01*
Y140945D01*
X244488D01*
Y141535D01*
X246949D01*
X246969Y141550D01*
X247280Y141653D01*
X256745Y132189D01*
X256523Y131740D01*
X256496Y131744D01*
Y126575D01*
X261665D01*
X261662Y126602D01*
X262110Y126823D01*
X267688Y121246D01*
Y120513D01*
X267658Y120452D01*
X267654Y120359D01*
X267644Y120298D01*
X267628Y120232D01*
X267603Y120162D01*
X267568Y120087D01*
X267522Y120005D01*
X267464Y119918D01*
X267394Y119826D01*
X267310Y119729D01*
X267201Y119617D01*
X267188Y119583D01*
X266745Y118920D01*
X266584Y118110D01*
X266745Y117300D01*
X267031Y116871D01*
X266764Y116371D01*
X260827D01*
X260362Y116279D01*
X259968Y116016D01*
X259968Y116016D01*
X255403Y111450D01*
X248031D01*
X247567Y111358D01*
X247173Y111095D01*
X247173Y111094D01*
X243699Y107620D01*
X243645Y107601D01*
X243482Y107457D01*
X243363Y107376D01*
X243262Y107329D01*
X243174Y107306D01*
X243092Y107300D01*
X243001Y107311D01*
X242892Y107345D01*
X242761Y107409D01*
X242608Y107510D01*
X242415Y107672D01*
X242407Y107675D01*
X242403Y107682D01*
X242304Y107710D01*
X241792Y108103D01*
X240927Y108461D01*
X240000Y108583D01*
X239073Y108461D01*
X238208Y108103D01*
X237466Y107534D01*
X236976Y106895D01*
X236528Y106996D01*
X236476Y107025D01*
Y115748D01*
X236286Y116207D01*
X232593Y119901D01*
X232814Y120349D01*
X232913Y120336D01*
X234375Y120528D01*
X235738Y121093D01*
X236907Y121990D01*
X237805Y123160D01*
X238369Y124522D01*
X238562Y125984D01*
X238369Y127446D01*
X237805Y128808D01*
X236907Y129978D01*
X235738Y130876D01*
X234375Y131440D01*
X232913Y131633D01*
X231452Y131440D01*
X230593Y131084D01*
X230177Y131362D01*
Y152453D01*
X230639Y152644D01*
X231815Y151469D01*
D02*
G37*
G36*
X372435Y143050D02*
X372482Y143042D01*
X372552Y143035D01*
X372894Y143019D01*
X373661Y143012D01*
Y141831D01*
X372410Y141784D01*
Y143059D01*
X372435Y143050D01*
D02*
G37*
G36*
X414852Y118554D02*
X415921Y118575D01*
Y117740D01*
X415905Y117744D01*
X415865Y117748D01*
X415717Y117755D01*
X414852Y117763D01*
Y117627D01*
X414847Y117653D01*
X414830Y117676D01*
X414803Y117697D01*
X414765Y117715D01*
X414716Y117730D01*
X414657Y117742D01*
X414586Y117752D01*
X414413Y117762D01*
X414310Y117764D01*
Y118551D01*
X414413Y118552D01*
X414657Y118573D01*
X414716Y118585D01*
X414765Y118600D01*
X414803Y118618D01*
X414830Y118639D01*
X414847Y118662D01*
X414852Y118688D01*
Y118554D01*
D02*
G37*
G36*
X215864Y118573D02*
X215763Y118467D01*
X215587Y118252D01*
X215511Y118142D01*
X215444Y118031D01*
X215385Y117918D01*
X215334Y117804D01*
X215292Y117688D01*
X215258Y117571D01*
X215232Y117453D01*
X214071Y119163D01*
X214190Y119146D01*
X214306Y119142D01*
X214422Y119151D01*
X214537Y119173D01*
X214651Y119209D01*
X214764Y119257D01*
X214876Y119319D01*
X214986Y119394D01*
X215096Y119483D01*
X215205Y119584D01*
X215864Y118573D01*
D02*
G37*
G36*
X269101Y120293D02*
X269120Y120168D01*
X269152Y120043D01*
X269197Y119917D01*
X269254Y119792D01*
X269325Y119666D01*
X269408Y119541D01*
X269504Y119415D01*
X269613Y119290D01*
X269734Y119165D01*
X267667D01*
X267789Y119290D01*
X267898Y119415D01*
X267994Y119541D01*
X268077Y119666D01*
X268147Y119792D01*
X268205Y119917D01*
X268250Y120043D01*
X268282Y120168D01*
X268301Y120293D01*
X268307Y120419D01*
X269094D01*
X269101Y120293D01*
D02*
G37*
G36*
X426182Y117567D02*
X426167Y117559D01*
X426136Y117534D01*
X426026Y117433D01*
X425831Y117242D01*
X426196Y117071D01*
X426118Y117096D01*
X426033Y117104D01*
X425940Y117093D01*
X425840Y117063D01*
X425732Y117016D01*
X425617Y116949D01*
X425494Y116865D01*
X425365Y116762D01*
X425227Y116641D01*
X425083Y116502D01*
X424224Y116757D01*
X424380Y116919D01*
X424620Y117202D01*
X424703Y117324D01*
X424762Y117432D01*
X424797Y117527D01*
X424808Y117608D01*
X424794Y117676D01*
X424757Y117731D01*
X424695Y117772D01*
X425057Y117603D01*
X425591Y118158D01*
X426182Y117567D01*
D02*
G37*
G36*
X270247Y144491D02*
X270083Y144300D01*
X269936Y144074D01*
X269807Y143814D01*
X269696Y143519D01*
X269603Y143189D01*
X269528Y142824D01*
X269470Y142425D01*
X269409Y141523D01*
X269405Y141019D01*
X265940Y144484D01*
X266444Y144488D01*
X267347Y144549D01*
X267746Y144606D01*
X268110Y144682D01*
X268440Y144775D01*
X268735Y144886D01*
X268996Y145015D01*
X269221Y145161D01*
X269412Y145326D01*
X270247Y144491D01*
D02*
G37*
G36*
X207255D02*
X207091Y144300D01*
X206944Y144074D01*
X206815Y143814D01*
X206704Y143519D01*
X206611Y143189D01*
X206535Y142824D01*
X206478Y142425D01*
X206417Y141523D01*
X206413Y141019D01*
X202948Y144484D01*
X203452Y144488D01*
X204354Y144549D01*
X204754Y144606D01*
X205118Y144682D01*
X205448Y144775D01*
X205743Y144886D01*
X206003Y145015D01*
X206229Y145161D01*
X206420Y145326D01*
X207255Y144491D01*
D02*
G37*
G36*
X155345Y149220D02*
X155030Y148808D01*
X154465Y147446D01*
X154273Y145984D01*
X154465Y144522D01*
X155030Y143160D01*
X155927Y141990D01*
X156840Y141290D01*
X156670Y140790D01*
X151084D01*
X144457Y147417D01*
X144448Y147452D01*
X144425Y147466D01*
X144416Y147492D01*
X144272Y147660D01*
X144172Y147817D01*
X144085Y148004D01*
X144012Y148226D01*
X143958Y148484D01*
X143923Y148778D01*
X143910Y149100D01*
X143957Y149889D01*
X144019Y150331D01*
X143987Y150454D01*
X144057Y150984D01*
X143916Y152055D01*
X143503Y153052D01*
X142845Y153908D01*
X141989Y154566D01*
X140992Y154979D01*
X139921Y155120D01*
X138851Y154979D01*
X137854Y154566D01*
X136997Y153908D01*
X136340Y153052D01*
X135927Y152055D01*
X135786Y150984D01*
X135927Y149914D01*
X136340Y148917D01*
X136997Y148060D01*
X137854Y147403D01*
X138851Y146990D01*
X139220Y146941D01*
X139319Y146879D01*
X140328Y146709D01*
X141155Y146517D01*
X141493Y146415D01*
X141790Y146309D01*
X142041Y146201D01*
X142242Y146094D01*
X142394Y145993D01*
X142535Y145871D01*
X142587Y145854D01*
X148970Y139471D01*
X148778Y139009D01*
X148141D01*
X145307Y141843D01*
X144913Y142106D01*
X144587Y142171D01*
X144469Y142224D01*
X144296Y142229D01*
X144166Y142243D01*
X144060Y142262D01*
X143977Y142286D01*
X143918Y142311D01*
X143880Y142333D01*
X143857Y142351D01*
X143843Y142366D01*
X143832Y142382D01*
X143801Y142451D01*
X143720Y142527D01*
X143503Y143052D01*
X142845Y143908D01*
X141989Y144566D01*
X140992Y144979D01*
X139921Y145120D01*
X138851Y144979D01*
X137854Y144566D01*
X136997Y143908D01*
X136340Y143052D01*
X135927Y142055D01*
X135786Y140984D01*
X135927Y139914D01*
X136340Y138917D01*
X136997Y138060D01*
X137674Y137541D01*
X137504Y137041D01*
X117717D01*
X117717Y137041D01*
X117252Y136948D01*
X116858Y136685D01*
X111922Y131749D01*
X111876Y131735D01*
X111872Y131728D01*
X111864Y131725D01*
X111692Y131578D01*
X111525Y131472D01*
X111320Y131377D01*
X111074Y131295D01*
X110787Y131229D01*
X110457Y131182D01*
X110095Y131156D01*
X109217Y131172D01*
X108723Y131215D01*
X108615Y131181D01*
X108268Y131227D01*
X107145Y131079D01*
X106099Y130646D01*
X105201Y129956D01*
X104854Y129505D01*
X104354Y129674D01*
Y134105D01*
X104854Y134275D01*
X105201Y133823D01*
X106099Y133134D01*
X107145Y132700D01*
X108268Y132553D01*
X109390Y132700D01*
X110436Y133134D01*
X111335Y133823D01*
X112024Y134721D01*
X112457Y135767D01*
X112605Y136890D01*
X112457Y138012D01*
X112024Y139058D01*
X111344Y139945D01*
X111332Y139976D01*
X111140Y140181D01*
X110986Y140378D01*
X110850Y140587D01*
X110732Y140810D01*
X110631Y141049D01*
X110547Y141304D01*
X110481Y141576D01*
X110433Y141866D01*
X110404Y142175D01*
X110393Y142522D01*
X110385Y142541D01*
Y142899D01*
X110394Y142919D01*
X110406Y144333D01*
X110510Y146785D01*
X110715Y148735D01*
X110851Y149504D01*
X110942Y149873D01*
X118622D01*
X119806Y150029D01*
X120910Y150486D01*
X121858Y151213D01*
X140872Y170227D01*
X155345D01*
Y149220D01*
D02*
G37*
G36*
X154924Y125149D02*
X155069Y123152D01*
X155163Y122606D01*
X155279Y122120D01*
X155418Y121693D01*
X155580Y121325D01*
X155764Y121018D01*
X155971Y120770D01*
X155136Y119935D01*
X154888Y120141D01*
X154580Y120326D01*
X154213Y120487D01*
X153786Y120626D01*
X153299Y120742D01*
X152753Y120836D01*
X152147Y120907D01*
X150756Y120981D01*
X149971Y120984D01*
X154921Y125934D01*
X154924Y125149D01*
D02*
G37*
G36*
X431472Y126473D02*
X431456Y126477D01*
X431417Y126481D01*
X431268Y126488D01*
X430268Y126497D01*
Y127284D01*
X431472Y127308D01*
Y126473D01*
D02*
G37*
G36*
X429417Y124779D02*
X429400Y124784D01*
X429361Y124788D01*
X429212Y124794D01*
X428213Y124803D01*
Y125591D01*
X429417Y125615D01*
Y124779D01*
D02*
G37*
G36*
X418296Y124385D02*
X418140Y124223D01*
X417900Y123940D01*
X417816Y123818D01*
X417757Y123710D01*
X417722Y123615D01*
X417712Y123533D01*
X417725Y123465D01*
X417763Y123411D01*
X417825Y123369D01*
X417462Y123539D01*
X416929Y122984D01*
X416338Y123575D01*
X416353Y123583D01*
X416384Y123608D01*
X416494Y123708D01*
X416689Y123900D01*
X416324Y124071D01*
X416401Y124045D01*
X416487Y124038D01*
X416580Y124049D01*
X416680Y124079D01*
X416788Y124126D01*
X416903Y124192D01*
X417025Y124277D01*
X417155Y124379D01*
X417292Y124500D01*
X417437Y124640D01*
X418296Y124385D01*
D02*
G37*
G36*
X401114Y130299D02*
X401298Y130230D01*
X401552Y130169D01*
X401874Y130116D01*
X402724Y130034D01*
X404514Y129973D01*
X405248Y129969D01*
Y128000D01*
X404514Y127996D01*
X401552Y127800D01*
X401298Y127738D01*
X401114Y127669D01*
X400997Y127591D01*
Y130377D01*
X401114Y130299D01*
D02*
G37*
G36*
X590816Y120984D02*
X590031Y120981D01*
X588034Y120836D01*
X587488Y120742D01*
X587002Y120626D01*
X586575Y120487D01*
X586207Y120326D01*
X585900Y120141D01*
X585652Y119935D01*
X584816Y120770D01*
X585023Y121018D01*
X585208Y121325D01*
X585369Y121693D01*
X585508Y122120D01*
X585624Y122606D01*
X585718Y123152D01*
X585789Y123758D01*
X585863Y125149D01*
X585866Y125934D01*
X590816Y120984D01*
D02*
G37*
G36*
X415179Y127927D02*
X415138Y127941D01*
X415061Y127954D01*
X414946Y127964D01*
X414379Y127988D01*
X413102Y128000D01*
Y129969D01*
X415179Y130041D01*
Y127927D01*
D02*
G37*
G36*
X376793D02*
X376752Y127941D01*
X376675Y127954D01*
X376560Y127964D01*
X375993Y127988D01*
X374716Y128000D01*
Y129969D01*
X376793Y130041D01*
Y127927D01*
D02*
G37*
G36*
X427245Y121939D02*
X427145Y121902D01*
X427058Y121839D01*
X426982Y121752D01*
X426918Y121640D01*
X426865Y121503D01*
X426824Y121341D01*
X426795Y121153D01*
X426778Y120941D01*
X426772Y120705D01*
X425591D01*
X425585Y120941D01*
X425567Y121153D01*
X425538Y121341D01*
X425497Y121503D01*
X425445Y121640D01*
X425380Y121752D01*
X425304Y121839D01*
X425217Y121902D01*
X425118Y121939D01*
X425007Y121952D01*
X427355D01*
X427245Y121939D01*
D02*
G37*
G36*
X422323D02*
X422224Y121902D01*
X422136Y121839D01*
X422061Y121752D01*
X421996Y121640D01*
X421944Y121503D01*
X421903Y121341D01*
X421874Y121153D01*
X421856Y120941D01*
X421850Y120705D01*
X420669D01*
X420663Y120941D01*
X420646Y121153D01*
X420617Y121341D01*
X420576Y121503D01*
X420523Y121640D01*
X420459Y121752D01*
X420383Y121839D01*
X420296Y121902D01*
X420196Y121939D01*
X420085Y121952D01*
X422434D01*
X422323Y121939D01*
D02*
G37*
G36*
X417402D02*
X417303Y121902D01*
X417215Y121839D01*
X417139Y121752D01*
X417075Y121640D01*
X417023Y121503D01*
X416982Y121341D01*
X416953Y121153D01*
X416935Y120941D01*
X416929Y120705D01*
X415748D01*
X415742Y120941D01*
X415725Y121153D01*
X415695Y121341D01*
X415655Y121503D01*
X415602Y121640D01*
X415538Y121752D01*
X415462Y121839D01*
X415374Y121902D01*
X415275Y121939D01*
X415164Y121952D01*
X417513D01*
X417402Y121939D01*
D02*
G37*
G36*
X640107Y101626D02*
X407137D01*
Y115157D01*
X407014Y115780D01*
X406862Y116007D01*
X407129Y116507D01*
X410604D01*
X413576Y113535D01*
X413904Y113315D01*
X414039Y112778D01*
X414033Y112748D01*
X416339D01*
Y112157D01*
X416929D01*
Y110244D01*
X417289D01*
X417810Y110348D01*
X418253Y110643D01*
X418542Y111076D01*
X418596Y111086D01*
X419003D01*
X419056Y111076D01*
X419346Y110643D01*
X419788Y110348D01*
X420310Y110244D01*
X420669D01*
Y112157D01*
X421850D01*
Y110244D01*
X422210D01*
X422732Y110348D01*
X423174Y110643D01*
X423463Y111076D01*
X423517Y111086D01*
X423924D01*
X423978Y111076D01*
X424267Y110643D01*
X424709Y110348D01*
X425231Y110244D01*
X425591D01*
Y112157D01*
Y114071D01*
X425231D01*
X424709Y113967D01*
X424267Y113672D01*
X423978Y113239D01*
X423924Y113229D01*
X423517D01*
X423463Y113239D01*
X423174Y113672D01*
X423170Y113714D01*
X425387Y115931D01*
X425392Y115931D01*
X425412Y115955D01*
X425463Y116007D01*
X425533Y116034D01*
X425667Y116164D01*
X425781Y116264D01*
X425880Y116342D01*
X425963Y116399D01*
X426025Y116435D01*
X427131D01*
X427580Y116524D01*
X427960Y116778D01*
X428214Y117159D01*
X428304Y117607D01*
Y118708D01*
X428214Y119156D01*
X427960Y119537D01*
X427824Y119628D01*
X427815Y119649D01*
X427753Y119675D01*
X427580Y119791D01*
X427496Y119807D01*
X427485Y119835D01*
X427461Y119931D01*
X427440Y120065D01*
X427426Y120235D01*
X427421Y120453D01*
X427395Y120512D01*
Y120630D01*
X427421Y120689D01*
X427426Y120907D01*
X427440Y121077D01*
X427461Y121211D01*
X427485Y121307D01*
X427496Y121334D01*
X427580Y121351D01*
X427753Y121467D01*
X427815Y121492D01*
X428035Y121530D01*
X428252Y121503D01*
X428438Y121420D01*
X438095Y111763D01*
X438095Y111763D01*
X438489Y111500D01*
X438953Y111408D01*
X577503D01*
X577503Y111408D01*
X577968Y111500D01*
X578362Y111763D01*
X586019Y119421D01*
X586068Y119436D01*
X586277Y119610D01*
X586506Y119747D01*
X586806Y119880D01*
X587178Y120001D01*
X587618Y120106D01*
X588113Y120191D01*
X590056Y120332D01*
X590819Y120335D01*
X590832Y120341D01*
X590866Y120336D01*
X592328Y120528D01*
X593690Y121093D01*
X594860Y121990D01*
X595758Y123160D01*
X596322Y124522D01*
X596515Y125984D01*
X596322Y127446D01*
X595758Y128808D01*
X594860Y129978D01*
X593690Y130876D01*
X592328Y131440D01*
X590866Y131633D01*
X589404Y131440D01*
X588042Y130876D01*
X586872Y129978D01*
X585975Y128808D01*
X585410Y127446D01*
X585218Y125984D01*
X585222Y125950D01*
X585217Y125937D01*
X585214Y125168D01*
X585142Y123814D01*
X585075Y123245D01*
X584988Y122737D01*
X584882Y122296D01*
X584761Y121924D01*
X584629Y121624D01*
X584492Y121395D01*
X584318Y121186D01*
X584303Y121137D01*
X577001Y113835D01*
X518123D01*
X517942Y114335D01*
X523027Y119421D01*
X523075Y119436D01*
X523285Y119610D01*
X523514Y119747D01*
X523814Y119880D01*
X524186Y120001D01*
X524626Y120106D01*
X525121Y120191D01*
X527064Y120332D01*
X527827Y120335D01*
X527840Y120341D01*
X527874Y120336D01*
X529336Y120528D01*
X530698Y121093D01*
X531868Y121990D01*
X532766Y123160D01*
X533330Y124522D01*
X533522Y125984D01*
X533330Y127446D01*
X532766Y128808D01*
X531868Y129978D01*
X530698Y130876D01*
X529336Y131440D01*
X527874Y131633D01*
X526412Y131440D01*
X525050Y130876D01*
X523880Y129978D01*
X522982Y128808D01*
X522418Y127446D01*
X522226Y125984D01*
X522230Y125950D01*
X522225Y125937D01*
X522222Y125168D01*
X522150Y123814D01*
X522083Y123245D01*
X521996Y122737D01*
X521890Y122296D01*
X521769Y121924D01*
X521637Y121624D01*
X521500Y121395D01*
X521326Y121186D01*
X521311Y121137D01*
X516452Y116279D01*
X457506D01*
X457354Y116779D01*
X457473Y116858D01*
X460035Y119421D01*
X460083Y119436D01*
X460292Y119610D01*
X460522Y119747D01*
X460822Y119880D01*
X461193Y120001D01*
X461634Y120106D01*
X462129Y120191D01*
X464072Y120332D01*
X464834Y120335D01*
X464847Y120341D01*
X464882Y120336D01*
X466344Y120528D01*
X467706Y121093D01*
X468876Y121990D01*
X469773Y123160D01*
X470338Y124522D01*
X470530Y125984D01*
X470338Y127446D01*
X469773Y128808D01*
X468876Y129978D01*
X467706Y130876D01*
X466344Y131440D01*
X464882Y131633D01*
X463420Y131440D01*
X462058Y130876D01*
X460888Y129978D01*
X459990Y128808D01*
X459426Y127446D01*
X459234Y125984D01*
X459238Y125950D01*
X459233Y125937D01*
X459230Y125168D01*
X459157Y123814D01*
X459091Y123245D01*
X459003Y122737D01*
X458898Y122296D01*
X458777Y121924D01*
X458645Y121624D01*
X458508Y121395D01*
X458333Y121186D01*
X458318Y121137D01*
X456111Y118930D01*
X441567D01*
X432748Y127749D01*
X432354Y128012D01*
X431890Y128104D01*
X431425Y128012D01*
X431340Y127955D01*
X430256Y127934D01*
X430187Y127904D01*
X428708D01*
X428298Y128404D01*
X428304Y128434D01*
Y129534D01*
X428214Y129983D01*
X427960Y130363D01*
X427580Y130617D01*
X427131Y130707D01*
X425231D01*
X425063Y130673D01*
X425021Y130691D01*
X425010Y130686D01*
X424999Y130690D01*
X423256Y130629D01*
X423236Y130629D01*
X422697Y130652D01*
X422619Y130659D01*
X422562Y130669D01*
X422505Y130655D01*
X422420Y130691D01*
X422378Y130673D01*
X422210Y130707D01*
X420310D01*
X420141Y130673D01*
X420100Y130691D01*
X420089Y130686D01*
X420077Y130690D01*
X418335Y130629D01*
X418315Y130629D01*
X417775Y130652D01*
X417698Y130659D01*
X417641Y130669D01*
X417584Y130655D01*
X417498Y130691D01*
X417457Y130673D01*
X417289Y130707D01*
X415389D01*
X415220Y130673D01*
X415179Y130691D01*
X415167Y130686D01*
X415156Y130690D01*
X413079Y130617D01*
X413039Y130599D01*
X405295D01*
X405252Y130618D01*
X404527Y130622D01*
X402766Y130682D01*
X402197Y130737D01*
Y152362D01*
X402109Y153033D01*
X401850Y153657D01*
X401438Y154194D01*
X401611Y154692D01*
X439458D01*
X450031Y144118D01*
X450048Y144067D01*
X450184Y143909D01*
X450286Y143752D01*
X450384Y143555D01*
X450474Y143316D01*
X450553Y143035D01*
X450620Y142712D01*
X450671Y142357D01*
X450729Y141498D01*
X450733Y141014D01*
X450747Y140981D01*
X450887Y139914D01*
X451301Y138917D01*
X451958Y138060D01*
X452814Y137403D01*
X453812Y136990D01*
X454882Y136849D01*
X455952Y136990D01*
X456950Y137403D01*
X457806Y138060D01*
X458463Y138917D01*
X458876Y139914D01*
X459017Y140984D01*
X458876Y142055D01*
X458463Y143052D01*
X457806Y143908D01*
X456950Y144566D01*
X455952Y144979D01*
X454886Y145119D01*
X454852Y145133D01*
X454368Y145137D01*
X453509Y145195D01*
X453154Y145246D01*
X452831Y145313D01*
X452550Y145392D01*
X452311Y145482D01*
X452114Y145580D01*
X451957Y145682D01*
X451799Y145818D01*
X451748Y145835D01*
X441385Y156198D01*
X441576Y156660D01*
X447489D01*
X450031Y154118D01*
X450048Y154067D01*
X450184Y153909D01*
X450286Y153752D01*
X450384Y153555D01*
X450474Y153316D01*
X450553Y153035D01*
X450620Y152712D01*
X450671Y152357D01*
X450729Y151498D01*
X450733Y151014D01*
X450747Y150980D01*
X450887Y149914D01*
X451301Y148917D01*
X451958Y148060D01*
X452814Y147403D01*
X453812Y146990D01*
X454882Y146849D01*
X455952Y146990D01*
X456950Y147403D01*
X457806Y148060D01*
X458463Y148917D01*
X458876Y149914D01*
X459017Y150984D01*
X458876Y152055D01*
X458463Y153052D01*
X457806Y153908D01*
X456950Y154566D01*
X455952Y154979D01*
X454886Y155119D01*
X454852Y155133D01*
X454368Y155137D01*
X453509Y155195D01*
X453154Y155246D01*
X452831Y155313D01*
X452550Y155392D01*
X452311Y155482D01*
X452114Y155580D01*
X451957Y155682D01*
X451799Y155818D01*
X451748Y155835D01*
X449604Y157979D01*
X449795Y158441D01*
X498700D01*
X513023Y144118D01*
X513040Y144067D01*
X513176Y143909D01*
X513278Y143752D01*
X513376Y143555D01*
X513466Y143316D01*
X513545Y143035D01*
X513612Y142712D01*
X513663Y142357D01*
X513721Y141498D01*
X513725Y141014D01*
X513739Y140981D01*
X513880Y139914D01*
X514293Y138917D01*
X514950Y138060D01*
X515806Y137403D01*
X516804Y136990D01*
X517874Y136849D01*
X518944Y136990D01*
X519942Y137403D01*
X520798Y138060D01*
X521455Y138917D01*
X521869Y139914D01*
X522009Y140984D01*
X521869Y142055D01*
X521455Y143052D01*
X520798Y143908D01*
X519942Y144566D01*
X518944Y144979D01*
X517878Y145119D01*
X517844Y145133D01*
X517360Y145137D01*
X516501Y145195D01*
X516146Y145246D01*
X515823Y145313D01*
X515542Y145392D01*
X515303Y145482D01*
X515106Y145580D01*
X514949Y145682D01*
X514791Y145818D01*
X514740Y145835D01*
X500814Y159760D01*
X501006Y160222D01*
X506919D01*
X513023Y154118D01*
X513040Y154067D01*
X513176Y153909D01*
X513278Y153752D01*
X513376Y153555D01*
X513466Y153316D01*
X513545Y153035D01*
X513612Y152712D01*
X513663Y152357D01*
X513721Y151498D01*
X513725Y151014D01*
X513739Y150980D01*
X513880Y149914D01*
X514293Y148917D01*
X514950Y148060D01*
X515806Y147403D01*
X516804Y146990D01*
X517874Y146849D01*
X518944Y146990D01*
X519942Y147403D01*
X520798Y148060D01*
X521455Y148917D01*
X521869Y149914D01*
X522009Y150984D01*
X521869Y152055D01*
X521568Y152780D01*
X521992Y153063D01*
X522577Y152478D01*
Y141957D01*
X522577Y141957D01*
X522669Y141493D01*
X522932Y141099D01*
X531257Y132775D01*
X531257Y132775D01*
X531650Y132512D01*
X532115Y132419D01*
X532115Y132419D01*
X571071D01*
X571071Y132419D01*
X571536Y132512D01*
X571735Y132644D01*
X617607D01*
X629111Y121141D01*
X629111Y121141D01*
X629505Y120878D01*
X629969Y120785D01*
X634900D01*
X634900Y120785D01*
X635364Y120878D01*
X635758Y121141D01*
X638654Y124036D01*
X638654Y124036D01*
X638917Y124430D01*
X639009Y124895D01*
X639009Y124895D01*
Y159449D01*
X638917Y159913D01*
X638654Y160307D01*
X638654Y160307D01*
X637920Y161040D01*
X637904Y161091D01*
X637761Y161257D01*
X637655Y161424D01*
X637554Y161634D01*
X637461Y161889D01*
X637381Y162189D01*
X637315Y162534D01*
X637266Y162915D01*
X637218Y163833D01*
X637222Y164351D01*
X637204Y164396D01*
X637211Y164449D01*
X637063Y165571D01*
X636630Y166617D01*
X635941Y167516D01*
X635043Y168205D01*
X633996Y168638D01*
X632874Y168786D01*
X631751Y168638D01*
X630705Y168205D01*
X629807Y167516D01*
X629118Y166617D01*
X628685Y165571D01*
X628537Y164449D01*
X628685Y163326D01*
X629118Y162280D01*
X629807Y161382D01*
X630705Y160693D01*
X631751Y160259D01*
X632788Y160123D01*
X632841Y160100D01*
X633368Y160088D01*
X634300Y160016D01*
X634687Y159958D01*
X635037Y159885D01*
X635341Y159799D01*
X635600Y159703D01*
X635811Y159600D01*
X635977Y159493D01*
X636140Y159353D01*
X636191Y159336D01*
X636581Y158946D01*
Y157458D01*
X636108Y157298D01*
X635941Y157516D01*
X635043Y158205D01*
X633996Y158638D01*
X632874Y158786D01*
X631751Y158638D01*
X630705Y158205D01*
X629807Y157516D01*
X629118Y156617D01*
X628685Y155571D01*
X628539Y154464D01*
X628525Y154434D01*
X628516Y154153D01*
X628485Y153905D01*
X628433Y153661D01*
X628359Y153419D01*
X628262Y153179D01*
X628141Y152939D01*
X627995Y152700D01*
X627824Y152461D01*
X627626Y152222D01*
X627388Y151969D01*
X627381Y151950D01*
X625462Y150031D01*
X625443Y150024D01*
X625035Y149644D01*
X624630Y149320D01*
X624212Y149036D01*
X623780Y148790D01*
X623333Y148583D01*
X622870Y148414D01*
X622392Y148282D01*
X621895Y148187D01*
X621380Y148130D01*
X620822Y148110D01*
X620804Y148101D01*
X612416D01*
X612396Y148110D01*
X610982Y148123D01*
X608530Y148226D01*
X607218Y148364D01*
X607134Y148392D01*
X606762Y148552D01*
X606389Y148751D01*
X606017Y148987D01*
X605644Y149264D01*
X605272Y149581D01*
X604887Y149952D01*
X604877Y149956D01*
X604860Y149978D01*
X603690Y150876D01*
X602328Y151440D01*
X601814Y151508D01*
X591031Y162291D01*
X590083Y163018D01*
X588980Y163475D01*
X587795Y163631D01*
X539337D01*
X524930Y178039D01*
X523982Y178766D01*
X522878Y179223D01*
X521694Y179379D01*
X138976D01*
X137792Y179223D01*
X136688Y178766D01*
X135741Y178039D01*
X116727Y159025D01*
X108268D01*
X107083Y158869D01*
X105980Y158412D01*
X105032Y157685D01*
X104827Y157418D01*
X104354Y157579D01*
Y158818D01*
X104905Y159369D01*
X104956Y159386D01*
X105120Y159527D01*
X105286Y159634D01*
X105497Y159736D01*
X105754Y159830D01*
X106056Y159913D01*
X106404Y159983D01*
X106788Y160036D01*
X107713Y160096D01*
X108235Y160100D01*
X108265Y160112D01*
X108268Y160112D01*
X109390Y160259D01*
X110436Y160693D01*
X111335Y161382D01*
X112024Y162280D01*
X112457Y163326D01*
X112605Y164449D01*
X112457Y165571D01*
X112024Y166617D01*
X111335Y167516D01*
X110436Y168205D01*
X109390Y168638D01*
X108268Y168786D01*
X107145Y168638D01*
X106099Y168205D01*
X105201Y167516D01*
X104512Y166617D01*
X104078Y165571D01*
X103931Y164449D01*
X103931Y164446D01*
X103919Y164416D01*
X103915Y163894D01*
X103855Y162969D01*
X103802Y162585D01*
X103732Y162237D01*
X103649Y161935D01*
X103555Y161678D01*
X103452Y161468D01*
X103346Y161301D01*
X103205Y161137D01*
X103188Y161086D01*
X102282Y160180D01*
X102126Y159946D01*
X101626Y160098D01*
Y185382D01*
X640107D01*
Y101626D01*
D02*
G37*
G36*
X421654Y124223D02*
X421702Y123386D01*
X421713Y123363D01*
X420807D01*
X420818Y123386D01*
X420828Y123428D01*
X420837Y123487D01*
X420851Y123660D01*
X420865Y124223D01*
X420866Y124409D01*
X421654D01*
X421654Y124223D01*
D02*
G37*
G36*
X271930Y122951D02*
X271532Y123453D01*
X270759Y124297D01*
X270384Y124641D01*
X270018Y124931D01*
X269659Y125168D01*
X269309Y125353D01*
X268967Y125485D01*
X268632Y125564D01*
X268306Y125591D01*
Y126378D01*
X268632Y126404D01*
X268967Y126484D01*
X269309Y126616D01*
X269659Y126800D01*
X270018Y127038D01*
X270384Y127328D01*
X270759Y127671D01*
X271141Y128067D01*
X271930Y129017D01*
Y122951D01*
D02*
G37*
G36*
X427538Y123829D02*
X427570Y123776D01*
X427623Y123729D01*
X427697Y123688D01*
X427793Y123653D01*
X427910Y123625D01*
X428048Y123603D01*
X428208Y123587D01*
X428590Y123575D01*
Y122394D01*
X428389Y122391D01*
X428048Y122365D01*
X427910Y122344D01*
X427793Y122315D01*
X427697Y122281D01*
X427623Y122240D01*
X427570Y122193D01*
X427538Y122140D01*
X427527Y122080D01*
Y123889D01*
X427538Y123829D01*
D02*
G37*
G36*
X372435Y132814D02*
X372482Y132806D01*
X372552Y132799D01*
X372894Y132783D01*
X373661Y132776D01*
Y131595D01*
X372410Y131547D01*
Y132823D01*
X372435Y132814D01*
D02*
G37*
G36*
X344126Y131547D02*
X344100Y131556D01*
X344053Y131564D01*
X343983Y131571D01*
X343641Y131587D01*
X342874Y131595D01*
Y132776D01*
X344126Y132823D01*
Y131547D01*
D02*
G37*
G36*
X113039Y130314D02*
X112879Y130128D01*
X112731Y129899D01*
X112594Y129629D01*
X112468Y129317D01*
X112354Y128963D01*
X112251Y128567D01*
X112079Y127649D01*
X112011Y127128D01*
X111953Y126565D01*
X108666Y130568D01*
X109183Y130523D01*
X110113Y130507D01*
X110526Y130536D01*
X110905Y130590D01*
X111250Y130669D01*
X111561Y130772D01*
X111837Y130901D01*
X112079Y131054D01*
X112287Y131233D01*
X113039Y130314D01*
D02*
G37*
G36*
X376636Y132447D02*
X376625Y132528D01*
X376594Y132601D01*
X376542Y132665D01*
X376468Y132720D01*
X376374Y132767D01*
X376259Y132806D01*
X376124Y132836D01*
X375967Y132857D01*
X375789Y132870D01*
X375590Y132874D01*
Y134055D01*
X375789Y134059D01*
X376124Y134093D01*
X376259Y134123D01*
X376374Y134162D01*
X376468Y134209D01*
X376542Y134264D01*
X376594Y134328D01*
X376625Y134401D01*
X376636Y134482D01*
Y132447D01*
D02*
G37*
G36*
X344126Y134106D02*
X344100Y134115D01*
X344053Y134123D01*
X343983Y134130D01*
X343641Y134146D01*
X342874Y134153D01*
Y135335D01*
X344126Y135382D01*
Y134106D01*
D02*
G37*
G36*
X464832Y120984D02*
X464047Y120981D01*
X462050Y120836D01*
X461504Y120742D01*
X461017Y120626D01*
X460590Y120487D01*
X460223Y120326D01*
X459915Y120141D01*
X459667Y119935D01*
X458832Y120770D01*
X459039Y121018D01*
X459223Y121325D01*
X459385Y121693D01*
X459524Y122120D01*
X459640Y122606D01*
X459734Y123152D01*
X459805Y123758D01*
X459879Y125149D01*
X459882Y125934D01*
X464832Y120984D01*
D02*
G37*
G36*
X527824D02*
X527039Y120981D01*
X525042Y120836D01*
X524496Y120742D01*
X524009Y120626D01*
X523582Y120487D01*
X523215Y120326D01*
X522907Y120141D01*
X522659Y119935D01*
X521824Y120770D01*
X522031Y121018D01*
X522215Y121325D01*
X522377Y121693D01*
X522516Y122120D01*
X522632Y122606D01*
X522726Y123152D01*
X522797Y123758D01*
X522871Y125149D01*
X522874Y125934D01*
X527824Y120984D01*
D02*
G37*
G36*
X381714Y127927D02*
X381674Y127941D01*
X381596Y127954D01*
X381482Y127964D01*
X380914Y127988D01*
X380869Y127989D01*
X379113Y127927D01*
Y130041D01*
X379153Y130027D01*
X379230Y130015D01*
X379345Y130004D01*
X379912Y129980D01*
X379958Y129980D01*
X381714Y130041D01*
Y127927D01*
D02*
G37*
G36*
X398215Y127591D02*
X398099Y127669D01*
X397914Y127738D01*
X397661Y127800D01*
X397339Y127853D01*
X396489Y127935D01*
X395273Y127976D01*
X393877Y127927D01*
Y130041D01*
X393917Y130027D01*
X393994Y130015D01*
X394109Y130004D01*
X394676Y129980D01*
X394796Y129979D01*
X397661Y130169D01*
X397914Y130230D01*
X398099Y130299D01*
X398215Y130377D01*
Y127591D01*
D02*
G37*
G36*
X595343Y145036D02*
X595410Y144522D01*
X595974Y143160D01*
X596872Y141990D01*
X598042Y141093D01*
X599404Y140528D01*
X600866Y140336D01*
X602328Y140528D01*
X603690Y141093D01*
X604860Y141990D01*
X604877Y142013D01*
X604887Y142016D01*
X605272Y142387D01*
X605644Y142704D01*
X606017Y142981D01*
X606389Y143218D01*
X606762Y143416D01*
X607130Y143575D01*
X610991Y143846D01*
X612396Y143859D01*
X612416Y143867D01*
X620804D01*
X620822Y143859D01*
X621380Y143839D01*
X621895Y143782D01*
X622392Y143687D01*
X622871Y143555D01*
X623333Y143385D01*
X623780Y143178D01*
X624212Y142933D01*
X624630Y142649D01*
X625035Y142325D01*
X625443Y141945D01*
X625462Y141938D01*
X627545Y139854D01*
X627547Y139848D01*
X627557Y139842D01*
X627581Y139818D01*
X627589Y139799D01*
X627826Y139546D01*
X628018Y139309D01*
X628179Y139075D01*
X628312Y138843D01*
X628416Y138613D01*
X628494Y138385D01*
X628547Y138158D01*
X628576Y137928D01*
X628580Y137695D01*
X628558Y137425D01*
X628593Y137316D01*
X628537Y136890D01*
X628685Y135767D01*
X629118Y134721D01*
X629807Y133823D01*
X630705Y133134D01*
X631751Y132700D01*
X632874Y132553D01*
X633996Y132700D01*
X635043Y133134D01*
X635941Y133823D01*
X636108Y134041D01*
X636581Y133880D01*
Y129900D01*
X636108Y129739D01*
X635941Y129956D01*
X635043Y130646D01*
X633996Y131079D01*
X632874Y131227D01*
X631751Y131079D01*
X630705Y130646D01*
X629807Y129956D01*
X629184Y129145D01*
X628624Y128998D01*
X620937Y136685D01*
X620543Y136948D01*
X620079Y137041D01*
X620079Y137041D01*
X583283D01*
X583113Y137541D01*
X583790Y138060D01*
X584447Y138917D01*
X584861Y139914D01*
X585002Y140984D01*
X584861Y142055D01*
X584447Y143052D01*
X583790Y143908D01*
X582934Y144566D01*
X581937Y144979D01*
X580866Y145120D01*
X579796Y144979D01*
X578798Y144566D01*
X577945Y143911D01*
X577911Y143897D01*
X577566Y143557D01*
X576918Y142991D01*
X576630Y142776D01*
X576355Y142595D01*
X576101Y142453D01*
X575868Y142347D01*
X575659Y142277D01*
X575476Y142238D01*
X575268Y142222D01*
X575220Y142198D01*
X574504D01*
X574297Y142698D01*
X577732Y146133D01*
X577783Y146151D01*
X577941Y146286D01*
X578098Y146389D01*
X578296Y146486D01*
X578535Y146576D01*
X578815Y146656D01*
X579138Y146722D01*
X579493Y146773D01*
X580352Y146831D01*
X580836Y146835D01*
X580870Y146849D01*
X581937Y146990D01*
X582934Y147403D01*
X583790Y148060D01*
X584447Y148917D01*
X584861Y149914D01*
X585002Y150984D01*
X584861Y152055D01*
X584447Y153052D01*
X583790Y153908D01*
X583664Y154006D01*
X583824Y154479D01*
X585900D01*
X595343Y145036D01*
D02*
G37*
G36*
X386635Y127927D02*
X386595Y127941D01*
X386518Y127954D01*
X386403Y127964D01*
X385836Y127988D01*
X385790Y127989D01*
X384034Y127927D01*
Y130041D01*
X384074Y130027D01*
X384152Y130015D01*
X384266Y130004D01*
X384834Y129980D01*
X384879Y129980D01*
X386635Y130041D01*
Y127927D01*
D02*
G37*
G36*
X425021D02*
X424981Y127941D01*
X424903Y127954D01*
X424789Y127964D01*
X424221Y127988D01*
X424176Y127989D01*
X422420Y127927D01*
Y130041D01*
X422460Y130027D01*
X422538Y130015D01*
X422652Y130004D01*
X423220Y129980D01*
X423265Y129980D01*
X425021Y130041D01*
Y127927D01*
D02*
G37*
G36*
X420100D02*
X420060Y127941D01*
X419982Y127954D01*
X419867Y127964D01*
X419300Y127988D01*
X419255Y127989D01*
X417498Y127927D01*
Y130041D01*
X417539Y130027D01*
X417616Y130015D01*
X417731Y130004D01*
X418298Y129980D01*
X418343Y129980D01*
X420100Y130041D01*
Y127927D01*
D02*
G37*
G36*
X391557D02*
X391516Y127941D01*
X391439Y127954D01*
X391324Y127964D01*
X390757Y127988D01*
X390712Y127989D01*
X388955Y127927D01*
Y130041D01*
X388996Y130027D01*
X389073Y130015D01*
X389188Y130004D01*
X389755Y129980D01*
X389800Y129980D01*
X391557Y130041D01*
Y127927D01*
D02*
G37*
G36*
X110727Y151667D02*
X111053D01*
X110805Y151343D01*
X110582Y150898D01*
X110386Y150329D01*
X110215Y149639D01*
X110071Y148826D01*
X109862Y146833D01*
X109757Y144350D01*
X109744Y142925D01*
X106791D01*
X106778Y144350D01*
X106464Y148826D01*
X106320Y149639D01*
X106150Y150329D01*
X105953Y150898D01*
X105731Y151343D01*
X105482Y151667D01*
X105808D01*
X105678Y151806D01*
X110858D01*
X110727Y151667D01*
D02*
G37*
G36*
X240960Y157659D02*
X241032Y157600D01*
X241122Y157548D01*
X241230Y157503D01*
X241354Y157465D01*
X241496Y157433D01*
X241656Y157409D01*
X241833Y157392D01*
X242062Y157384D01*
X242399Y157409D01*
X242559Y157433D01*
X242701Y157465D01*
X242826Y157503D01*
X242933Y157548D01*
X243023Y157600D01*
X243095Y157659D01*
X243150Y157725D01*
Y155850D01*
X243095Y155915D01*
X243023Y155975D01*
X242933Y156027D01*
X242826Y156072D01*
X242701Y156110D01*
X242559Y156141D01*
X242399Y156166D01*
X242222Y156183D01*
X241993Y156191D01*
X241656Y156166D01*
X241496Y156141D01*
X241354Y156110D01*
X241230Y156072D01*
X241122Y156027D01*
X241032Y155975D01*
X240960Y155915D01*
X240905Y155850D01*
Y157725D01*
X240960Y157659D01*
D02*
G37*
G36*
X519953Y155102D02*
X519669Y154678D01*
X518944Y154979D01*
X517878Y155119D01*
X517844Y155133D01*
X517360Y155137D01*
X516501Y155195D01*
X516146Y155246D01*
X515823Y155313D01*
X515542Y155392D01*
X515303Y155482D01*
X515106Y155580D01*
X514949Y155682D01*
X514791Y155818D01*
X514740Y155835D01*
X509033Y161541D01*
X509225Y162003D01*
X513052D01*
X519953Y155102D01*
D02*
G37*
G36*
X271118Y157913D02*
X269040Y155835D01*
X268988Y155818D01*
X268830Y155682D01*
X268673Y155580D01*
X268476Y155482D01*
X268237Y155392D01*
X267956Y155313D01*
X267634Y155246D01*
X267278Y155195D01*
X266419Y155137D01*
X265936Y155133D01*
X265902Y155119D01*
X264835Y154979D01*
X263838Y154566D01*
X262981Y153908D01*
X262324Y153052D01*
X261911Y152055D01*
X261770Y150984D01*
X261911Y149914D01*
X262324Y148917D01*
X262981Y148060D01*
X263838Y147403D01*
X264835Y146990D01*
X265905Y146849D01*
X266976Y146990D01*
X267973Y147403D01*
X268830Y148060D01*
X269487Y148917D01*
X269900Y149914D01*
X270040Y150980D01*
X270055Y151014D01*
X270058Y151498D01*
X270116Y152357D01*
X270168Y152712D01*
X270234Y153035D01*
X270314Y153316D01*
X270403Y153555D01*
X270501Y153752D01*
X270603Y153909D01*
X270739Y154067D01*
X270756Y154118D01*
X273232Y156594D01*
X279145D01*
X279337Y156132D01*
X269040Y145835D01*
X268988Y145818D01*
X268830Y145682D01*
X268673Y145580D01*
X268476Y145482D01*
X268237Y145392D01*
X267956Y145313D01*
X267634Y145246D01*
X267278Y145195D01*
X266419Y145137D01*
X265936Y145133D01*
X265902Y145119D01*
X264835Y144979D01*
X263838Y144566D01*
X262981Y143908D01*
X262324Y143052D01*
X261911Y142055D01*
X261770Y140984D01*
X261911Y139914D01*
X262324Y138917D01*
X262981Y138060D01*
X263838Y137403D01*
X264835Y136990D01*
X265905Y136849D01*
X266976Y136990D01*
X267973Y137403D01*
X268830Y138060D01*
X269487Y138917D01*
X269900Y139914D01*
X270040Y140981D01*
X270055Y141014D01*
X270058Y141498D01*
X270116Y142357D01*
X270168Y142712D01*
X270234Y143035D01*
X270314Y143316D01*
X270403Y143555D01*
X270501Y143752D01*
X270603Y143909D01*
X270739Y144067D01*
X270756Y144118D01*
X281451Y154813D01*
X322211D01*
X338006Y139017D01*
X338004Y138961D01*
X337848Y138517D01*
X332185D01*
X332185Y138517D01*
X331720Y138425D01*
X331327Y138162D01*
X331327Y138162D01*
X309537Y116371D01*
X274574D01*
X274307Y116871D01*
X274593Y117300D01*
X274754Y118110D01*
X274593Y118920D01*
X274134Y119607D01*
X273595Y119967D01*
X273573Y120079D01*
X273354Y120407D01*
X273300Y120461D01*
X273584Y120885D01*
X274444Y120528D01*
X275905Y120336D01*
X277367Y120528D01*
X278730Y121093D01*
X279900Y121990D01*
X280797Y123160D01*
X281361Y124522D01*
X281554Y125984D01*
X281361Y127446D01*
X280797Y128808D01*
X279900Y129978D01*
X278730Y130876D01*
X277367Y131440D01*
X275905Y131633D01*
X274444Y131440D01*
X273081Y130876D01*
X271912Y129978D01*
X271552Y129510D01*
X271471Y129476D01*
X271459Y129447D01*
X271431Y129432D01*
X270657Y128501D01*
X270305Y128137D01*
X269962Y127823D01*
X269636Y127564D01*
X269327Y127359D01*
X269040Y127208D01*
X268774Y127105D01*
X268648Y127075D01*
X248062Y147661D01*
X247733Y147881D01*
X247345Y147958D01*
X246857D01*
X246790Y147988D01*
X246645Y147991D01*
X246540Y148000D01*
X246478Y148009D01*
X246401Y148124D01*
X246376Y148185D01*
X246354Y148194D01*
X246267Y148324D01*
X246131Y148415D01*
X246122Y148437D01*
X246060Y148462D01*
X245887Y148578D01*
X245823Y148866D01*
X245887Y149154D01*
X246060Y149270D01*
X246122Y149295D01*
X246131Y149317D01*
X246267Y149408D01*
X246521Y149789D01*
X246611Y150237D01*
Y151337D01*
X246521Y151786D01*
X246267Y152166D01*
X245887Y152421D01*
X245438Y152510D01*
X243538D01*
X243090Y152421D01*
X242709Y152166D01*
X242455Y151786D01*
X242366Y151337D01*
Y150237D01*
X242455Y149789D01*
X242709Y149408D01*
X242846Y149317D01*
X242855Y149295D01*
X242916Y149270D01*
X243090Y149154D01*
X243153Y148866D01*
X243090Y148578D01*
X242916Y148462D01*
X242855Y148437D01*
X242846Y148415D01*
X242709Y148324D01*
X242455Y147944D01*
X242366Y147495D01*
Y146423D01*
X242242Y146368D01*
X242033Y146322D01*
X241988Y146316D01*
X241689Y146597D01*
Y147495D01*
X241600Y147944D01*
X241346Y148324D01*
X241210Y148415D01*
X241201Y148437D01*
X241139Y148462D01*
X240966Y148578D01*
X240902Y148866D01*
X240966Y149154D01*
X241139Y149270D01*
X241201Y149295D01*
X241210Y149317D01*
X241346Y149408D01*
X241600Y149789D01*
X241689Y150237D01*
Y151337D01*
X241600Y151786D01*
X241346Y152166D01*
X240966Y152421D01*
X240517Y152510D01*
X239760D01*
X239758Y152511D01*
X239639Y152579D01*
X239500Y152675D01*
X239128Y152987D01*
X238919Y153189D01*
X238859Y153213D01*
X237249Y154822D01*
X237302Y155421D01*
X237731Y155433D01*
X237823Y155385D01*
X238168Y155154D01*
X238617Y155065D01*
X240517D01*
X240966Y155154D01*
X241246Y155341D01*
X241364Y155390D01*
X241374Y155416D01*
X241383Y155423D01*
X241403Y155433D01*
X241412Y155444D01*
X241451Y155461D01*
X241519Y155481D01*
X241615Y155502D01*
X241729Y155520D01*
X242006Y155541D01*
X242180Y155535D01*
X242319Y155521D01*
X242440Y155502D01*
X242536Y155481D01*
X242604Y155461D01*
X242643Y155444D01*
X242652Y155433D01*
X242672Y155423D01*
X242681Y155416D01*
X242691Y155390D01*
X242809Y155341D01*
X243090Y155154D01*
X243538Y155065D01*
X245438D01*
X245887Y155154D01*
X246167Y155341D01*
X246285Y155390D01*
X246648Y155358D01*
X246781Y155328D01*
X246833Y155280D01*
X246872Y155265D01*
X247521Y154832D01*
X248331Y154670D01*
X249141Y154832D01*
X249828Y155290D01*
X250287Y155977D01*
X250448Y156787D01*
X250287Y157598D01*
X250101Y157875D01*
X250368Y158375D01*
X270926D01*
X271118Y157913D01*
D02*
G37*
G36*
X247276Y155754D02*
X247186Y155838D01*
X247090Y155913D01*
X246987Y155980D01*
X246878Y156037D01*
X246763Y156086D01*
X246641Y156126D01*
X246516Y156156D01*
X246418Y156141D01*
X246275Y156110D01*
X246151Y156072D01*
X246044Y156027D01*
X245954Y155975D01*
X245881Y155915D01*
X245826Y155850D01*
Y157725D01*
X245881Y157659D01*
X245954Y157600D01*
X246044Y157548D01*
X246151Y157503D01*
X246275Y157465D01*
X246418Y157433D01*
X246516Y157419D01*
X246641Y157449D01*
X246763Y157489D01*
X246878Y157537D01*
X246987Y157595D01*
X247090Y157661D01*
X247186Y157737D01*
X247276Y157821D01*
Y155754D01*
D02*
G37*
G36*
X372435Y158404D02*
X372482Y158396D01*
X372552Y158389D01*
X372894Y158374D01*
X373661Y158366D01*
Y157185D01*
X372410Y157138D01*
Y158413D01*
X372435Y158404D01*
D02*
G37*
G36*
X343397Y158465D02*
X344131Y158423D01*
X344126Y158413D01*
Y157138D01*
X344072Y157166D01*
X343999Y157191D01*
X343907Y157213D01*
X343795Y157232D01*
X343515Y157262D01*
X343158Y157279D01*
X342724Y157285D01*
X343209Y158466D01*
X343397Y158465D01*
D02*
G37*
G36*
X372435Y155845D02*
X372482Y155837D01*
X372552Y155830D01*
X372894Y155815D01*
X373661Y155807D01*
Y154626D01*
X372410Y154579D01*
Y155854D01*
X372435Y155845D01*
D02*
G37*
G36*
Y153286D02*
X372482Y153278D01*
X372552Y153271D01*
X372894Y153256D01*
X373661Y153248D01*
Y152067D01*
X372410Y152020D01*
Y153295D01*
X372435Y153286D01*
D02*
G37*
G36*
X344126Y152020D02*
X344100Y152029D01*
X344053Y152037D01*
X343983Y152044D01*
X343641Y152059D01*
X342874Y152067D01*
Y153248D01*
X344126Y153295D01*
Y152020D01*
D02*
G37*
G36*
X514558Y155161D02*
X514784Y155015D01*
X515044Y154886D01*
X515340Y154775D01*
X515669Y154682D01*
X516034Y154606D01*
X516433Y154549D01*
X517336Y154488D01*
X517839Y154484D01*
X514374Y151019D01*
X514370Y151523D01*
X514309Y152425D01*
X514252Y152824D01*
X514177Y153189D01*
X514084Y153519D01*
X513973Y153814D01*
X513844Y154074D01*
X513697Y154300D01*
X513532Y154491D01*
X514367Y155326D01*
X514558Y155161D01*
D02*
G37*
G36*
X344126Y154579D02*
X344100Y154588D01*
X344053Y154596D01*
X343983Y154603D01*
X343641Y154619D01*
X342874Y154626D01*
Y155807D01*
X344126Y155854D01*
Y154579D01*
D02*
G37*
G36*
X320410Y109501D02*
X320461Y109291D01*
X320544Y109066D01*
X320661Y108828D01*
X320812Y108576D01*
X320996Y108310D01*
X321214Y108031D01*
X321749Y107430D01*
X322067Y107109D01*
X317933D01*
X318251Y107430D01*
X318786Y108031D01*
X319004Y108310D01*
X319188Y108576D01*
X319339Y108828D01*
X319456Y109066D01*
X319539Y109291D01*
X319590Y109501D01*
X319606Y109698D01*
X320394D01*
X320410Y109501D01*
D02*
G37*
G36*
X313940Y107477D02*
X313838Y107356D01*
X313736Y107193D01*
X313633Y106988D01*
X313530Y106741D01*
X313319Y106124D01*
X313106Y105339D01*
X312889Y104389D01*
X310669Y107876D01*
X311071Y107792D01*
X311795Y107699D01*
X312118Y107690D01*
X312415Y107705D01*
X312686Y107746D01*
X312931Y107812D01*
X313149Y107903D01*
X313342Y108018D01*
X313508Y108159D01*
X313940Y107477D01*
D02*
G37*
G36*
X238229Y155850D02*
X238168Y155924D01*
X238091Y155992D01*
X237998Y156051D01*
X237888Y156102D01*
X237762Y156146D01*
X237619Y156181D01*
X237461Y156209D01*
X237286Y156228D01*
X237060Y156237D01*
X236735Y156213D01*
X236575Y156188D01*
X236433Y156157D01*
X236308Y156119D01*
X236201Y156074D01*
X236111Y156022D01*
X236039Y155963D01*
X235984Y155897D01*
Y157773D01*
X236039Y157706D01*
X236111Y157648D01*
X236201Y157595D01*
X236308Y157550D01*
X236433Y157512D01*
X236575Y157481D01*
X236735Y157457D01*
X236911Y157439D01*
X237107Y157432D01*
X237407Y157463D01*
X237565Y157492D01*
X237718Y157530D01*
X237866Y157576D01*
X238008Y157631D01*
X238146Y157693D01*
X238279Y157765D01*
X238407Y157844D01*
X238229Y155850D01*
D02*
G37*
G36*
X318987Y110995D02*
Y109807D01*
X318959Y109753D01*
X318947Y109605D01*
X318917Y109480D01*
X318859Y109324D01*
X318767Y109138D01*
X318642Y108928D01*
X318480Y108695D01*
X318287Y108447D01*
X317777Y107875D01*
X317472Y107566D01*
X317450Y107513D01*
X316897Y106792D01*
X316539Y105927D01*
X316417Y105000D01*
X316539Y104073D01*
X316897Y103208D01*
X317466Y102466D01*
X317910Y102126D01*
X317740Y101626D01*
X312260D01*
X312090Y102126D01*
X312534Y102466D01*
X313103Y103208D01*
X313461Y104073D01*
X313475Y104178D01*
X313522Y104244D01*
X313736Y105182D01*
X313941Y105934D01*
X314137Y106510D01*
X314224Y106716D01*
X314303Y106874D01*
X314366Y106974D01*
X314439Y107062D01*
X314456Y107118D01*
X318525Y111187D01*
X318987Y110995D01*
D02*
G37*
G36*
X333295Y116007D02*
X333144Y115780D01*
X333020Y115157D01*
Y101626D01*
X322260D01*
X322090Y102126D01*
X322534Y102466D01*
X323103Y103208D01*
X323461Y104073D01*
X323583Y105000D01*
X323461Y105927D01*
X323103Y106792D01*
X322550Y107513D01*
X322529Y107566D01*
X322222Y107875D01*
X321713Y108447D01*
X321520Y108695D01*
X321358Y108928D01*
X321233Y109138D01*
X321141Y109324D01*
X321083Y109480D01*
X321053Y109605D01*
X321041Y109753D01*
X321013Y109807D01*
Y111706D01*
X325813Y116507D01*
X333028D01*
X333295Y116007D01*
D02*
G37*
G36*
X242219Y106989D02*
X242438Y106844D01*
X242653Y106739D01*
X242865Y106674D01*
X243074Y106648D01*
X243281Y106662D01*
X243484Y106716D01*
X243684Y106810D01*
X243882Y106943D01*
X244076Y107116D01*
X244619Y105989D01*
X244389Y105754D01*
X243279Y104478D01*
X243065Y104202D01*
X242437Y103332D01*
X241998Y107174D01*
X242219Y106989D01*
D02*
G37*
G36*
X229528Y153756D02*
Y130445D01*
X228919Y129978D01*
X228022Y128808D01*
X227457Y127446D01*
X227265Y125984D01*
X227457Y124522D01*
X228022Y123160D01*
X228919Y121990D01*
X230089Y121093D01*
X230760Y120815D01*
X235827Y115748D01*
Y101626D01*
X232568D01*
X232398Y102126D01*
X232667Y102332D01*
X233267Y103114D01*
X233644Y104024D01*
X233695Y104409D01*
X226305D01*
X226356Y104024D01*
X226733Y103114D01*
X227332Y102332D01*
X227602Y102126D01*
X227432Y101626D01*
X224409D01*
Y109055D01*
X222591Y110874D01*
Y111693D01*
X222502Y112363D01*
X222244Y112988D01*
X221832Y113525D01*
X221260Y114097D01*
Y127953D01*
X220232Y128981D01*
X220225Y129013D01*
X219962Y129407D01*
X219962Y129407D01*
X216175Y133195D01*
Y152253D01*
X218416Y154495D01*
X228788D01*
X229528Y153756D01*
D02*
G37*
G36*
X303112Y109545D02*
X302682Y109115D01*
X302625Y109097D01*
X302511Y109001D01*
X302402Y108934D01*
X302250Y108864D01*
X302055Y108798D01*
X301817Y108738D01*
X301538Y108687D01*
X301226Y108648D01*
X300461Y108604D01*
X300026Y108602D01*
X299974Y108580D01*
X299073Y108461D01*
X298208Y108103D01*
X297466Y107534D01*
X296897Y106792D01*
X296539Y105927D01*
X296417Y105000D01*
X296539Y104073D01*
X296897Y103208D01*
X297466Y102466D01*
X297910Y102126D01*
X297740Y101626D01*
X292260D01*
X292090Y102126D01*
X292534Y102466D01*
X293103Y103208D01*
X293461Y104073D01*
X293583Y105000D01*
X293461Y105927D01*
X293103Y106792D01*
X292534Y107534D01*
X291792Y108103D01*
X290927Y108461D01*
X290000Y108583D01*
X289073Y108461D01*
X288208Y108103D01*
X287466Y107534D01*
X286897Y106792D01*
X286539Y105927D01*
X286417Y105000D01*
X286539Y104073D01*
X286897Y103208D01*
X287466Y102466D01*
X287910Y102126D01*
X287740Y101626D01*
X282260D01*
X282090Y102126D01*
X282534Y102466D01*
X283103Y103208D01*
X283461Y104073D01*
X283583Y105000D01*
X283461Y105927D01*
X283103Y106792D01*
X282534Y107534D01*
X281792Y108103D01*
X280927Y108461D01*
X280000Y108583D01*
X279073Y108461D01*
X278208Y108103D01*
X277466Y107534D01*
X276897Y106792D01*
X276539Y105927D01*
X276417Y105000D01*
X276539Y104073D01*
X276897Y103208D01*
X277466Y102466D01*
X277910Y102126D01*
X277740Y101626D01*
X272260D01*
X272090Y102126D01*
X272534Y102466D01*
X273103Y103208D01*
X273461Y104073D01*
X273583Y105000D01*
X273461Y105927D01*
X273103Y106792D01*
X272534Y107534D01*
X271792Y108103D01*
X270927Y108461D01*
X270000Y108583D01*
X269073Y108461D01*
X268208Y108103D01*
X267466Y107534D01*
X266897Y106792D01*
X266539Y105927D01*
X266417Y105000D01*
X266539Y104073D01*
X266897Y103208D01*
X267466Y102466D01*
X267910Y102126D01*
X267740Y101626D01*
X262260D01*
X262090Y102126D01*
X262534Y102466D01*
X263103Y103208D01*
X263461Y104073D01*
X263578Y104956D01*
X263602Y105009D01*
X263625Y105762D01*
X263657Y106069D01*
X263703Y106354D01*
X263761Y106607D01*
X263830Y106829D01*
X263907Y107020D01*
X263992Y107181D01*
X264082Y107313D01*
X264204Y107453D01*
X264222Y107506D01*
X266723Y110007D01*
X302921D01*
X303112Y109545D01*
D02*
G37*
G36*
X284968Y170208D02*
X284767Y169708D01*
X225116D01*
X225116Y169708D01*
X224720Y169630D01*
X191962D01*
X191497Y169537D01*
X191103Y169274D01*
X191103Y169274D01*
X165612Y143783D01*
X165188Y144066D01*
X165377Y144522D01*
X165570Y145984D01*
X165377Y147446D01*
X164813Y148808D01*
X164497Y149220D01*
Y170227D01*
X284949D01*
X284968Y170208D01*
D02*
G37*
G36*
X252699Y106235D02*
X252804Y106099D01*
X252923Y105980D01*
X253056Y105877D01*
X253202Y105789D01*
X253362Y105718D01*
X253536Y105662D01*
X253724Y105622D01*
X253925Y105598D01*
X254140Y105591D01*
Y104409D01*
X253925Y104402D01*
X253724Y104378D01*
X253536Y104338D01*
X253362Y104282D01*
X253202Y104211D01*
X253056Y104123D01*
X252923Y104020D01*
X252804Y103901D01*
X252699Y103765D01*
X252607Y103614D01*
Y106386D01*
X252699Y106235D01*
D02*
G37*
G36*
X108231Y160749D02*
X107690Y160745D01*
X106722Y160682D01*
X106295Y160623D01*
X105906Y160545D01*
X105556Y160449D01*
X105243Y160334D01*
X104968Y160201D01*
X104731Y160049D01*
X104533Y159879D01*
X103698Y160714D01*
X103868Y160913D01*
X104020Y161149D01*
X104153Y161424D01*
X104268Y161737D01*
X104364Y162088D01*
X104442Y162476D01*
X104501Y162903D01*
X104564Y163871D01*
X104568Y164412D01*
X108231Y160749D01*
D02*
G37*
G36*
X636569Y163819D02*
X636619Y162857D01*
X636673Y162432D01*
X636748Y162044D01*
X636841Y161694D01*
X636954Y161381D01*
X637087Y161106D01*
X637239Y160869D01*
X637411Y160668D01*
X636563Y159846D01*
X636366Y160015D01*
X636130Y160167D01*
X635856Y160301D01*
X635543Y160417D01*
X635192Y160516D01*
X634802Y160598D01*
X634373Y160662D01*
X633400Y160737D01*
X632855Y160749D01*
X636573Y164356D01*
X636569Y163819D01*
D02*
G37*
G36*
X391550Y169727D02*
X391324Y169682D01*
X390931Y169419D01*
X390931Y169419D01*
X380501Y158990D01*
X373729D01*
X373668Y159016D01*
X372912Y159023D01*
X372600Y159037D01*
X372569Y159040D01*
X372543Y159045D01*
X372485Y159031D01*
X372410Y159063D01*
X372368Y159046D01*
X372146Y159090D01*
X366831D01*
X366328Y158990D01*
X365901Y158705D01*
X365616Y158279D01*
X365516Y157776D01*
X365616Y157273D01*
X365901Y156846D01*
X365976Y156797D01*
Y156195D01*
X365901Y156146D01*
X365616Y155719D01*
X365516Y155217D01*
X365616Y154714D01*
X365901Y154287D01*
X365976Y154238D01*
Y153636D01*
X365901Y153587D01*
X365616Y153160D01*
X365516Y152657D01*
X365616Y152155D01*
X365901Y151728D01*
X365976Y151679D01*
Y151077D01*
X365901Y151028D01*
X365616Y150601D01*
X365516Y150098D01*
X365616Y149595D01*
X365901Y149169D01*
X365976Y149120D01*
Y148518D01*
X365901Y148469D01*
X365616Y148042D01*
X365516Y147539D01*
X365616Y147036D01*
X365901Y146610D01*
X365976Y146561D01*
Y145959D01*
X365901Y145910D01*
X365616Y145483D01*
X365516Y144980D01*
X365616Y144477D01*
X365901Y144051D01*
X365976Y144001D01*
Y143400D01*
X365901Y143351D01*
X365616Y142924D01*
X365516Y142421D01*
X365616Y141918D01*
X365901Y141492D01*
X365976Y141442D01*
Y140841D01*
X365901Y140791D01*
X365616Y140365D01*
X365516Y139862D01*
X365616Y139359D01*
X365843Y139020D01*
X365873Y138771D01*
X365807Y138395D01*
X365766Y138368D01*
X365450Y137894D01*
X369488D01*
X373527D01*
X373382Y138111D01*
X373642Y138621D01*
X373686Y138623D01*
X373742Y138648D01*
X382539D01*
X382539Y138648D01*
X383003Y138741D01*
X383397Y139004D01*
X396516Y152123D01*
X397016Y151916D01*
Y130777D01*
X394777Y130629D01*
X394693Y130629D01*
X394153Y130652D01*
X394076Y130659D01*
X394019Y130669D01*
X393962Y130655D01*
X393877Y130691D01*
X393835Y130673D01*
X393667Y130707D01*
X391767D01*
X391598Y130673D01*
X391557Y130691D01*
X391545Y130686D01*
X391534Y130690D01*
X389792Y130629D01*
X389772Y130629D01*
X389232Y130652D01*
X389155Y130659D01*
X389097Y130669D01*
X389041Y130655D01*
X388955Y130691D01*
X388914Y130673D01*
X388745Y130707D01*
X386845D01*
X386677Y130673D01*
X386635Y130691D01*
X386624Y130686D01*
X386613Y130690D01*
X384870Y130629D01*
X384851Y130629D01*
X384733Y130634D01*
X384651Y130719D01*
X384777Y131240D01*
X384809Y131274D01*
X385223Y131550D01*
X385519Y131993D01*
X385622Y132515D01*
Y132874D01*
X383709D01*
X381795D01*
Y132515D01*
X381899Y131993D01*
X382194Y131550D01*
X382637Y131255D01*
X382878Y131207D01*
X382829Y130707D01*
X381924D01*
X381756Y130673D01*
X381714Y130691D01*
X381703Y130686D01*
X381691Y130690D01*
X379949Y130629D01*
X379929Y130629D01*
X379390Y130652D01*
X379312Y130659D01*
X379255Y130669D01*
X379198Y130655D01*
X379113Y130691D01*
X379071Y130673D01*
X378903Y130707D01*
X377003D01*
X376834Y130673D01*
X376793Y130691D01*
X376782Y130686D01*
X376770Y130690D01*
X374953Y130627D01*
X374940Y130658D01*
X374866Y131124D01*
X375169Y131327D01*
X375655Y131812D01*
X376292Y131742D01*
X376330Y131685D01*
X376710Y131431D01*
X377159Y131342D01*
X378259D01*
X378707Y131431D01*
X379088Y131685D01*
X379342Y132066D01*
X379431Y132515D01*
Y134415D01*
X379342Y134863D01*
X379088Y135244D01*
X378707Y135498D01*
X378259Y135587D01*
X377159D01*
X376710Y135498D01*
X376330Y135244D01*
X376075Y134863D01*
X376051Y134743D01*
X376021Y134736D01*
X375749Y134708D01*
X375577Y134704D01*
X375457Y134652D01*
X375126Y134586D01*
X374732Y134323D01*
X374732Y134323D01*
X373848Y133438D01*
X373338Y133472D01*
X373291Y133533D01*
X373152Y133930D01*
X373360Y134241D01*
X373460Y134744D01*
X373360Y135247D01*
X373133Y135586D01*
X373103Y135835D01*
X373169Y136212D01*
X373210Y136239D01*
X373527Y136713D01*
X369488D01*
X365450D01*
X365766Y136239D01*
X365807Y136212D01*
X365873Y135835D01*
X365843Y135586D01*
X365616Y135247D01*
X365516Y134744D01*
X365616Y134241D01*
X365901Y133815D01*
X365976Y133765D01*
Y133164D01*
X365901Y133114D01*
X365616Y132688D01*
X365516Y132185D01*
X365616Y131682D01*
X365901Y131256D01*
X365976Y131206D01*
Y130605D01*
X365901Y130555D01*
X365616Y130129D01*
X365516Y129626D01*
X365616Y129123D01*
X365901Y128697D01*
X366328Y128412D01*
X366831Y128312D01*
X368518D01*
X368988Y127842D01*
X369512Y127492D01*
X370130Y127369D01*
X374667D01*
X374710Y127351D01*
X375976Y127339D01*
X376516Y127316D01*
X376593Y127309D01*
X376651Y127300D01*
X376707Y127313D01*
X376793Y127278D01*
X376834Y127295D01*
X377003Y127262D01*
X378903D01*
X379071Y127295D01*
X379113Y127278D01*
X379124Y127283D01*
X379135Y127278D01*
X380878Y127339D01*
X380898Y127339D01*
X381437Y127316D01*
X381515Y127309D01*
X381572Y127300D01*
X381628Y127313D01*
X381714Y127278D01*
X381756Y127295D01*
X381924Y127262D01*
X383824D01*
X383992Y127295D01*
X384034Y127278D01*
X384045Y127283D01*
X384057Y127278D01*
X385799Y127339D01*
X385819Y127339D01*
X386358Y127316D01*
X386436Y127309D01*
X386493Y127300D01*
X386550Y127313D01*
X386635Y127278D01*
X386677Y127295D01*
X386845Y127262D01*
X388745D01*
X388914Y127295D01*
X388955Y127278D01*
X388966Y127283D01*
X388978Y127278D01*
X390720Y127339D01*
X390740Y127339D01*
X391280Y127316D01*
X391357Y127309D01*
X391414Y127300D01*
X391471Y127313D01*
X391557Y127278D01*
X391598Y127295D01*
X391767Y127262D01*
X393667D01*
X393835Y127295D01*
X393877Y127278D01*
X393888Y127283D01*
X393899Y127278D01*
X395273Y127326D01*
X396446Y127286D01*
X397255Y127209D01*
X397532Y127163D01*
X397723Y127117D01*
X397800Y127087D01*
X397854Y127051D01*
X397924Y127038D01*
X398311Y126741D01*
X398936Y126482D01*
X399606Y126394D01*
X400277Y126482D01*
X400902Y126741D01*
X401289Y127038D01*
X401358Y127051D01*
X401412Y127087D01*
X401490Y127117D01*
X401650Y127155D01*
X404537Y127347D01*
X405252Y127351D01*
X405295Y127369D01*
X413053D01*
X413096Y127351D01*
X414362Y127339D01*
X414902Y127316D01*
X414979Y127309D01*
X415036Y127300D01*
X415093Y127313D01*
X415179Y127278D01*
X415220Y127295D01*
X415389Y127262D01*
X417289D01*
X417457Y127295D01*
X417498Y127278D01*
X417510Y127283D01*
X417521Y127278D01*
X418579Y127315D01*
X418778Y126857D01*
X417132Y125211D01*
X417127Y125210D01*
X417108Y125187D01*
X417056Y125135D01*
X416987Y125108D01*
X416852Y124978D01*
X416739Y124878D01*
X416639Y124799D01*
X416556Y124742D01*
X416494Y124707D01*
X415389D01*
X414940Y124618D01*
X414560Y124363D01*
X414305Y123983D01*
X414216Y123534D01*
Y122434D01*
X414305Y121985D01*
X414560Y121605D01*
X414696Y121514D01*
X414705Y121492D01*
X414766Y121467D01*
X414940Y121351D01*
X415024Y121334D01*
X415034Y121306D01*
X415058Y121211D01*
X415079Y121077D01*
X415093Y120907D01*
X415099Y120689D01*
X415125Y120630D01*
Y120512D01*
X415099Y120453D01*
X415093Y120235D01*
X415079Y120065D01*
X415058Y119931D01*
X415034Y119835D01*
X415024Y119807D01*
X414940Y119791D01*
X414766Y119675D01*
X414705Y119649D01*
X414234Y119666D01*
X412889Y121011D01*
X412561Y121230D01*
X412173Y121308D01*
X395124D01*
X394856Y121808D01*
X394926Y121912D01*
X395022Y122394D01*
X392717D01*
Y122984D01*
X392126D01*
Y124898D01*
X391767D01*
X391245Y124794D01*
X390802Y124498D01*
X390513Y124065D01*
X390460Y124056D01*
X390052D01*
X389999Y124065D01*
X389709Y124498D01*
X389267Y124794D01*
X388745Y124898D01*
X388386D01*
Y122984D01*
X387205D01*
Y124898D01*
X386845D01*
X386323Y124794D01*
X385881Y124498D01*
X385592Y124065D01*
X385538Y124056D01*
X385131D01*
X385078Y124065D01*
X384788Y124498D01*
X384346Y124794D01*
X383824Y124898D01*
X383465D01*
Y122984D01*
X382283D01*
Y124898D01*
X381924D01*
X381402Y124794D01*
X380960Y124498D01*
X380670Y124065D01*
X380617Y124056D01*
X380210D01*
X380156Y124065D01*
X379867Y124498D01*
X379425Y124794D01*
X378903Y124898D01*
X378543D01*
Y122984D01*
X377953D01*
Y122394D01*
X375647D01*
X375743Y121912D01*
X375813Y121808D01*
X375546Y121308D01*
X324519D01*
X324312Y121808D01*
X333475Y130971D01*
X342806D01*
X342868Y130945D01*
X342894Y130945D01*
X343160Y130442D01*
X343009Y130217D01*
X347047D01*
X351086D01*
X350769Y130690D01*
X350729Y130718D01*
X350662Y131094D01*
X350692Y131343D01*
X350919Y131682D01*
X351019Y132185D01*
X350919Y132688D01*
X350634Y133114D01*
X350560Y133164D01*
Y133765D01*
X350634Y133815D01*
X350919Y134241D01*
X351019Y134744D01*
X350919Y135247D01*
X350634Y135673D01*
X350560Y135723D01*
Y136324D01*
X350634Y136374D01*
X350919Y136800D01*
X351019Y137303D01*
X350919Y137806D01*
X350634Y138232D01*
X350560Y138282D01*
Y138883D01*
X350634Y138933D01*
X350919Y139359D01*
X351019Y139862D01*
X350919Y140365D01*
X350634Y140791D01*
X350560Y140841D01*
Y141442D01*
X350634Y141492D01*
X350919Y141918D01*
X351019Y142421D01*
X350919Y142924D01*
X350634Y143351D01*
X350560Y143400D01*
Y144001D01*
X350634Y144051D01*
X350919Y144477D01*
X351019Y144980D01*
X350919Y145483D01*
X350634Y145910D01*
X350560Y145959D01*
Y146561D01*
X350634Y146610D01*
X350919Y147036D01*
X351019Y147539D01*
X350919Y148042D01*
X350634Y148469D01*
X350560Y148518D01*
Y149120D01*
X350634Y149169D01*
X350919Y149595D01*
X351019Y150098D01*
X350919Y150601D01*
X350634Y151028D01*
X350560Y151077D01*
Y151679D01*
X350634Y151728D01*
X350919Y152155D01*
X351019Y152657D01*
X350919Y153160D01*
X350634Y153587D01*
X350560Y153636D01*
Y154238D01*
X350634Y154287D01*
X350919Y154714D01*
X351019Y155217D01*
X350919Y155719D01*
X350634Y156146D01*
X350560Y156195D01*
Y156797D01*
X350634Y156846D01*
X350919Y157273D01*
X351019Y157776D01*
X350919Y158279D01*
X350634Y158705D01*
X350208Y158990D01*
X349705Y159090D01*
X344390D01*
X344389Y159090D01*
X343853D01*
X343434Y159114D01*
X343416Y159107D01*
X343399Y159115D01*
X343211Y159115D01*
X343148Y159090D01*
X339875D01*
X329611Y169353D01*
X329218Y169616D01*
X328753Y169708D01*
X328753Y169708D01*
X287044D01*
X286843Y170208D01*
X286862Y170227D01*
X391501D01*
X391550Y169727D01*
D02*
G37*
G36*
X263716Y107881D02*
X263567Y107711D01*
X263435Y107516D01*
X263318Y107295D01*
X263217Y107048D01*
X263133Y106776D01*
X263065Y106478D01*
X263013Y106154D01*
X262977Y105805D01*
X262953Y105029D01*
X260030Y107953D01*
X260430Y107957D01*
X261154Y108013D01*
X261478Y108065D01*
X261776Y108133D01*
X262048Y108218D01*
X262295Y108318D01*
X262516Y108435D01*
X262711Y108567D01*
X262881Y108716D01*
X263716Y107881D01*
D02*
G37*
G36*
X303600Y108044D02*
X303473Y107893D01*
X303360Y107708D01*
X303260Y107490D01*
X303175Y107239D01*
X303103Y106955D01*
X303045Y106636D01*
X303001Y106285D01*
X302955Y105481D01*
X302953Y105029D01*
X300029Y107953D01*
X300481Y107955D01*
X301285Y108001D01*
X301636Y108045D01*
X301955Y108103D01*
X302239Y108175D01*
X302490Y108260D01*
X302708Y108360D01*
X302893Y108473D01*
X303044Y108600D01*
X303600Y108044D01*
D02*
G37*
G36*
X222067Y107109D02*
X217933D01*
X217952Y107145D01*
X217969Y107214D01*
X217983Y107317D01*
X218007Y107623D01*
X218031Y108636D01*
X218032Y108973D01*
X221969D01*
X222067Y107109D01*
D02*
G37*
G36*
X372435Y148168D02*
X372482Y148160D01*
X372552Y148153D01*
X372894Y148137D01*
X373661Y148130D01*
Y146949D01*
X372410Y146902D01*
Y148177D01*
X372435Y148168D01*
D02*
G37*
G36*
X344126Y146902D02*
X344100Y146911D01*
X344053Y146919D01*
X343983Y146926D01*
X343641Y146941D01*
X342874Y146949D01*
Y148130D01*
X344126Y148177D01*
Y146902D01*
D02*
G37*
G36*
X245925Y147652D02*
X245951Y147586D01*
X245994Y147528D01*
X246054Y147478D01*
X246131Y147435D01*
X246225Y147400D01*
X246337Y147373D01*
X246465Y147354D01*
X246611Y147343D01*
X246774Y147339D01*
Y146551D01*
X246611Y146547D01*
X246465Y146536D01*
X246337Y146516D01*
X246225Y146489D01*
X246131Y146454D01*
X246054Y146412D01*
X245994Y146361D01*
X245951Y146303D01*
X245925Y146238D01*
X245917Y146164D01*
Y146547D01*
X244905Y146527D01*
Y147363D01*
X244922Y147358D01*
X244961Y147354D01*
X245110Y147347D01*
X245917Y147340D01*
Y147726D01*
X245925Y147652D01*
D02*
G37*
G36*
X245552Y149742D02*
X245452Y149705D01*
X245365Y149643D01*
X245289Y149555D01*
X245225Y149443D01*
X245172Y149306D01*
X245131Y149144D01*
X245102Y148957D01*
X245095Y148866D01*
X245102Y148776D01*
X245131Y148589D01*
X245172Y148426D01*
X245225Y148289D01*
X245289Y148177D01*
X245365Y148090D01*
X245452Y148027D01*
X245552Y147990D01*
X245663Y147977D01*
X243314D01*
X243425Y147990D01*
X243524Y148027D01*
X243612Y148090D01*
X243688Y148177D01*
X243752Y148289D01*
X243804Y148426D01*
X243845Y148589D01*
X243874Y148776D01*
X243882Y148866D01*
X243874Y148957D01*
X243845Y149144D01*
X243804Y149306D01*
X243752Y149443D01*
X243688Y149555D01*
X243612Y149643D01*
X243524Y149705D01*
X243425Y149742D01*
X243314Y149755D01*
X245663D01*
X245552Y149742D01*
D02*
G37*
G36*
X235709Y149790D02*
X235610Y149752D01*
X235522Y149690D01*
X235446Y149602D01*
X235382Y149490D01*
X235330Y149353D01*
X235289Y149191D01*
X235260Y149004D01*
X235246Y148835D01*
X235260Y148665D01*
X235289Y148478D01*
X235330Y148316D01*
X235382Y148179D01*
X235446Y148067D01*
X235522Y147979D01*
X235610Y147917D01*
X235709Y147880D01*
X235820Y147867D01*
X233471D01*
X233582Y147880D01*
X233681Y147917D01*
X233769Y147979D01*
X233845Y148067D01*
X233909Y148179D01*
X233962Y148316D01*
X234003Y148478D01*
X234032Y148665D01*
X234046Y148835D01*
X234032Y149004D01*
X234003Y149191D01*
X233962Y149353D01*
X233909Y149490D01*
X233845Y149602D01*
X233769Y149690D01*
X233681Y149752D01*
X233582Y149790D01*
X233471Y149802D01*
X235820D01*
X235709Y149790D01*
D02*
G37*
G36*
X372435Y145609D02*
X372482Y145601D01*
X372552Y145594D01*
X372894Y145578D01*
X373661Y145571D01*
Y144390D01*
X372410Y144343D01*
Y145618D01*
X372435Y145609D01*
D02*
G37*
G36*
X204664Y112964D02*
X204580Y113014D01*
X204492Y113047D01*
X204401Y113062D01*
X204308Y113060D01*
X204211Y113041D01*
X204111Y113005D01*
X204009Y112952D01*
X203903Y112882D01*
X203795Y112795D01*
X203683Y112690D01*
X203016Y113694D01*
X204229Y114903D01*
X204664Y112964D01*
D02*
G37*
G36*
X580831Y147484D02*
X580328Y147481D01*
X579425Y147420D01*
X579026Y147362D01*
X578661Y147287D01*
X578332Y147194D01*
X578036Y147083D01*
X577776Y146954D01*
X577550Y146807D01*
X577359Y146642D01*
X576524Y147477D01*
X576689Y147669D01*
X576836Y147894D01*
X576965Y148155D01*
X577076Y148450D01*
X577169Y148779D01*
X577244Y149144D01*
X577302Y149543D01*
X577363Y150446D01*
X577366Y150949D01*
X580831Y147484D01*
D02*
G37*
G36*
X143310Y149953D02*
X143260Y149107D01*
X143275Y148727D01*
X143316Y148377D01*
X143384Y148057D01*
X143479Y147766D01*
X143601Y147504D01*
X143749Y147272D01*
X143924Y147068D01*
X142959Y146363D01*
X142787Y146511D01*
X142575Y146653D01*
X142322Y146787D01*
X142029Y146913D01*
X141696Y147032D01*
X141322Y147144D01*
X140455Y147347D01*
X139427Y147519D01*
X143376Y150421D01*
X143310Y149953D01*
D02*
G37*
G36*
X235245Y146820D02*
X235270Y146789D01*
X235370Y146680D01*
X235765Y146278D01*
X236132Y146450D01*
X236070Y146408D01*
X236032Y146353D01*
X236019Y146285D01*
X236029Y146204D01*
X236064Y146109D01*
X236123Y146001D01*
X236207Y145879D01*
X236315Y145744D01*
X236447Y145596D01*
X236603Y145434D01*
X235744Y145179D01*
X235599Y145319D01*
X235332Y145542D01*
X235210Y145627D01*
X235095Y145693D01*
X234987Y145740D01*
X234887Y145770D01*
X234794Y145781D01*
X234709Y145774D01*
X234631Y145748D01*
X234988Y145915D01*
X234645Y146244D01*
X235236Y146835D01*
X235245Y146820D01*
D02*
G37*
G36*
X240166Y146930D02*
X240191Y146900D01*
X240291Y146790D01*
X240686Y146388D01*
X241054Y146560D01*
X240991Y146519D01*
X240953Y146464D01*
X240940Y146396D01*
X240951Y146314D01*
X240986Y146219D01*
X241045Y146111D01*
X241128Y145989D01*
X241236Y145854D01*
X241368Y145706D01*
X241524Y145544D01*
X240666Y145290D01*
X240521Y145429D01*
X240253Y145652D01*
X240131Y145737D01*
X240016Y145803D01*
X239908Y145851D01*
X239808Y145880D01*
X239715Y145891D01*
X239630Y145884D01*
X239552Y145858D01*
X239909Y146025D01*
X239567Y146354D01*
X240158Y146945D01*
X240166Y146930D01*
D02*
G37*
G36*
X240631Y149742D02*
X240531Y149705D01*
X240444Y149643D01*
X240368Y149555D01*
X240303Y149443D01*
X240251Y149306D01*
X240210Y149144D01*
X240181Y148957D01*
X240173Y148866D01*
X240181Y148776D01*
X240210Y148589D01*
X240251Y148426D01*
X240303Y148289D01*
X240368Y148177D01*
X240444Y148090D01*
X240531Y148027D01*
X240631Y147990D01*
X240741Y147977D01*
X238392D01*
X238504Y147990D01*
X238603Y148027D01*
X238690Y148090D01*
X238766Y148177D01*
X238830Y148289D01*
X238883Y148426D01*
X238924Y148589D01*
X238953Y148776D01*
X238961Y148866D01*
X238953Y148957D01*
X238924Y149144D01*
X238883Y149306D01*
X238830Y149443D01*
X238766Y149555D01*
X238690Y149643D01*
X238603Y149705D01*
X238504Y149742D01*
X238392Y149755D01*
X240741D01*
X240631Y149742D01*
D02*
G37*
G36*
X238694Y152504D02*
X239106Y152158D01*
X239292Y152029D01*
X239466Y151930D01*
X239626Y151860D01*
X239774Y151819D01*
X239908Y151808D01*
X240030Y151826D01*
X240139Y151874D01*
X238080Y150616D01*
X238164Y150688D01*
X238211Y150782D01*
X238220Y150895D01*
X238193Y151030D01*
X238129Y151185D01*
X238027Y151360D01*
X237889Y151556D01*
X237714Y151772D01*
X237252Y152267D01*
X238468Y152721D01*
X238694Y152504D01*
D02*
G37*
G36*
X233315Y152529D02*
X233757Y152153D01*
X233951Y152016D01*
X234127Y151914D01*
X234285Y151847D01*
X234425Y151814D01*
X234547Y151815D01*
X234651Y151851D01*
X234737Y151921D01*
X233184Y150160D01*
X233245Y150255D01*
X233273Y150367D01*
X233267Y150495D01*
X233229Y150640D01*
X233158Y150801D01*
X233055Y150979D01*
X232918Y151172D01*
X232749Y151383D01*
X232312Y151853D01*
X233067Y152768D01*
X233315Y152529D01*
D02*
G37*
G36*
X207255Y154491D02*
X207091Y154300D01*
X206944Y154074D01*
X206815Y153814D01*
X206704Y153519D01*
X206611Y153189D01*
X206535Y152824D01*
X206478Y152425D01*
X206417Y151523D01*
X206413Y151019D01*
X202948Y154484D01*
X203452Y154488D01*
X204354Y154549D01*
X204754Y154606D01*
X205118Y154682D01*
X205448Y154775D01*
X205743Y154886D01*
X206003Y155015D01*
X206229Y155161D01*
X206420Y155326D01*
X207255Y154491D01*
D02*
G37*
G36*
X451566Y155161D02*
X451792Y155015D01*
X452052Y154886D01*
X452347Y154775D01*
X452677Y154682D01*
X453042Y154606D01*
X453441Y154549D01*
X454344Y154488D01*
X454847Y154484D01*
X451382Y151019D01*
X451378Y151523D01*
X451317Y152425D01*
X451260Y152824D01*
X451185Y153189D01*
X451091Y153519D01*
X450980Y153814D01*
X450851Y154074D01*
X450705Y154300D01*
X450540Y154491D01*
X451375Y155326D01*
X451566Y155161D01*
D02*
G37*
G36*
X270247Y154491D02*
X270083Y154300D01*
X269936Y154074D01*
X269807Y153814D01*
X269696Y153519D01*
X269603Y153189D01*
X269528Y152824D01*
X269470Y152425D01*
X269409Y151523D01*
X269405Y151019D01*
X265940Y154484D01*
X266444Y154488D01*
X267347Y154549D01*
X267746Y154606D01*
X268110Y154682D01*
X268440Y154775D01*
X268735Y154886D01*
X268996Y155015D01*
X269221Y155161D01*
X269412Y155326D01*
X270247Y154491D01*
D02*
G37*
G36*
X344126Y144343D02*
X344100Y144352D01*
X344053Y144360D01*
X343983Y144367D01*
X343641Y144382D01*
X342874Y144390D01*
Y145571D01*
X344126Y145618D01*
Y144343D01*
D02*
G37*
G36*
Y149461D02*
X344100Y149470D01*
X344053Y149478D01*
X343983Y149485D01*
X343641Y149500D01*
X342874Y149508D01*
Y150689D01*
X344126Y150736D01*
Y149461D01*
D02*
G37*
G36*
X604836Y149100D02*
X605240Y148756D01*
X605649Y148452D01*
X606062Y148189D01*
X606480Y147967D01*
X606903Y147784D01*
X607080Y147726D01*
X608482Y147579D01*
X610965Y147474D01*
X612390Y147461D01*
Y144508D01*
X610965Y144495D01*
X607001Y144217D01*
X606903Y144184D01*
X606480Y144002D01*
X606062Y143779D01*
X605649Y143516D01*
X605240Y143213D01*
X604836Y142869D01*
X604437Y142484D01*
Y143677D01*
X604417Y143670D01*
X603972Y143447D01*
X603648Y143199D01*
Y148770D01*
X603972Y148521D01*
X604417Y148299D01*
X604437Y148292D01*
Y149484D01*
X604836Y149100D01*
D02*
G37*
G36*
X632837Y150749D02*
X632527Y150739D01*
X632223Y150701D01*
X631922Y150637D01*
X631627Y150546D01*
X631335Y150429D01*
X631049Y150284D01*
X630767Y150112D01*
X630490Y149914D01*
X630217Y149688D01*
X629949Y149436D01*
X627861Y151524D01*
X628114Y151792D01*
X628339Y152065D01*
X628537Y152342D01*
X628709Y152624D01*
X628854Y152910D01*
X628972Y153201D01*
X629063Y153497D01*
X629127Y153797D01*
X629164Y154102D01*
X629174Y154412D01*
X632837Y150749D01*
D02*
G37*
G36*
X372435Y150727D02*
X372482Y150719D01*
X372552Y150712D01*
X372894Y150697D01*
X373661Y150689D01*
Y149508D01*
X372410Y149461D01*
Y150736D01*
X372435Y150727D01*
D02*
G37*
%LPC*%
G36*
X209409Y108756D02*
X207047D01*
X206740Y108695D01*
X206480Y108520D01*
X206306Y108260D01*
X206244Y107953D01*
Y105591D01*
X209409D01*
Y108756D01*
D02*
G37*
G36*
X110236Y117215D02*
X110205Y117202D01*
X110173Y117212D01*
X108938Y117091D01*
X108879Y117059D01*
X108813Y117066D01*
X107625Y116706D01*
X107574Y116663D01*
X107508Y116657D01*
X106413Y116072D01*
X106371Y116021D01*
X106308Y116001D01*
X105349Y115214D01*
X105317Y115155D01*
X105258Y115124D01*
X104471Y114165D01*
X104452Y114101D01*
X104401Y114059D01*
X103816Y112965D01*
X103809Y112898D01*
X103767Y112847D01*
X103407Y111660D01*
X103413Y111593D01*
X103382Y111535D01*
X103260Y110300D01*
X103279Y110236D01*
X103260Y110173D01*
X103382Y108938D01*
X103413Y108879D01*
X103407Y108813D01*
X103767Y107625D01*
X103809Y107574D01*
X103816Y107508D01*
X104401Y106413D01*
X104452Y106371D01*
X104471Y106308D01*
X105258Y105349D01*
X105317Y105317D01*
X105349Y105258D01*
X106308Y104471D01*
X106371Y104452D01*
X106413Y104401D01*
X107508Y103816D01*
X107574Y103809D01*
X107625Y103767D01*
X108813Y103407D01*
X108879Y103413D01*
X108938Y103382D01*
X110173Y103260D01*
X110205Y103270D01*
X110236Y103257D01*
X110267Y103270D01*
X110300Y103260D01*
X111535Y103382D01*
X111593Y103413D01*
X111660Y103407D01*
X112847Y103767D01*
X112898Y103809D01*
X112965Y103816D01*
X114059Y104401D01*
X114101Y104452D01*
X114165Y104471D01*
X115124Y105258D01*
X115155Y105317D01*
X115214Y105349D01*
X116001Y106308D01*
X116021Y106371D01*
X116072Y106413D01*
X116657Y107508D01*
X116663Y107574D01*
X116706Y107625D01*
X117066Y108813D01*
X117059Y108879D01*
X117091Y108938D01*
X117212Y110173D01*
X117193Y110236D01*
X117212Y110300D01*
X117091Y111535D01*
X117059Y111593D01*
X117066Y111660D01*
X116706Y112847D01*
X116663Y112898D01*
X116657Y112965D01*
X116072Y114059D01*
X116021Y114101D01*
X116001Y114165D01*
X115214Y115124D01*
X115155Y115155D01*
X115124Y115214D01*
X114165Y116001D01*
X114101Y116021D01*
X114059Y116072D01*
X112965Y116657D01*
X112898Y116663D01*
X112847Y116706D01*
X111660Y117066D01*
X111593Y117059D01*
X111535Y117091D01*
X110300Y117212D01*
X110267Y117202D01*
X110236Y117215D01*
D02*
G37*
G36*
X169921Y131633D02*
X168459Y131440D01*
X167097Y130876D01*
X165927Y129978D01*
X165030Y128808D01*
X164465Y127446D01*
X164273Y125984D01*
X164465Y124522D01*
X165030Y123160D01*
X165927Y121990D01*
X167097Y121093D01*
X168459Y120528D01*
X169921Y120336D01*
X171383Y120528D01*
X172745Y121093D01*
X173915Y121990D01*
X174813Y123160D01*
X175377Y124522D01*
X175570Y125984D01*
X175377Y127446D01*
X174813Y128808D01*
X173915Y129978D01*
X172745Y130876D01*
X171383Y131440D01*
X169921Y131633D01*
D02*
G37*
G36*
X212953Y108756D02*
X210591D01*
Y105591D01*
X213756D01*
Y107953D01*
X213695Y108260D01*
X213520Y108520D01*
X213260Y108695D01*
X212953Y108756D01*
D02*
G37*
G36*
X135681Y125394D02*
X130512D01*
Y120225D01*
X131432Y120346D01*
X132840Y120929D01*
X134049Y121857D01*
X134976Y123066D01*
X135560Y124473D01*
X135681Y125394D01*
D02*
G37*
G36*
X198673Y125394D02*
X193504D01*
Y120225D01*
X194424Y120346D01*
X195832Y120929D01*
X197041Y121857D01*
X197969Y123066D01*
X198552Y124473D01*
X198673Y125394D01*
D02*
G37*
G36*
X129331Y125394D02*
X124162D01*
X124283Y124473D01*
X124866Y123066D01*
X125794Y121857D01*
X127003Y120929D01*
X128410Y120346D01*
X129331Y120225D01*
Y125394D01*
D02*
G37*
G36*
X192323Y125394D02*
X187154D01*
X187275Y124473D01*
X187858Y123066D01*
X188786Y121857D01*
X189995Y120929D01*
X191403Y120346D01*
X192323Y120225D01*
Y125394D01*
D02*
G37*
G36*
X191827Y150984D02*
X189913D01*
X188000D01*
Y150625D01*
X188104Y150103D01*
X188399Y149661D01*
X188832Y149371D01*
X188842Y149318D01*
Y148910D01*
X188832Y148857D01*
X188399Y148568D01*
X188104Y148125D01*
X188000Y147603D01*
Y147244D01*
X189913D01*
X191827D01*
Y147603D01*
X191723Y148125D01*
X191428Y148568D01*
X190995Y148857D01*
X190985Y148910D01*
Y149318D01*
X190995Y149371D01*
X191428Y149661D01*
X191723Y150103D01*
X191827Y150625D01*
Y150984D01*
D02*
G37*
G36*
X190504Y153880D02*
Y152165D01*
X191827D01*
Y152525D01*
X191723Y153047D01*
X191428Y153489D01*
X190985Y153785D01*
X190504Y153880D01*
D02*
G37*
G36*
X189323Y153880D02*
X188842Y153785D01*
X188399Y153489D01*
X188104Y153047D01*
X188000Y152525D01*
Y152165D01*
X189323D01*
Y153880D01*
D02*
G37*
G36*
X191827Y146063D02*
X189913D01*
X188000D01*
Y145703D01*
X188104Y145182D01*
X188399Y144739D01*
X188832Y144450D01*
X188842Y144397D01*
Y143989D01*
X188832Y143936D01*
X188399Y143647D01*
X188104Y143204D01*
X188000Y142682D01*
Y142323D01*
X189913D01*
X191827D01*
Y142682D01*
X191723Y143204D01*
X191428Y143647D01*
X190995Y143936D01*
X190985Y143989D01*
Y144397D01*
X190995Y144450D01*
X191428Y144739D01*
X191723Y145182D01*
X191827Y145703D01*
Y146063D01*
D02*
G37*
G36*
X130512Y131744D02*
Y126575D01*
X135681D01*
X135560Y127495D01*
X134976Y128903D01*
X134049Y130112D01*
X132840Y131040D01*
X131432Y131623D01*
X130512Y131744D01*
D02*
G37*
G36*
X129331D02*
X128410Y131623D01*
X127003Y131040D01*
X125794Y130112D01*
X124866Y128903D01*
X124283Y127495D01*
X124162Y126575D01*
X129331D01*
Y131744D01*
D02*
G37*
G36*
X193504D02*
Y126575D01*
X198673D01*
X198552Y127495D01*
X197969Y128903D01*
X197041Y130112D01*
X195832Y131040D01*
X194424Y131623D01*
X193504Y131744D01*
D02*
G37*
G36*
X192323D02*
X191403Y131623D01*
X189995Y131040D01*
X188786Y130112D01*
X187858Y128903D01*
X187275Y127495D01*
X187154Y126575D01*
X192323D01*
Y131744D01*
D02*
G37*
G36*
X191827Y141142D02*
X189913D01*
X188000D01*
Y140782D01*
X188104Y140260D01*
X188399Y139818D01*
X188832Y139529D01*
X188842Y139475D01*
Y139068D01*
X188832Y139015D01*
X188399Y138725D01*
X188104Y138283D01*
X188000Y137761D01*
Y137402D01*
X189913D01*
X191827D01*
Y137761D01*
X191723Y138283D01*
X191428Y138725D01*
X190995Y139015D01*
X190985Y139068D01*
Y139475D01*
X190995Y139529D01*
X191428Y139818D01*
X191723Y140260D01*
X191827Y140782D01*
Y141142D01*
D02*
G37*
G36*
Y136221D02*
X190504D01*
Y134505D01*
X190985Y134601D01*
X191428Y134897D01*
X191723Y135339D01*
X191827Y135861D01*
Y136221D01*
D02*
G37*
G36*
X189323D02*
X188000D01*
Y135861D01*
X188104Y135339D01*
X188399Y134897D01*
X188842Y134601D01*
X189323Y134505D01*
Y136221D01*
D02*
G37*
G36*
X261665Y125394D02*
X256496D01*
Y120225D01*
X257416Y120346D01*
X258824Y120929D01*
X260033Y121857D01*
X260961Y123066D01*
X261544Y124473D01*
X261665Y125394D01*
D02*
G37*
G36*
X255315D02*
X250146D01*
X250267Y124473D01*
X250850Y123066D01*
X251778Y121857D01*
X252987Y120929D01*
X254395Y120346D01*
X255315Y120225D01*
Y125394D01*
D02*
G37*
G36*
X234055Y142748D02*
X233696D01*
X233174Y142645D01*
X232732Y142349D01*
X232436Y141906D01*
X232340Y141425D01*
X234055D01*
Y142748D01*
D02*
G37*
G36*
X255315Y131744D02*
X254395Y131623D01*
X252987Y131040D01*
X251778Y130112D01*
X250850Y128903D01*
X250267Y127495D01*
X250146Y126575D01*
X255315D01*
Y131744D01*
D02*
G37*
G36*
X246794Y140354D02*
X245079D01*
Y139031D01*
X245438D01*
X245960Y139135D01*
X246402Y139431D01*
X246698Y139873D01*
X246794Y140354D01*
D02*
G37*
G36*
X234055Y140244D02*
X232340D01*
X232436Y139763D01*
X232732Y139321D01*
X233174Y139025D01*
X233696Y138921D01*
X234055D01*
Y140244D01*
D02*
G37*
G36*
X507283Y125394D02*
X502114D01*
X502236Y124473D01*
X502819Y123066D01*
X503746Y121857D01*
X504955Y120929D01*
X506363Y120346D01*
X507283Y120225D01*
Y125394D01*
D02*
G37*
G36*
X576626Y125394D02*
X571457D01*
Y120225D01*
X572377Y120346D01*
X573785Y120929D01*
X574994Y121857D01*
X575921Y123066D01*
X576505Y124473D01*
X576626Y125394D01*
D02*
G37*
G36*
X631890Y117215D02*
X631858Y117202D01*
X631826Y117212D01*
X630591Y117091D01*
X630533Y117059D01*
X630466Y117066D01*
X629279Y116706D01*
X629227Y116663D01*
X629161Y116657D01*
X628067Y116072D01*
X628025Y116021D01*
X627961Y116001D01*
X627002Y115214D01*
X626971Y115155D01*
X626912Y115124D01*
X626125Y114165D01*
X626105Y114101D01*
X626054Y114059D01*
X625469Y112965D01*
X625463Y112898D01*
X625420Y112847D01*
X625060Y111660D01*
X625067Y111593D01*
X625035Y111535D01*
X624914Y110300D01*
X624933Y110236D01*
X624914Y110173D01*
X625035Y108938D01*
X625067Y108879D01*
X625060Y108813D01*
X625420Y107625D01*
X625463Y107574D01*
X625469Y107508D01*
X626054Y106413D01*
X626105Y106371D01*
X626125Y106308D01*
X626912Y105349D01*
X626971Y105317D01*
X627002Y105258D01*
X627961Y104471D01*
X628025Y104452D01*
X628067Y104401D01*
X629161Y103816D01*
X629227Y103809D01*
X629279Y103767D01*
X630466Y103407D01*
X630533Y103413D01*
X630591Y103382D01*
X631826Y103260D01*
X631858Y103270D01*
X631890Y103257D01*
X631921Y103270D01*
X631953Y103260D01*
X633188Y103382D01*
X633247Y103413D01*
X633313Y103407D01*
X634501Y103767D01*
X634552Y103809D01*
X634618Y103816D01*
X635712Y104401D01*
X635755Y104452D01*
X635818Y104471D01*
X636777Y105258D01*
X636809Y105317D01*
X636868Y105349D01*
X637655Y106308D01*
X637674Y106371D01*
X637725Y106413D01*
X638310Y107508D01*
X638317Y107574D01*
X638359Y107625D01*
X638719Y108813D01*
X638713Y108879D01*
X638744Y108938D01*
X638866Y110173D01*
X638846Y110236D01*
X638866Y110300D01*
X638744Y111535D01*
X638713Y111593D01*
X638719Y111660D01*
X638359Y112847D01*
X638317Y112898D01*
X638310Y112965D01*
X637725Y114059D01*
X637674Y114101D01*
X637655Y114165D01*
X636868Y115124D01*
X636809Y115155D01*
X636777Y115214D01*
X635818Y116001D01*
X635755Y116021D01*
X635712Y116072D01*
X634618Y116657D01*
X634552Y116663D01*
X634501Y116706D01*
X633313Y117066D01*
X633247Y117059D01*
X633188Y117091D01*
X631953Y117212D01*
X631921Y117202D01*
X631890Y117215D01*
D02*
G37*
G36*
X484882Y131633D02*
X483420Y131440D01*
X482058Y130876D01*
X480888Y129978D01*
X479990Y128808D01*
X479426Y127446D01*
X479234Y125984D01*
X479426Y124522D01*
X479990Y123160D01*
X480888Y121990D01*
X482058Y121093D01*
X483420Y120528D01*
X484882Y120336D01*
X486344Y120528D01*
X487706Y121093D01*
X488876Y121990D01*
X489774Y123160D01*
X490338Y124522D01*
X490530Y125984D01*
X490338Y127446D01*
X489774Y128808D01*
X488876Y129978D01*
X487706Y130876D01*
X486344Y131440D01*
X484882Y131633D01*
D02*
G37*
G36*
X570276Y125394D02*
X565106D01*
X565228Y124473D01*
X565811Y123066D01*
X566739Y121857D01*
X567947Y120929D01*
X569355Y120346D01*
X570276Y120225D01*
Y125394D01*
D02*
G37*
G36*
X415748Y111567D02*
X414033D01*
X414129Y111086D01*
X414424Y110643D01*
X414867Y110348D01*
X415389Y110244D01*
X415748D01*
Y111567D01*
D02*
G37*
G36*
X428487D02*
X426772D01*
Y110244D01*
X427131D01*
X427653Y110348D01*
X428095Y110643D01*
X428391Y111086D01*
X428487Y111567D01*
D02*
G37*
G36*
X427131Y114071D02*
X426772D01*
Y112748D01*
X428487D01*
X428391Y113229D01*
X428095Y113672D01*
X427653Y113967D01*
X427131Y114071D01*
D02*
G37*
G36*
X513634Y125394D02*
X508464D01*
Y120225D01*
X509385Y120346D01*
X510793Y120929D01*
X512002Y121857D01*
X512929Y123066D01*
X513513Y124473D01*
X513634Y125394D01*
D02*
G37*
G36*
X444291Y125394D02*
X439122D01*
X439244Y124473D01*
X439827Y123066D01*
X440754Y121857D01*
X441963Y120929D01*
X443371Y120346D01*
X444291Y120225D01*
Y125394D01*
D02*
G37*
G36*
X450641D02*
X445472D01*
Y120225D01*
X446393Y120346D01*
X447801Y120929D01*
X449010Y121857D01*
X449937Y123066D01*
X450520Y124473D01*
X450641Y125394D01*
D02*
G37*
G36*
X547874Y131633D02*
X546412Y131440D01*
X545050Y130876D01*
X543880Y129978D01*
X542982Y128808D01*
X542418Y127446D01*
X542226Y125984D01*
X542418Y124522D01*
X542982Y123160D01*
X543880Y121990D01*
X545050Y121093D01*
X546412Y120528D01*
X547874Y120336D01*
X549336Y120528D01*
X550698Y121093D01*
X551868Y121990D01*
X552766Y123160D01*
X553330Y124522D01*
X553522Y125984D01*
X553330Y127446D01*
X552766Y128808D01*
X551868Y129978D01*
X550698Y130876D01*
X549336Y131440D01*
X547874Y131633D01*
D02*
G37*
G36*
X421260Y149696D02*
X421229Y149683D01*
X421196Y149692D01*
X419961Y149571D01*
X419903Y149540D01*
X419837Y149546D01*
X418649Y149186D01*
X418598Y149144D01*
X418531Y149137D01*
X417437Y148552D01*
X417395Y148501D01*
X417331Y148482D01*
X416372Y147694D01*
X416341Y147636D01*
X416282Y147604D01*
X415495Y146645D01*
X415476Y146581D01*
X415424Y146539D01*
X414839Y145445D01*
X414833Y145379D01*
X414790Y145327D01*
X414430Y144140D01*
X414437Y144074D01*
X414405Y144015D01*
X414284Y142780D01*
X414303Y142717D01*
X414284Y142653D01*
X414405Y141418D01*
X414437Y141359D01*
X414430Y141293D01*
X414790Y140106D01*
X414833Y140054D01*
X414839Y139988D01*
X415424Y138894D01*
X415476Y138852D01*
X415495Y138788D01*
X416282Y137829D01*
X416341Y137797D01*
X416372Y137739D01*
X417331Y136952D01*
X417395Y136932D01*
X417437Y136881D01*
X418531Y136296D01*
X418598Y136289D01*
X418649Y136247D01*
X419837Y135887D01*
X419903Y135893D01*
X419961Y135862D01*
X421196Y135740D01*
X421229Y135750D01*
X421260Y135737D01*
X421291Y135750D01*
X421323Y135740D01*
X422558Y135862D01*
X422617Y135893D01*
X422683Y135887D01*
X423871Y136247D01*
X423922Y136289D01*
X423988Y136296D01*
X425083Y136881D01*
X425125Y136932D01*
X425188Y136952D01*
X426148Y137739D01*
X426179Y137797D01*
X426238Y137829D01*
X427025Y138788D01*
X427044Y138852D01*
X427096Y138894D01*
X427680Y139988D01*
X427687Y140054D01*
X427729Y140106D01*
X428089Y141293D01*
X428083Y141359D01*
X428114Y141418D01*
X428236Y142653D01*
X428217Y142717D01*
X428236Y142780D01*
X428114Y144015D01*
X428083Y144074D01*
X428089Y144140D01*
X427729Y145327D01*
X427687Y145379D01*
X427680Y145445D01*
X427096Y146539D01*
X427044Y146581D01*
X427025Y146645D01*
X426238Y147604D01*
X426179Y147636D01*
X426148Y147694D01*
X425188Y148482D01*
X425125Y148501D01*
X425083Y148552D01*
X423988Y149137D01*
X423922Y149144D01*
X423871Y149186D01*
X422683Y149546D01*
X422617Y149540D01*
X422558Y149571D01*
X421323Y149692D01*
X421291Y149683D01*
X421260Y149696D01*
D02*
G37*
G36*
X474882Y151633D02*
X473420Y151440D01*
X472058Y150876D01*
X470888Y149978D01*
X469990Y148808D01*
X469426Y147446D01*
X469234Y145984D01*
X469426Y144522D01*
X469990Y143160D01*
X470888Y141990D01*
X472058Y141093D01*
X473420Y140528D01*
X474882Y140336D01*
X476344Y140528D01*
X477706Y141093D01*
X478876Y141990D01*
X479774Y143160D01*
X480338Y144522D01*
X480530Y145984D01*
X480338Y147446D01*
X479774Y148808D01*
X478876Y149978D01*
X477706Y150876D01*
X476344Y151440D01*
X474882Y151633D01*
D02*
G37*
G36*
X631890Y184144D02*
X631858Y184132D01*
X631826Y184141D01*
X630591Y184020D01*
X630533Y183988D01*
X630466Y183995D01*
X629279Y183635D01*
X629227Y183592D01*
X629161Y183586D01*
X628067Y183001D01*
X628025Y182950D01*
X627961Y182930D01*
X627002Y182143D01*
X626971Y182085D01*
X626912Y182053D01*
X626125Y181094D01*
X626105Y181030D01*
X626054Y180988D01*
X625469Y179894D01*
X625463Y179828D01*
X625420Y179776D01*
X625060Y178589D01*
X625067Y178523D01*
X625035Y178464D01*
X624914Y177229D01*
X624933Y177165D01*
X624914Y177102D01*
X625035Y175867D01*
X625067Y175808D01*
X625060Y175742D01*
X625420Y174555D01*
X625463Y174503D01*
X625469Y174437D01*
X626054Y173343D01*
X626105Y173300D01*
X626125Y173237D01*
X626912Y172278D01*
X626971Y172246D01*
X627002Y172188D01*
X627961Y171400D01*
X628025Y171381D01*
X628067Y171330D01*
X629161Y170745D01*
X629227Y170738D01*
X629279Y170696D01*
X630466Y170336D01*
X630533Y170342D01*
X630591Y170311D01*
X631826Y170189D01*
X631858Y170199D01*
X631890Y170186D01*
X631921Y170199D01*
X631953Y170189D01*
X633188Y170311D01*
X633247Y170342D01*
X633313Y170336D01*
X634501Y170696D01*
X634552Y170738D01*
X634618Y170745D01*
X635712Y171330D01*
X635755Y171381D01*
X635818Y171400D01*
X636777Y172188D01*
X636809Y172246D01*
X636868Y172278D01*
X637655Y173237D01*
X637674Y173300D01*
X637725Y173343D01*
X638310Y174437D01*
X638317Y174503D01*
X638359Y174555D01*
X638719Y175742D01*
X638713Y175808D01*
X638744Y175867D01*
X638866Y177102D01*
X638846Y177165D01*
X638866Y177229D01*
X638744Y178464D01*
X638713Y178523D01*
X638719Y178589D01*
X638359Y179776D01*
X638317Y179828D01*
X638310Y179894D01*
X637725Y180988D01*
X637674Y181030D01*
X637655Y181094D01*
X636868Y182053D01*
X636809Y182085D01*
X636777Y182143D01*
X635818Y182930D01*
X635755Y182950D01*
X635712Y183001D01*
X634618Y183586D01*
X634552Y183592D01*
X634501Y183635D01*
X633313Y183995D01*
X633247Y183988D01*
X633188Y184020D01*
X631953Y184141D01*
X631921Y184132D01*
X631890Y184144D01*
D02*
G37*
G36*
X110236D02*
X110205Y184132D01*
X110173Y184141D01*
X108938Y184020D01*
X108879Y183988D01*
X108813Y183995D01*
X107625Y183635D01*
X107574Y183592D01*
X107508Y183586D01*
X106413Y183001D01*
X106371Y182950D01*
X106308Y182930D01*
X105349Y182143D01*
X105317Y182085D01*
X105258Y182053D01*
X104471Y181094D01*
X104452Y181030D01*
X104401Y180988D01*
X103816Y179894D01*
X103809Y179828D01*
X103767Y179776D01*
X103407Y178589D01*
X103413Y178523D01*
X103382Y178464D01*
X103260Y177229D01*
X103279Y177165D01*
X103260Y177102D01*
X103382Y175867D01*
X103413Y175808D01*
X103407Y175742D01*
X103767Y174555D01*
X103809Y174503D01*
X103816Y174437D01*
X104401Y173343D01*
X104452Y173300D01*
X104471Y173237D01*
X105258Y172278D01*
X105317Y172246D01*
X105349Y172188D01*
X106308Y171400D01*
X106371Y171381D01*
X106413Y171330D01*
X107508Y170745D01*
X107574Y170738D01*
X107625Y170696D01*
X108813Y170336D01*
X108879Y170342D01*
X108938Y170311D01*
X110173Y170189D01*
X110205Y170199D01*
X110236Y170186D01*
X110267Y170199D01*
X110300Y170189D01*
X111535Y170311D01*
X111593Y170342D01*
X111660Y170336D01*
X112847Y170696D01*
X112898Y170738D01*
X112965Y170745D01*
X114059Y171330D01*
X114101Y171381D01*
X114165Y171400D01*
X115124Y172188D01*
X115155Y172246D01*
X115214Y172278D01*
X116001Y173237D01*
X116021Y173300D01*
X116072Y173343D01*
X116657Y174437D01*
X116663Y174503D01*
X116706Y174555D01*
X117066Y175742D01*
X117059Y175808D01*
X117091Y175867D01*
X117212Y177102D01*
X117193Y177165D01*
X117212Y177229D01*
X117091Y178464D01*
X117059Y178523D01*
X117066Y178589D01*
X116706Y179776D01*
X116663Y179828D01*
X116657Y179894D01*
X116072Y180988D01*
X116021Y181030D01*
X116001Y181094D01*
X115214Y182053D01*
X115155Y182085D01*
X115124Y182143D01*
X114165Y182930D01*
X114101Y182950D01*
X114059Y183001D01*
X112965Y183586D01*
X112898Y183592D01*
X112847Y183635D01*
X111660Y183995D01*
X111593Y183988D01*
X111535Y184020D01*
X110300Y184141D01*
X110267Y184132D01*
X110236Y184144D01*
D02*
G37*
G36*
X445472Y131744D02*
Y126575D01*
X450641D01*
X450520Y127495D01*
X449937Y128903D01*
X449010Y130112D01*
X447801Y131040D01*
X446393Y131623D01*
X445472Y131744D01*
D02*
G37*
G36*
X610866Y131633D02*
X609404Y131440D01*
X608042Y130876D01*
X606872Y129978D01*
X605974Y128808D01*
X605410Y127446D01*
X605218Y125984D01*
X605410Y124522D01*
X605974Y123160D01*
X606872Y121990D01*
X608042Y121093D01*
X609404Y120528D01*
X610866Y120336D01*
X612328Y120528D01*
X613690Y121093D01*
X614860Y121990D01*
X615758Y123160D01*
X616322Y124522D01*
X616514Y125984D01*
X616322Y127446D01*
X615758Y128808D01*
X614860Y129978D01*
X613690Y130876D01*
X612328Y131440D01*
X610866Y131633D01*
D02*
G37*
G36*
X444291Y131744D02*
X443371Y131623D01*
X441963Y131040D01*
X440754Y130112D01*
X439827Y128903D01*
X439244Y127495D01*
X439122Y126575D01*
X444291D01*
Y131744D01*
D02*
G37*
G36*
X508464Y131744D02*
Y126575D01*
X513634D01*
X513513Y127495D01*
X512929Y128903D01*
X512002Y130112D01*
X510793Y131040D01*
X509385Y131623D01*
X508464Y131744D01*
D02*
G37*
G36*
X507283Y131744D02*
X506363Y131623D01*
X504955Y131040D01*
X503746Y130112D01*
X502819Y128903D01*
X502236Y127495D01*
X502114Y126575D01*
X507283D01*
Y131744D01*
D02*
G37*
G36*
X571457D02*
Y126575D01*
X576626D01*
X576505Y127495D01*
X575921Y128903D01*
X574994Y130112D01*
X573785Y131040D01*
X572377Y131623D01*
X571457Y131744D01*
D02*
G37*
G36*
X570276Y131744D02*
X569355Y131623D01*
X567947Y131040D01*
X566739Y130112D01*
X565811Y128903D01*
X565228Y127495D01*
X565106Y126575D01*
X570276D01*
Y131744D01*
D02*
G37*
G36*
X295905Y131633D02*
X294444Y131440D01*
X293081Y130876D01*
X291912Y129978D01*
X291014Y128808D01*
X290450Y127446D01*
X290257Y125984D01*
X290450Y124522D01*
X291014Y123160D01*
X291912Y121990D01*
X293081Y121093D01*
X294444Y120528D01*
X295905Y120336D01*
X297367Y120528D01*
X298730Y121093D01*
X299900Y121990D01*
X300797Y123160D01*
X301361Y124522D01*
X301554Y125984D01*
X301361Y127446D01*
X300797Y128808D01*
X299900Y129978D01*
X298730Y130876D01*
X297367Y131440D01*
X295905Y131633D01*
D02*
G37*
G36*
X318898Y149696D02*
X318866Y149683D01*
X318834Y149692D01*
X317599Y149571D01*
X317541Y149540D01*
X317474Y149546D01*
X316287Y149186D01*
X316235Y149144D01*
X316169Y149137D01*
X315075Y148552D01*
X315033Y148501D01*
X314969Y148482D01*
X314010Y147694D01*
X313979Y147636D01*
X313920Y147604D01*
X313133Y146645D01*
X313113Y146581D01*
X313062Y146539D01*
X312477Y145445D01*
X312471Y145379D01*
X312428Y145327D01*
X312068Y144140D01*
X312075Y144074D01*
X312043Y144015D01*
X311922Y142780D01*
X311941Y142717D01*
X311922Y142653D01*
X312043Y141418D01*
X312075Y141359D01*
X312068Y141293D01*
X312428Y140106D01*
X312471Y140054D01*
X312477Y139988D01*
X313062Y138894D01*
X313113Y138852D01*
X313133Y138788D01*
X313920Y137829D01*
X313979Y137797D01*
X314010Y137739D01*
X314969Y136952D01*
X315033Y136932D01*
X315075Y136881D01*
X316169Y136296D01*
X316235Y136289D01*
X316287Y136247D01*
X317474Y135887D01*
X317541Y135893D01*
X317599Y135862D01*
X318834Y135740D01*
X318866Y135750D01*
X318898Y135737D01*
X318929Y135750D01*
X318961Y135740D01*
X320196Y135862D01*
X320255Y135893D01*
X320321Y135887D01*
X321508Y136247D01*
X321560Y136289D01*
X321626Y136296D01*
X322720Y136881D01*
X322763Y136932D01*
X322826Y136952D01*
X323785Y137739D01*
X323817Y137797D01*
X323875Y137829D01*
X324663Y138788D01*
X324682Y138852D01*
X324733Y138894D01*
X325318Y139988D01*
X325325Y140054D01*
X325367Y140106D01*
X325727Y141293D01*
X325721Y141359D01*
X325752Y141418D01*
X325874Y142653D01*
X325854Y142717D01*
X325874Y142780D01*
X325752Y144015D01*
X325721Y144074D01*
X325727Y144140D01*
X325367Y145327D01*
X325325Y145379D01*
X325318Y145445D01*
X324733Y146539D01*
X324682Y146581D01*
X324663Y146645D01*
X323875Y147604D01*
X323817Y147636D01*
X323785Y147694D01*
X322826Y148482D01*
X322763Y148501D01*
X322720Y148552D01*
X321626Y149137D01*
X321560Y149144D01*
X321508Y149186D01*
X320321Y149546D01*
X320255Y149540D01*
X320196Y149571D01*
X318961Y149692D01*
X318929Y149683D01*
X318898Y149696D01*
D02*
G37*
G36*
X285906Y151633D02*
X284444Y151440D01*
X283081Y150876D01*
X281911Y149978D01*
X281014Y148808D01*
X280450Y147446D01*
X280257Y145984D01*
X280450Y144522D01*
X281014Y143160D01*
X281911Y141990D01*
X283081Y141093D01*
X284444Y140528D01*
X285906Y140336D01*
X287367Y140528D01*
X288730Y141093D01*
X289899Y141990D01*
X290797Y143160D01*
X291361Y144522D01*
X291554Y145984D01*
X291361Y147446D01*
X290797Y148808D01*
X289899Y149978D01*
X288730Y150876D01*
X287367Y151440D01*
X285906Y151633D01*
D02*
G37*
G36*
X230591Y108695D02*
Y105591D01*
X233695D01*
X233644Y105976D01*
X233267Y106886D01*
X232667Y107668D01*
X231886Y108267D01*
X230976Y108644D01*
X230591Y108695D01*
D02*
G37*
G36*
X229410D02*
X229024Y108644D01*
X228114Y108267D01*
X227332Y107668D01*
X226733Y106886D01*
X226356Y105976D01*
X226305Y105591D01*
X229410D01*
Y108695D01*
D02*
G37*
G36*
X223504Y151744D02*
Y146575D01*
X228673D01*
X228552Y147495D01*
X227969Y148903D01*
X227041Y150112D01*
X225832Y151040D01*
X224424Y151623D01*
X223504Y151744D01*
D02*
G37*
G36*
X222323D02*
X221403Y151623D01*
X219995Y151040D01*
X218786Y150112D01*
X217858Y148903D01*
X217275Y147495D01*
X217154Y146575D01*
X222323D01*
Y151744D01*
D02*
G37*
G36*
X228673Y145394D02*
X223504D01*
Y140225D01*
X224424Y140346D01*
X225832Y140929D01*
X227041Y141857D01*
X227969Y143066D01*
X228552Y144473D01*
X228673Y145394D01*
D02*
G37*
G36*
X222323D02*
X217154D01*
X217275Y144473D01*
X217858Y143066D01*
X218786Y141857D01*
X219995Y140929D01*
X221403Y140346D01*
X222323Y140225D01*
Y145394D01*
D02*
G37*
G36*
X369076Y169155D02*
X368717D01*
Y167241D01*
Y165328D01*
X369076D01*
X369598Y165431D01*
X370040Y165727D01*
X370331Y166162D01*
X370375Y166170D01*
X370800Y166169D01*
X370844Y166161D01*
X371134Y165727D01*
X371577Y165431D01*
X372098Y165328D01*
X372458D01*
Y167241D01*
Y169155D01*
X372098D01*
X371577Y169051D01*
X371134Y168755D01*
X370844Y168321D01*
X370800Y168313D01*
X370374Y168313D01*
X370331Y168321D01*
X370040Y168755D01*
X369598Y169051D01*
X369076Y169155D01*
D02*
G37*
G36*
X362614D02*
X362255D01*
X361733Y169051D01*
X361291Y168755D01*
X361001Y168323D01*
X360948Y168313D01*
X360540D01*
X360487Y168323D01*
X360198Y168755D01*
X359755Y169051D01*
X359233Y169155D01*
X358874D01*
Y167241D01*
Y165328D01*
X359233D01*
X359755Y165431D01*
X360198Y165727D01*
X360487Y166160D01*
X360540Y166170D01*
X360948D01*
X361001Y166160D01*
X361291Y165727D01*
X361733Y165431D01*
X362255Y165328D01*
X362614D01*
Y167241D01*
Y169155D01*
D02*
G37*
G36*
X357693D02*
X357333D01*
X356812Y169051D01*
X356369Y168755D01*
X356080Y168323D01*
X356027Y168313D01*
X355619D01*
X355566Y168323D01*
X355276Y168755D01*
X354834Y169051D01*
X354312Y169155D01*
X353953D01*
Y167241D01*
Y165328D01*
X354312D01*
X354834Y165431D01*
X355276Y165727D01*
X355566Y166160D01*
X355619Y166170D01*
X356027D01*
X356080Y166160D01*
X356369Y165727D01*
X356812Y165431D01*
X357333Y165328D01*
X357693D01*
Y167241D01*
Y169155D01*
D02*
G37*
G36*
X352772D02*
X352412D01*
X351890Y169051D01*
X351448Y168755D01*
X351159Y168323D01*
X351105Y168313D01*
X350698D01*
X350644Y168323D01*
X350355Y168755D01*
X349913Y169051D01*
X349391Y169155D01*
X349031D01*
Y167241D01*
Y165328D01*
X349391D01*
X349913Y165431D01*
X350355Y165727D01*
X350644Y166160D01*
X350698Y166170D01*
X351105D01*
X351159Y166160D01*
X351448Y165727D01*
X351890Y165431D01*
X352412Y165328D01*
X352772D01*
Y167241D01*
Y169155D01*
D02*
G37*
G36*
X367535D02*
X367176D01*
X366654Y169051D01*
X366212Y168755D01*
X365922Y168323D01*
X365869Y168313D01*
X365462D01*
X365408Y168323D01*
X365119Y168755D01*
X364676Y169051D01*
X364155Y169155D01*
X363795D01*
Y167241D01*
Y165328D01*
X364155D01*
X364676Y165431D01*
X365119Y165727D01*
X365408Y166160D01*
X365462Y166170D01*
X365869D01*
X365922Y166160D01*
X366212Y165727D01*
X366654Y165431D01*
X367176Y165328D01*
X367535D01*
Y167241D01*
Y169155D01*
D02*
G37*
G36*
X373998Y169155D02*
X373639D01*
Y167832D01*
X375354D01*
X375258Y168313D01*
X374963Y168755D01*
X374520Y169051D01*
X373998Y169155D01*
D02*
G37*
G36*
X338008Y166651D02*
X336293D01*
X336389Y166170D01*
X336684Y165727D01*
X337127Y165431D01*
X337648Y165328D01*
X338008D01*
Y166651D01*
D02*
G37*
G36*
X375354Y166651D02*
X373639D01*
Y165328D01*
X373998D01*
X374520Y165431D01*
X374963Y165727D01*
X375258Y166169D01*
X375354Y166651D01*
D02*
G37*
G36*
X347850Y169155D02*
X347491D01*
X346969Y169051D01*
X346527Y168755D01*
X346237Y168323D01*
X346184Y168313D01*
X345777D01*
X345723Y168323D01*
X345434Y168755D01*
X344991Y169051D01*
X344470Y169155D01*
X344110D01*
Y167241D01*
Y165328D01*
X344470D01*
X344991Y165431D01*
X345434Y165727D01*
X345723Y166160D01*
X345777Y166170D01*
X346184D01*
X346237Y166160D01*
X346527Y165727D01*
X346969Y165431D01*
X347491Y165328D01*
X347850D01*
Y167241D01*
Y169155D01*
D02*
G37*
G36*
X342929D02*
X342570D01*
X342048Y169051D01*
X341605Y168755D01*
X341316Y168323D01*
X341263Y168313D01*
X340855D01*
X340802Y168323D01*
X340513Y168755D01*
X340070Y169051D01*
X339548Y169155D01*
X339189D01*
Y167241D01*
Y165328D01*
X339548D01*
X340070Y165431D01*
X340513Y165727D01*
X340802Y166160D01*
X340855Y166170D01*
X341263D01*
X341316Y166160D01*
X341605Y165727D01*
X342048Y165431D01*
X342570Y165328D01*
X342929D01*
Y167241D01*
Y169155D01*
D02*
G37*
G36*
X338008D02*
X337648D01*
X337127Y169051D01*
X336684Y168755D01*
X336389Y168313D01*
X336293Y167832D01*
X338008D01*
Y169155D01*
D02*
G37*
G36*
X393667Y124898D02*
X393307D01*
Y123575D01*
X395022D01*
X394926Y124056D01*
X394631Y124498D01*
X394188Y124794D01*
X393667Y124898D01*
D02*
G37*
G36*
X377362D02*
X377003D01*
X376481Y124794D01*
X376039Y124498D01*
X375743Y124056D01*
X375647Y123575D01*
X377362D01*
Y124898D01*
D02*
G37*
G36*
X346457Y129035D02*
X343009D01*
X343325Y128562D01*
X343814Y128235D01*
X344390Y128121D01*
X346457D01*
Y129035D01*
D02*
G37*
G36*
X384299Y135770D02*
Y134055D01*
X385622D01*
Y134415D01*
X385519Y134936D01*
X385223Y135379D01*
X384781Y135674D01*
X384299Y135770D01*
D02*
G37*
G36*
X383118Y135770D02*
X382637Y135674D01*
X382194Y135379D01*
X381899Y134936D01*
X381795Y134415D01*
Y134055D01*
X383118D01*
Y135770D01*
D02*
G37*
G36*
X351086Y129035D02*
X347638D01*
Y128121D01*
X349705D01*
X350281Y128235D01*
X350769Y128562D01*
X351086Y129035D01*
D02*
G37*
%LPD*%
D10*
X419166Y116064D02*
X421260Y118157D01*
X414442Y116064D02*
X419166D01*
X411598Y118907D02*
X414442Y116064D01*
X324232Y120294D02*
X412173D01*
X324813Y118907D02*
X411598D01*
X414310Y118157D02*
X416339D01*
X412173Y120294D02*
X414310Y118157D01*
X414292Y114251D02*
X422275D01*
X411024Y117520D02*
X414292Y114251D01*
X325394Y117520D02*
X411024D01*
X320000Y112126D02*
X325394Y117520D01*
X310906Y105000D02*
X324813Y118907D01*
X313329Y109392D02*
X324232Y120294D01*
X320000Y105000D02*
Y112126D01*
X304392Y109392D02*
X313329D01*
X310000Y105000D02*
X310906D01*
X300000D02*
X304392Y109392D01*
X272637Y118110D02*
Y119691D01*
X247477Y144851D02*
X272637Y119691D01*
X246902Y143464D02*
X268701Y121665D01*
Y118110D02*
Y121665D01*
X238017Y143464D02*
X246902D01*
X241661Y144851D02*
X247477D01*
X247345Y146945D02*
X268306Y125984D01*
X244488Y146945D02*
X247345D01*
X268306Y125984D02*
X275905D01*
X234646Y146835D02*
X238017Y143464D01*
X239567Y146945D02*
X241661Y144851D01*
X420245Y126891D02*
X431890D01*
X416339Y122984D02*
X420245Y126891D01*
X422047Y125197D02*
X429834D01*
X421260Y124409D02*
X422047Y125197D01*
X421260Y122984D02*
Y124409D01*
X422275Y114251D02*
X426181Y118157D01*
D11*
X353362Y174803D02*
X474803D01*
X285827D02*
X353362D01*
X537442Y159055D02*
X587795D01*
X474803Y174803D02*
X521694D01*
X537874Y145984D02*
Y158623D01*
X587795Y159055D02*
X600866Y145984D01*
X521694Y174803D02*
X537442Y159055D01*
X222835Y174803D02*
X285827D01*
X285906Y174724D01*
X159843Y174803D02*
X222835D01*
X138976D02*
X159843D01*
X159921Y174724D01*
Y145984D02*
Y174724D01*
X118622Y154449D02*
X138976Y174803D01*
X108268Y154449D02*
X118622D01*
D12*
X195669Y137008D02*
Y158268D01*
Y137008D02*
X203564Y129113D01*
Y121842D02*
Y129113D01*
X220000Y105000D02*
Y111693D01*
X218021Y113671D02*
X220000Y111693D01*
X211734Y113671D02*
X218021D01*
X203564Y121842D02*
X211734Y113671D01*
X399606Y128984D02*
Y152362D01*
D13*
X213779Y117323D02*
X219104Y122648D01*
X332185Y137303D02*
X347047D01*
X310039Y115157D02*
X332185Y137303D01*
X260827Y115157D02*
X310039D01*
X332579Y134744D02*
X347047D01*
X311024Y113189D02*
X332579Y134744D01*
X262330Y113189D02*
X311024D01*
X332973Y132185D02*
X347047D01*
X312008Y111221D02*
X332973Y132185D01*
X266220Y111221D02*
X312008D01*
X255906Y110236D02*
X260827Y115157D01*
X254140Y105000D02*
X262330Y113189D01*
X260000Y105000D02*
X266220Y111221D01*
X248031Y110236D02*
X255906D01*
X242795Y105000D02*
X248031Y110236D01*
X375590Y133465D02*
X377709D01*
X374311Y132185D02*
X375590Y133465D01*
X369488Y132185D02*
X374311D01*
X439961Y155905D02*
X454882Y140984D01*
X398582Y155905D02*
X439961D01*
X382539Y139862D02*
X398582Y155905D01*
X398031Y157874D02*
X447992D01*
X396550Y159655D02*
X499203D01*
X395535Y161436D02*
X507422D01*
X394797Y163217D02*
X513554D01*
X393795Y164998D02*
X514292D01*
X392792Y166779D02*
X515030D01*
X391789Y168561D02*
X515768D01*
X382579Y142421D02*
X398031Y157874D01*
X381004Y157776D02*
X391789Y168561D01*
X515768D02*
X529134Y155194D01*
X381229Y155217D02*
X392792Y166779D01*
X515030D02*
X527353Y154457D01*
X381454Y152657D02*
X393795Y164998D01*
X514292D02*
X525572Y153719D01*
X381679Y150098D02*
X394797Y163217D01*
X513554D02*
X523791Y152981D01*
X381638Y147539D02*
X395535Y161436D01*
X507422D02*
X517874Y150984D01*
X381875Y144980D02*
X396550Y159655D01*
X499203D02*
X517874Y140984D01*
X447992Y157874D02*
X454882Y150984D01*
X244488Y156787D02*
X248331D01*
X244488Y156787D02*
X244488Y156787D01*
X239567Y156787D02*
X244488D01*
X239520Y156835D02*
X239567Y156787D01*
X234646Y156835D02*
X239520D01*
X204331Y114173D02*
X205512D01*
X202756Y112598D02*
X204331Y114173D01*
X219104Y122648D02*
Y128549D01*
X213779Y117323D02*
Y117716D01*
X163307Y112598D02*
X202756D01*
X149921Y125984D02*
X163307Y112598D01*
X191962Y168416D02*
X225037D01*
X328753Y168494D02*
X339372Y157876D01*
X225116Y168494D02*
X328753D01*
X225037Y168416D02*
X225116Y168494D01*
X163122Y139576D02*
X191962Y168416D01*
X192699Y166635D02*
X225775D01*
X327750Y166713D02*
X339247Y155217D01*
X225854Y166713D02*
X327750D01*
X225775Y166635D02*
X225854Y166713D01*
X163860Y137795D02*
X192699Y166635D01*
X193437Y164854D02*
X226513D01*
X326748Y164932D02*
X339022Y152657D01*
X226591Y164932D02*
X326748D01*
X226513Y164854D02*
X226591Y164932D01*
X164410Y135827D02*
X193437Y164854D01*
X194175Y163072D02*
X227251D01*
X325745Y163151D02*
X338798Y150098D01*
X227329Y163151D02*
X325745D01*
X227251Y163072D02*
X227329Y163151D01*
X164961Y133858D02*
X194175Y163072D01*
X213221Y161291D02*
X227988D01*
X325007Y161370D02*
X338838Y147539D01*
X228067Y161370D02*
X325007D01*
X227988Y161291D02*
X228067Y161370D01*
X202913Y150984D02*
X213221Y161291D01*
X215022Y159510D02*
X228726D01*
X324269Y159589D02*
X338878Y144980D01*
X228805Y159589D02*
X324269D01*
X228726Y159510D02*
X228805Y159589D01*
X207933Y152421D02*
X215022Y159510D01*
X230029Y157490D02*
X232975Y154544D01*
X217176Y157490D02*
X230029D01*
X212913Y153227D02*
X217176Y157490D01*
X212913Y125984D02*
Y153227D01*
X323532Y157808D02*
X338918Y142421D01*
X272729Y157808D02*
X323532D01*
X265905Y150984D02*
X272729Y157808D01*
X322713Y156027D02*
X338878Y139862D01*
X280948Y156027D02*
X322713D01*
X265905Y140984D02*
X280948Y156027D01*
X207933Y146003D02*
Y152421D01*
X217913Y155709D02*
X229291D01*
X214961Y152756D02*
X217913Y155709D01*
X214961Y132692D02*
Y152756D01*
X234165Y150835D02*
X234646D01*
X229291Y155709D02*
X234165Y150835D01*
X232975Y154544D02*
X235810D01*
X239567Y150787D01*
X214961Y132692D02*
X219104Y128549D01*
X234646Y146835D02*
Y150835D01*
X239567Y146945D02*
Y150787D01*
X244488Y146945D02*
Y150787D01*
X369488Y139862D02*
X382539D01*
X369488Y142421D02*
X382579D01*
X369488Y144980D02*
X381875D01*
X369488Y147539D02*
X381638D01*
X369488Y150098D02*
X381679D01*
X369488Y152657D02*
X381454D01*
X369488Y155217D02*
X381229D01*
X369488Y157776D02*
X381004D01*
X338878Y139862D02*
X347047D01*
X338918Y142421D02*
X347047D01*
X338878Y144980D02*
X347047D01*
X338838Y147539D02*
X347047D01*
X338798Y150098D02*
X347047D01*
X339022Y152657D02*
X347047D01*
X339247Y155217D02*
X347047D01*
X346947Y157876D02*
X347047Y157776D01*
X339372Y157876D02*
X346947D01*
X139921Y150236D02*
Y150984D01*
X150581Y139576D02*
X163122D01*
X139921Y150236D02*
X150581Y139576D01*
X147638Y137795D02*
X163860D01*
X139921Y140984D02*
X144449D01*
X147638Y137795D01*
X117717Y135827D02*
X164410D01*
X108780Y126890D02*
X117717Y135827D01*
X108268Y126890D02*
X108780D01*
X118898Y133858D02*
X164961D01*
X114567Y129528D02*
X118898Y133858D01*
X114567Y125984D02*
Y129528D01*
X103140Y159321D02*
X108268Y164449D01*
X110582Y121999D02*
X114567Y125984D01*
X106076Y121999D02*
X110582D01*
X103140Y124935D02*
Y159321D01*
Y124935D02*
X106076Y121999D01*
X202913Y140984D02*
X207933Y146003D01*
X529134Y144171D02*
Y155194D01*
X568858Y138976D02*
X580866Y150984D01*
X534328Y138976D02*
X568858D01*
X529134Y144171D02*
X534328Y138976D01*
X574055Y140984D02*
X580866D01*
X570866Y137795D02*
X574055Y140984D01*
X570196Y137795D02*
X570866D01*
X569596Y137195D02*
X570196Y137795D01*
X533590Y137195D02*
X569596D01*
X527353Y143433D02*
X533590Y137195D01*
X527353Y143433D02*
Y154457D01*
X570334Y135414D02*
X570746Y135827D01*
X620079D01*
X525572Y142695D02*
X532853Y135414D01*
X570334D01*
X629016Y126890D02*
X632874D01*
X620079Y135827D02*
X629016Y126890D01*
X525572Y142695D02*
Y153719D01*
X632874Y164370D02*
Y164449D01*
Y164370D02*
X637795Y159449D01*
X571071Y133633D02*
X571297Y133858D01*
X618110D01*
X637795Y124895D02*
Y159449D01*
X634900Y121999D02*
X637795Y124895D01*
X618110Y133858D02*
X629969Y121999D01*
X634900D01*
X523791Y141957D02*
X532115Y133633D01*
X571071D01*
X523791Y141957D02*
Y152981D01*
X416339Y118157D02*
Y122984D01*
X456614Y117717D02*
X464882Y125984D01*
X441064Y117717D02*
X456614D01*
X431890Y126891D02*
X441064Y117717D01*
X516955Y115065D02*
X527874Y125984D01*
X439965Y115065D02*
X516955D01*
X429834Y125197D02*
X439965Y115065D01*
X421260Y118157D02*
Y122984D01*
X426181D02*
X428590D01*
X426181Y118157D02*
Y122984D01*
X577503Y112621D02*
X590866Y125984D01*
X438953Y112621D02*
X577503D01*
X428590Y122984D02*
X438953Y112621D01*
X240000Y105000D02*
X242795D01*
X250000D02*
X254140D01*
D14*
X632874Y164449D02*
D03*
Y154449D02*
D03*
Y126890D02*
D03*
Y136890D02*
D03*
X108268Y164449D02*
D03*
Y154449D02*
D03*
Y126890D02*
D03*
Y136890D02*
D03*
D15*
X320000Y105000D02*
D03*
X310000D02*
D03*
X300000D02*
D03*
X290000D02*
D03*
X280000D02*
D03*
X270000D02*
D03*
X260000D02*
D03*
X250000D02*
D03*
X240000D02*
D03*
X230000D02*
D03*
X220000D02*
D03*
D16*
X210000D02*
D03*
D17*
X139921Y140984D02*
D03*
Y150984D02*
D03*
X202913Y140984D02*
D03*
Y150984D02*
D03*
X265905Y140984D02*
D03*
Y150984D02*
D03*
X454882Y140984D02*
D03*
Y150984D02*
D03*
X517874Y140984D02*
D03*
Y150984D02*
D03*
X580866Y140984D02*
D03*
Y150984D02*
D03*
D18*
X159921Y145984D02*
D03*
X169921Y125984D02*
D03*
X149921D02*
D03*
X129921D02*
D03*
X222913Y145984D02*
D03*
X232913Y125984D02*
D03*
X212913D02*
D03*
X192913D02*
D03*
X285906Y145984D02*
D03*
X295905Y125984D02*
D03*
X275905D02*
D03*
X255906D02*
D03*
X474882Y145984D02*
D03*
X484882Y125984D02*
D03*
X464882D02*
D03*
X444882D02*
D03*
X537874Y145984D02*
D03*
X547874Y125984D02*
D03*
X527874D02*
D03*
X507874D02*
D03*
X600866Y145984D02*
D03*
X610866Y125984D02*
D03*
X590866D02*
D03*
X570866D02*
D03*
D19*
X185039Y136811D02*
D03*
Y141732D02*
D03*
Y146653D02*
D03*
X360433Y150197D02*
D03*
X356102D02*
D03*
X360433Y145866D02*
D03*
X356102D02*
D03*
X360433Y141535D02*
D03*
X356102D02*
D03*
X360433Y137205D02*
D03*
X356102D02*
D03*
X244094Y136811D02*
D03*
X239173D02*
D03*
X234252D02*
D03*
X387795Y133858D02*
D03*
X374016Y123031D02*
D03*
X397638D02*
D03*
X426181Y107283D02*
D03*
X421260D02*
D03*
X416339D02*
D03*
X272637Y118110D02*
D03*
X268701Y118110D02*
D03*
X474803Y174803D02*
D03*
X399606Y152362D02*
D03*
X248331Y156787D02*
D03*
X285906Y174724D02*
D03*
X205512Y114173D02*
D03*
X213779Y117716D02*
D03*
X195669Y158268D02*
D03*
X222835Y174803D02*
D03*
D20*
X377709Y133465D02*
D03*
X383709D02*
D03*
X189913Y151575D02*
D03*
X195913D02*
D03*
X189913Y146653D02*
D03*
X195913D02*
D03*
X189913Y141732D02*
D03*
X195913D02*
D03*
X189913Y136811D02*
D03*
X195913D02*
D03*
D21*
X373048Y167241D02*
D03*
Y173241D02*
D03*
X368126Y167241D02*
D03*
Y173241D02*
D03*
X363205Y167241D02*
D03*
Y173241D02*
D03*
X358283Y167241D02*
D03*
Y173241D02*
D03*
X353362Y167241D02*
D03*
Y173241D02*
D03*
X348441Y167241D02*
D03*
Y173241D02*
D03*
X343520Y167241D02*
D03*
Y173241D02*
D03*
X338598Y167241D02*
D03*
Y173241D02*
D03*
X234646Y150835D02*
D03*
Y156835D02*
D03*
X239567Y150787D02*
D03*
Y156787D02*
D03*
X244488Y150787D02*
D03*
Y156787D02*
D03*
X234646Y140835D02*
D03*
Y146835D02*
D03*
X239567Y140945D02*
D03*
Y146945D02*
D03*
X244488Y140945D02*
D03*
Y146945D02*
D03*
X416339Y112157D02*
D03*
Y118157D02*
D03*
X426181Y112157D02*
D03*
Y118157D02*
D03*
X416339Y122984D02*
D03*
Y128984D02*
D03*
X421260Y122984D02*
D03*
Y128984D02*
D03*
X426181Y122984D02*
D03*
Y128984D02*
D03*
X377953Y122984D02*
D03*
Y128984D02*
D03*
X382874Y122984D02*
D03*
Y128984D02*
D03*
X387795Y122984D02*
D03*
Y128984D02*
D03*
X392717Y122984D02*
D03*
Y128984D02*
D03*
X421260Y112157D02*
D03*
Y118157D02*
D03*
D22*
X358268Y143701D02*
D03*
D23*
X369488Y157776D02*
D03*
Y155217D02*
D03*
Y152657D02*
D03*
Y150098D02*
D03*
Y147539D02*
D03*
Y144980D02*
D03*
Y142421D02*
D03*
Y139862D02*
D03*
Y137303D02*
D03*
Y134744D02*
D03*
Y132185D02*
D03*
Y129626D02*
D03*
X347047Y157776D02*
D03*
Y155217D02*
D03*
Y152657D02*
D03*
Y150098D02*
D03*
Y147539D02*
D03*
Y144980D02*
D03*
Y142421D02*
D03*
Y139862D02*
D03*
Y137303D02*
D03*
Y134744D02*
D03*
Y132185D02*
D03*
Y129626D02*
D03*
D24*
X392717Y128984D02*
X399606D01*
X416339D01*
X421260D02*
X426181D01*
X416339D02*
X421260D01*
X369488Y129626D02*
X370130Y128984D01*
X377953D01*
X382874D01*
X387795D01*
X392717D01*
D25*
X108268Y136890D02*
Y154449D01*
X632874Y136890D02*
Y137520D01*
X624409Y145984D02*
X632874Y137520D01*
X624409Y145984D02*
X632874Y154449D01*
X600866Y145984D02*
X624409D01*
M02*
