G04 Layer_Color=8388736*
%FSLAX25Y25*%
%MOIN*%
G70*
G01*
G75*
G04:AMPARAMS|DCode=67|XSize=36mil|YSize=28mil|CornerRadius=8.5mil|HoleSize=0mil|Usage=FLASHONLY|Rotation=180.000|XOffset=0mil|YOffset=0mil|HoleType=Round|Shape=RoundedRectangle|*
%AMROUNDEDRECTD67*
21,1,0.03600,0.01100,0,0,180.0*
21,1,0.01900,0.02800,0,0,180.0*
1,1,0.01700,-0.00950,0.00550*
1,1,0.01700,0.00950,0.00550*
1,1,0.01700,0.00950,-0.00550*
1,1,0.01700,-0.00950,-0.00550*
%
%ADD67ROUNDEDRECTD67*%
%ADD68O,0.06309X0.02962*%
%ADD69O,0.07087X0.02165*%
%ADD70R,0.06781X0.08041*%
G04:AMPARAMS|DCode=71|XSize=36mil|YSize=28mil|CornerRadius=8.5mil|HoleSize=0mil|Usage=FLASHONLY|Rotation=270.000|XOffset=0mil|YOffset=0mil|HoleType=Round|Shape=RoundedRectangle|*
%AMROUNDEDRECTD71*
21,1,0.03600,0.01100,0,0,270.0*
21,1,0.01900,0.02800,0,0,270.0*
1,1,0.01700,-0.00550,-0.00950*
1,1,0.01700,-0.00550,0.00950*
1,1,0.01700,0.00550,0.00950*
1,1,0.01700,0.00550,-0.00950*
%
%ADD71ROUNDEDRECTD71*%
G04:AMPARAMS|DCode=72|XSize=56mil|YSize=30mil|CornerRadius=9mil|HoleSize=0mil|Usage=FLASHONLY|Rotation=180.000|XOffset=0mil|YOffset=0mil|HoleType=Round|Shape=RoundedRectangle|*
%AMROUNDEDRECTD72*
21,1,0.05600,0.01200,0,0,180.0*
21,1,0.03800,0.03000,0,0,180.0*
1,1,0.01800,-0.01900,0.00600*
1,1,0.01800,0.01900,0.00600*
1,1,0.01800,0.01900,-0.00600*
1,1,0.01800,-0.01900,-0.00600*
%
%ADD72ROUNDEDRECTD72*%
%ADD73R,0.08031X0.03701*%
%ADD74R,0.02126X0.02323*%
G04:AMPARAMS|DCode=75|XSize=56mil|YSize=30mil|CornerRadius=9mil|HoleSize=0mil|Usage=FLASHONLY|Rotation=90.000|XOffset=0mil|YOffset=0mil|HoleType=Round|Shape=RoundedRectangle|*
%AMROUNDEDRECTD75*
21,1,0.05600,0.01200,0,0,90.0*
21,1,0.03800,0.03000,0,0,90.0*
1,1,0.01800,0.00600,0.01900*
1,1,0.01800,0.00600,-0.01900*
1,1,0.01800,-0.00600,-0.01900*
1,1,0.01800,-0.00600,0.01900*
%
%ADD75ROUNDEDRECTD75*%
%ADD76O,0.09261X0.01978*%
%ADD77O,0.05758X0.03159*%
%ADD78R,0.14183X0.07687*%
%ADD79R,0.05324X0.05324*%
%ADD80R,0.05324X0.05324*%
%ADD81R,0.03758X0.04427*%
%ADD82R,0.03986X0.10088*%
%ADD83R,0.36529X0.53238*%
%ADD84R,0.01496X0.02363*%
%ADD85R,0.01496X0.02362*%
%ADD86R,0.18513X0.09655*%
%ADD87C,0.00600*%
%ADD88C,0.07600*%
%ADD89R,0.06506X0.06506*%
%ADD90C,0.06506*%
%ADD91C,0.06300*%
%ADD92C,0.08080*%
%ADD93R,0.08080X0.08080*%
%ADD94C,0.05718*%
%ADD95R,0.05718X0.05718*%
%ADD96R,0.08080X0.08080*%
%ADD97C,0.28159*%
%ADD98C,0.03356*%
G36*
X413636Y119929D02*
X416142D01*
Y118945D01*
X413636D01*
Y117961D01*
X416142D01*
Y116976D01*
X413636D01*
Y116431D01*
X405262D01*
Y116976D01*
X402756D01*
Y117961D01*
X405262D01*
Y118945D01*
X402756D01*
Y119929D01*
X405262D01*
Y120474D01*
X413636D01*
Y119929D01*
D02*
G37*
G36*
X490407D02*
X492913D01*
Y118945D01*
X490407D01*
Y117961D01*
X492913D01*
Y116976D01*
X490407D01*
Y116431D01*
X482033D01*
Y116976D01*
X479528D01*
Y117961D01*
X482033D01*
Y118945D01*
X479528D01*
Y119929D01*
X482033D01*
Y120474D01*
X490407D01*
Y119929D01*
D02*
G37*
G36*
X336456Y113418D02*
X334803D01*
Y115938D01*
X336456D01*
Y113418D01*
D02*
G37*
G36*
X338425D02*
X336772D01*
Y115938D01*
X338425D01*
Y113418D01*
D02*
G37*
G36*
X336864Y119929D02*
X339370D01*
Y118945D01*
X336864D01*
Y117961D01*
X339370D01*
Y116976D01*
X336864D01*
Y116431D01*
X328490D01*
Y116976D01*
X325984D01*
Y117961D01*
X328490D01*
Y118945D01*
X325984D01*
Y119929D01*
X328490D01*
Y120474D01*
X336864D01*
Y119929D01*
D02*
G37*
G36*
X411260Y113418D02*
X409606D01*
Y115938D01*
X411260D01*
Y113418D01*
D02*
G37*
G36*
X409291D02*
X407638D01*
Y115938D01*
X409291D01*
Y113418D01*
D02*
G37*
G36*
X415197D02*
X413543D01*
Y115938D01*
X415197D01*
Y113418D01*
D02*
G37*
G36*
X413228D02*
X411575D01*
Y115938D01*
X413228D01*
Y113418D01*
D02*
G37*
G36*
X334488Y113418D02*
X332835D01*
Y115938D01*
X334488D01*
Y113418D01*
D02*
G37*
G36*
X486063Y113418D02*
X484410D01*
Y115938D01*
X486063D01*
Y113418D01*
D02*
G37*
G36*
X488031D02*
X486378D01*
Y115938D01*
X488031D01*
Y113418D01*
D02*
G37*
G36*
X482126D02*
X480473D01*
Y115938D01*
X482126D01*
Y113418D01*
D02*
G37*
G36*
X484094D02*
X482441D01*
Y115938D01*
X484094D01*
Y113418D01*
D02*
G37*
G36*
X490000D02*
X488347D01*
Y115938D01*
X490000D01*
Y113418D01*
D02*
G37*
G36*
X330551Y113418D02*
X328898D01*
Y115938D01*
X330551D01*
Y113418D01*
D02*
G37*
G36*
X332519D02*
X330866D01*
Y115938D01*
X332519D01*
Y113418D01*
D02*
G37*
G36*
X491968Y113418D02*
X490315D01*
Y115938D01*
X491968D01*
Y113418D01*
D02*
G37*
G36*
X328582Y113418D02*
X326929D01*
Y115938D01*
X328582D01*
Y113418D01*
D02*
G37*
G36*
X407323Y113418D02*
X405669D01*
Y115938D01*
X407323D01*
Y113418D01*
D02*
G37*
G36*
X491968Y120967D02*
X490315D01*
Y123487D01*
X491968D01*
Y120967D01*
D02*
G37*
G36*
X328582Y120967D02*
X326929D01*
Y123487D01*
X328582D01*
Y120967D01*
D02*
G37*
G36*
X488031Y120967D02*
X486378D01*
Y123487D01*
X488031D01*
Y120967D01*
D02*
G37*
G36*
X490000D02*
X488347D01*
Y123487D01*
X490000D01*
Y120967D01*
D02*
G37*
G36*
X330551Y120967D02*
X328898D01*
Y123487D01*
X330551D01*
Y120967D01*
D02*
G37*
G36*
X336456D02*
X334803D01*
Y123487D01*
X336456D01*
Y120967D01*
D02*
G37*
G36*
X338425D02*
X336772D01*
Y123487D01*
X338425D01*
Y120967D01*
D02*
G37*
G36*
X332519D02*
X330866D01*
Y123487D01*
X332519D01*
Y120967D01*
D02*
G37*
G36*
X334488D02*
X332835D01*
Y123487D01*
X334488D01*
Y120967D01*
D02*
G37*
G36*
X486063Y120967D02*
X484410D01*
Y123487D01*
X486063D01*
Y120967D01*
D02*
G37*
G36*
X407323D02*
X405669D01*
Y123487D01*
X407323D01*
Y120967D01*
D02*
G37*
G36*
X409291D02*
X407638D01*
Y123487D01*
X409291D01*
Y120967D01*
D02*
G37*
G36*
X405354Y113418D02*
X403701D01*
Y115938D01*
X405354D01*
Y113418D01*
D02*
G37*
G36*
Y120967D02*
X403701D01*
Y123487D01*
X405354D01*
Y120967D01*
D02*
G37*
G36*
X411260D02*
X409606D01*
Y123487D01*
X411260D01*
Y120967D01*
D02*
G37*
G36*
X482126D02*
X480473D01*
Y123487D01*
X482126D01*
Y120967D01*
D02*
G37*
G36*
X484094D02*
X482441D01*
Y123487D01*
X484094D01*
Y120967D01*
D02*
G37*
G36*
X413228D02*
X411575D01*
Y123487D01*
X413228D01*
Y120967D01*
D02*
G37*
G36*
X415197D02*
X413543D01*
Y123487D01*
X415197D01*
Y120967D01*
D02*
G37*
%LPC*%
G36*
X408686Y119240D02*
X407111D01*
Y117665D01*
X408686D01*
Y119240D01*
D02*
G37*
G36*
X411786D02*
X410211D01*
Y117665D01*
X411786D01*
Y119240D01*
D02*
G37*
G36*
X488558D02*
X486983D01*
Y117665D01*
X488558D01*
Y119240D01*
D02*
G37*
G36*
X485458D02*
X483883D01*
Y117665D01*
X485458D01*
Y119240D01*
D02*
G37*
G36*
X331914Y119240D02*
X330340D01*
Y117665D01*
X331914D01*
Y119240D01*
D02*
G37*
G36*
X335015D02*
X333440D01*
Y117665D01*
X335015D01*
Y119240D01*
D02*
G37*
%LPD*%
D67*
X66929Y64417D02*
D03*
Y58417D02*
D03*
X33465Y93457D02*
D03*
Y99457D02*
D03*
Y81646D02*
D03*
Y87646D02*
D03*
Y70228D02*
D03*
Y76228D02*
D03*
Y58417D02*
D03*
Y64417D02*
D03*
X47047Y43748D02*
D03*
Y37748D02*
D03*
Y27953D02*
D03*
Y33953D02*
D03*
X363681Y24457D02*
D03*
Y18457D02*
D03*
X481299Y28496D02*
D03*
Y34496D02*
D03*
X480709Y49362D02*
D03*
Y55362D02*
D03*
X497047Y126374D02*
D03*
Y120374D02*
D03*
X420275Y126374D02*
D03*
Y120374D02*
D03*
X343504Y126374D02*
D03*
Y120374D02*
D03*
X501968Y126374D02*
D03*
Y120374D02*
D03*
X425197Y126374D02*
D03*
Y120374D02*
D03*
X348425Y126374D02*
D03*
Y120374D02*
D03*
X497047Y110531D02*
D03*
Y116531D02*
D03*
X420275Y110531D02*
D03*
Y116531D02*
D03*
X343504Y110531D02*
D03*
Y116531D02*
D03*
X501968D02*
D03*
Y110531D02*
D03*
X425197Y116531D02*
D03*
Y110531D02*
D03*
X348425Y116531D02*
D03*
Y110531D02*
D03*
X511811Y120327D02*
D03*
Y126327D02*
D03*
X435039Y120327D02*
D03*
Y126327D02*
D03*
X358268Y120327D02*
D03*
Y126327D02*
D03*
D68*
X60925Y54901D02*
D03*
Y59901D02*
D03*
Y64902D02*
D03*
Y69902D02*
D03*
X39469Y54901D02*
D03*
Y59901D02*
D03*
Y64902D02*
D03*
Y69902D02*
D03*
D69*
X70078Y31988D02*
D03*
Y34547D02*
D03*
Y37106D02*
D03*
Y39665D02*
D03*
X53543Y31988D02*
D03*
Y34547D02*
D03*
Y37106D02*
D03*
Y39665D02*
D03*
D70*
X61810Y35827D02*
D03*
D71*
X76134Y28347D02*
D03*
X82134D02*
D03*
X82134Y33071D02*
D03*
X76134D02*
D03*
X76134Y37795D02*
D03*
X82134D02*
D03*
X76134Y42520D02*
D03*
X82134D02*
D03*
X76134Y47244D02*
D03*
X82134D02*
D03*
X123472Y37402D02*
D03*
X117472D02*
D03*
X123472Y42126D02*
D03*
X117472D02*
D03*
X347933Y29331D02*
D03*
X353933D02*
D03*
X357681D02*
D03*
X363681D02*
D03*
X499953Y18701D02*
D03*
X505953D02*
D03*
X499953Y23622D02*
D03*
X505953D02*
D03*
X490110Y18701D02*
D03*
X496110D02*
D03*
X490110Y23622D02*
D03*
X496110D02*
D03*
X443945Y37401D02*
D03*
X437945D02*
D03*
X476425Y53051D02*
D03*
X470425D02*
D03*
X476425Y58071D02*
D03*
X470425D02*
D03*
X476425Y68898D02*
D03*
X470425D02*
D03*
X466583Y53051D02*
D03*
X460583D02*
D03*
Y58071D02*
D03*
X466583D02*
D03*
Y63878D02*
D03*
X460583D02*
D03*
Y68898D02*
D03*
X466583D02*
D03*
X476425Y63878D02*
D03*
X470425D02*
D03*
X78693Y111221D02*
D03*
X84693D02*
D03*
X114127D02*
D03*
X120126D02*
D03*
X149559D02*
D03*
X155560D02*
D03*
X184993D02*
D03*
X190992D02*
D03*
X220426D02*
D03*
X226426D02*
D03*
X255859D02*
D03*
X261859D02*
D03*
X291292D02*
D03*
X297292D02*
D03*
D72*
X342027Y25057D02*
D03*
Y17857D02*
D03*
X453740Y68250D02*
D03*
Y75450D02*
D03*
X446850Y68250D02*
D03*
Y75450D02*
D03*
X439961Y68250D02*
D03*
Y75450D02*
D03*
D73*
X353937Y16535D02*
D03*
Y20866D02*
D03*
D74*
X358661Y24508D02*
D03*
X355512D02*
D03*
X352362D02*
D03*
X349213D02*
D03*
Y12894D02*
D03*
X352362D02*
D03*
X355512D02*
D03*
X358661D02*
D03*
D75*
X355569Y6299D02*
D03*
X348369D02*
D03*
D76*
X451181Y45246D02*
D03*
Y42746D02*
D03*
Y40246D02*
D03*
Y37746D02*
D03*
Y35246D02*
D03*
Y32746D02*
D03*
Y30246D02*
D03*
Y27746D02*
D03*
Y25246D02*
D03*
Y22746D02*
D03*
Y20246D02*
D03*
Y17746D02*
D03*
X470079Y45246D02*
D03*
Y42746D02*
D03*
Y40246D02*
D03*
Y37746D02*
D03*
Y35246D02*
D03*
Y32746D02*
D03*
Y30246D02*
D03*
Y27746D02*
D03*
Y25246D02*
D03*
Y22746D02*
D03*
Y20246D02*
D03*
Y17746D02*
D03*
D77*
X486831Y44902D02*
D03*
Y39902D02*
D03*
Y34902D02*
D03*
Y29902D02*
D03*
X509232Y44902D02*
D03*
Y39902D02*
D03*
Y34902D02*
D03*
Y29902D02*
D03*
X486831Y68524D02*
D03*
Y63524D02*
D03*
Y58524D02*
D03*
Y53524D02*
D03*
X509232Y68524D02*
D03*
Y63524D02*
D03*
Y58524D02*
D03*
Y53524D02*
D03*
D78*
X516929Y113484D02*
D03*
X540158D02*
D03*
X440158D02*
D03*
X463386D02*
D03*
X363386D02*
D03*
X386614D02*
D03*
D79*
X60748Y124016D02*
D03*
X25315D02*
D03*
X519685Y80433D02*
D03*
X519685Y45000D02*
D03*
X94489Y123740D02*
D03*
X129922Y123740D02*
D03*
X165355Y123740D02*
D03*
X200788Y123740D02*
D03*
X236221D02*
D03*
X271654D02*
D03*
X307087Y123740D02*
D03*
X251575Y29803D02*
D03*
D80*
X49488Y124016D02*
D03*
X14055D02*
D03*
X519685Y69173D02*
D03*
X519685Y33740D02*
D03*
X94489Y112480D02*
D03*
X129922Y112480D02*
D03*
X165355Y112480D02*
D03*
X200788Y112480D02*
D03*
X236221D02*
D03*
X271654D02*
D03*
X307087D02*
D03*
X251575Y41063D02*
D03*
D81*
X81693Y124547D02*
D03*
X85434Y117579D02*
D03*
X77953D02*
D03*
X117127Y124547D02*
D03*
X120867Y117579D02*
D03*
X113386D02*
D03*
X152559Y124547D02*
D03*
X156300Y117579D02*
D03*
X148819D02*
D03*
X187993Y124547D02*
D03*
X191733Y117579D02*
D03*
X184253D02*
D03*
X223426Y124547D02*
D03*
X227166Y117579D02*
D03*
X219686D02*
D03*
X258859Y124547D02*
D03*
X262599Y117579D02*
D03*
X255118D02*
D03*
X294292Y124547D02*
D03*
X298032Y117579D02*
D03*
X290552D02*
D03*
D82*
X430512Y78898D02*
D03*
X425512D02*
D03*
X420512D02*
D03*
X415512D02*
D03*
X410512D02*
D03*
X405512D02*
D03*
X400512D02*
D03*
X395512D02*
D03*
X390512D02*
D03*
X385512D02*
D03*
X380512D02*
D03*
D83*
X405512Y41102D02*
D03*
D84*
X491142Y122227D02*
D03*
X414370D02*
D03*
X337598D02*
D03*
D85*
X489173D02*
D03*
X487205D02*
D03*
X485236D02*
D03*
X483268D02*
D03*
X481299D02*
D03*
Y114678D02*
D03*
X483268D02*
D03*
X485236D02*
D03*
X487205D02*
D03*
X489173D02*
D03*
X491142D02*
D03*
X414370D02*
D03*
X412401D02*
D03*
X410433D02*
D03*
X408464D02*
D03*
X406496D02*
D03*
X404528D02*
D03*
Y122227D02*
D03*
X406496D02*
D03*
X408464D02*
D03*
X410433D02*
D03*
X412401D02*
D03*
X335630D02*
D03*
X333662D02*
D03*
X331693D02*
D03*
X329725D02*
D03*
X327756D02*
D03*
Y114678D02*
D03*
X329725D02*
D03*
X331693D02*
D03*
X333662D02*
D03*
X335630D02*
D03*
X337598D02*
D03*
D86*
X367323Y78740D02*
D03*
X337402D02*
D03*
D87*
X541339Y11811D02*
D03*
X11811D02*
D03*
D88*
X332677Y100394D02*
D03*
X285433D02*
D03*
X307087Y95669D02*
D03*
X529528D02*
D03*
X88583Y23622D02*
D03*
X259842D02*
D03*
X61024Y45276D02*
D03*
X265748D02*
D03*
D89*
X110000Y15000D02*
D03*
X300000Y15000D02*
D03*
D90*
X120000Y15000D02*
D03*
X130000D02*
D03*
X140000D02*
D03*
X150000D02*
D03*
X160000D02*
D03*
X170000D02*
D03*
X180000D02*
D03*
X190000D02*
D03*
X200000D02*
D03*
X210000D02*
D03*
X220000D02*
D03*
X280000Y15000D02*
D03*
X290000D02*
D03*
X270000D02*
D03*
X260000D02*
D03*
X250000D02*
D03*
X240000D02*
D03*
D91*
X180000Y60000D02*
D03*
X170000D02*
D03*
X180000Y50000D02*
D03*
X170000D02*
D03*
X160000D02*
D03*
X150000D02*
D03*
X140000D02*
D03*
X130000D02*
D03*
X160000Y60000D02*
D03*
X150000D02*
D03*
X140000D02*
D03*
X130000D02*
D03*
X120000Y50000D02*
D03*
Y60000D02*
D03*
X190000Y40000D02*
D03*
X200000D02*
D03*
X210000D02*
D03*
X230000D02*
D03*
X240000Y30000D02*
D03*
X230000D02*
D03*
X220000D02*
D03*
X210000D02*
D03*
X200000D02*
D03*
X190000D02*
D03*
X180000D02*
D03*
X170000D02*
D03*
X160000D02*
D03*
X150000D02*
D03*
X140000D02*
D03*
X130000D02*
D03*
X120000D02*
D03*
X110000D02*
D03*
Y40000D02*
D03*
Y50000D02*
D03*
Y60000D02*
D03*
Y70000D02*
D03*
Y80000D02*
D03*
Y90000D02*
D03*
X120000D02*
D03*
X130000D02*
D03*
X140000D02*
D03*
X150000D02*
D03*
X160000D02*
D03*
X170000D02*
D03*
X180000D02*
D03*
X190000D02*
D03*
X200000D02*
D03*
X210000D02*
D03*
X220000D02*
D03*
X230000D02*
D03*
X240000D02*
D03*
D92*
X23622Y35433D02*
D03*
Y49212D02*
D03*
Y84646D02*
D03*
X529528Y80709D02*
D03*
Y45276D02*
D03*
X448819Y133858D02*
D03*
X435039D02*
D03*
X421260D02*
D03*
X407480D02*
D03*
X82678D02*
D03*
X118111D02*
D03*
X153544D02*
D03*
X188977D02*
D03*
X224410D02*
D03*
X259843D02*
D03*
X295276D02*
D03*
X525591D02*
D03*
X511811D02*
D03*
X498032D02*
D03*
X484252D02*
D03*
X372047D02*
D03*
X358268D02*
D03*
X344488D02*
D03*
X330709D02*
D03*
X11811D02*
D03*
X47244D02*
D03*
D93*
X23622Y62992D02*
D03*
Y98425D02*
D03*
X529528Y66929D02*
D03*
Y31496D02*
D03*
D94*
X39173Y31890D02*
D03*
X440945Y45276D02*
D03*
D95*
X39173Y39764D02*
D03*
X440945Y53150D02*
D03*
D96*
X462599Y133858D02*
D03*
X96457D02*
D03*
X131890D02*
D03*
X167323D02*
D03*
X202756D02*
D03*
X238190D02*
D03*
X273622D02*
D03*
X309056D02*
D03*
X539370D02*
D03*
X385827D02*
D03*
X25591D02*
D03*
X61024D02*
D03*
D97*
X55118Y96457D02*
D03*
X324803Y47244D02*
D03*
D98*
X355807Y16535D02*
D03*
X351870D02*
D03*
Y20866D02*
D03*
X355807D02*
D03*
M02*
