M48
;Layer_Color=9474304
;FILE_FORMAT=2:5
INCH,TZ
;TYPE=PLATED
T2F00S00C0.01378
T3F00S00C0.03150
T4F00S00C0.03543
T5F00S00C0.03800
T6F00S00C0.04000
T7F00S00C0.05512
T8F00S00C0.12598
;TYPE=NON_PLATED
T1F00S00C0.12598
%
T02
X437795Y32283
X462598Y26772
X463386Y20079
X477362Y26378
X482382Y25492
X475591Y40453
X467717Y48819
X468504Y58268
Y68898
X480315Y62992
Y59055
X482972Y50492
X516142Y59055
X516142Y62992
X524803Y58169
X529035
Y54134
X533071
X533268Y58268
X541339Y62205
X549260Y61567
X547713Y88583
X539764Y106693
X534646Y106299
X535433Y120472
X539764
X499213Y122047
Y118504
X499115Y114864
X494095Y118602
X490846Y118405
X487402Y118504
X484252
X481201Y118405
X477953Y118110
Y121653
X477559Y111417
X482480Y111417
X485260Y108568
X488287Y111122
X484252Y127264
X466929Y120079
X462598
X458661
X449213Y110630
X428642Y110531
X439764Y63779
X444095
X448425
X524508Y54134
X522835Y24114
X522638Y19587
X528051Y19291
X527953Y23917
X533661
X533169Y19980
X541337Y27165
X549457Y27016
X420079Y26772
X415354
X410630
X405906
X401181
X396457
X391732
X394094Y22047
X398819
X403543
X408268
X412992
X417717
X415354Y17323
X410630
X405906
X401181
X396457
X391732
X394094Y31496
X398819
X403543
X408268
X412992
X417717
X415354Y36220
X410630
X405906
X401181
X396457
X391732
X394094Y40945
X398819
X403543
X408268
X412992
X417717
X415354Y45669
X410630
X405906
X401181
X396457
X391732
X394094Y50394
X398819
X403543
X408268
X412992
X417717
X415354Y55118
X410630
X405906
X401181
X396457
X391732
X394094Y59843
X398819
X403543
X408268
X412992
X417717
X415354Y64567
X410630
X405906
X401181
X396457
X391732
X395512Y71023
X400512Y86102
X385433Y86614
X374663Y86614
X381496Y120079
X386614
X390945
X401890Y122742
X404134Y117961
X407480Y118504
X411024
X414764Y117961
X422441Y118574
Y113779
X411221Y111220
X408485Y108371
X405610Y111221
X400787
X407894Y126876
X364272Y119685
X346225Y118898
X345704Y114173
X340453Y118209
X336910Y118307
X333858Y118504
X330709
X327362Y118945
X329528Y110433
X327461Y107185
X333563Y107382
X335039Y111024
X352067Y110236
X330528Y127664
X298031Y106693
X294094Y107874
X272638Y96457
X275590Y93504
X278543Y90551
X336614Y17717
Y13780
X341535
X343504Y6890
X351870Y16535
X355807
Y20866
X351870
X368110Y17717
Y29528
X420079Y36220
Y45669
Y55118
Y64567
X415512Y71496
X420079Y17323
X269685Y88583
X266732Y91535
X263779Y94488
X265748Y112205
X258760Y114272
X230709Y112598
X223622Y114173
X194882Y112992
X187894Y114567
X159449Y112992
X152756Y114173
X124016Y113386
X117323Y114567
X150597Y7769
X155679Y11054
X164175Y11221
X163197Y7481
X226378Y68898
X224705Y72933
X230709Y73524
X234646Y81102
X101575Y88189
Y92126
X93705Y92327
X93701Y88573
X93012Y72342
X88583Y74016
X90949Y64275
X97638Y66929
X96658Y42522
X85827Y42520
X85433Y33071
X99213Y28346
Y17323
X63386Y34252
X60236
Y37795
X63386
X53644Y28348
X43307Y28346
X70866Y58268
X27559Y75591
X81890Y114567
X88583Y112992
X307087Y143701
X311024
Y147638
X307087
X316929Y151870
X322685Y152067
X435039Y147047
T03
X440945Y45276
Y53150
X39173Y39764
Y31890
T04
X270000Y15000
X280000
X290000
X300000
X260000
X250000
X240000
X220000Y15000
X210000
X200000
X190000
X180000
X170000
X160000
X150000
X140000
X130000
X120000
X110000
T05
X120000Y30000
X130000
X140000
X150000
X160000
X170000
X180000
X190000
Y40000
X200000
X210000
Y30000
X220000
X230000
Y40000
X240000Y30000
X200000
X180000Y50000
Y60000
X170000
Y50000
X160000
X150000
X140000
X130000
Y60000
X140000
X150000
X160000
Y90000
X150000
X140000
X130000
X120000
Y60000
Y50000
X170000Y90000
X180000
X190000
X200000
X210000
X220000
X230000
X240000
X110000
Y80000
Y70000
Y60000
Y50000
Y40000
Y30000
T06
X529528Y95669
X332677Y100394
X307087Y95669
X285433Y100394
X265748Y45276
X259842Y23622
X88583
X61024Y45276
T07
X529528Y31496
Y45276
Y66929
Y80709
X23622Y84646
Y98425
Y62992
Y49212
Y35433
X25591Y133858
X11811
X47244
X61024
X82678
X96457
X118111
X131890
X153544
X167323
X188977
X202756
X224410
X238190
X259843
X273622
X295276
X309056
X330709
X344488
X358268
X372047
X385827
X407480
X421260
X435039
X448819
X462599
X484252
X498032
X511811
X525591
X539370
T08
X324803Y47244
X55118Y96457
T01
X541339Y11811
X11811
M30
