G04 Layer_Color=8388736*
%FSLAX24Y24*%
%MOIN*%
G70*
G01*
G75*
G04:AMPARAMS|DCode=63|XSize=36mil|YSize=28mil|CornerRadius=8.5mil|HoleSize=0mil|Usage=FLASHONLY|Rotation=180.000|XOffset=0mil|YOffset=0mil|HoleType=Round|Shape=RoundedRectangle|*
%AMROUNDEDRECTD63*
21,1,0.0360,0.0110,0,0,180.0*
21,1,0.0190,0.0280,0,0,180.0*
1,1,0.0170,-0.0095,0.0055*
1,1,0.0170,0.0095,0.0055*
1,1,0.0170,0.0095,-0.0055*
1,1,0.0170,-0.0095,-0.0055*
%
%ADD63ROUNDEDRECTD63*%
%ADD64O,0.0631X0.0296*%
%ADD65O,0.0709X0.0217*%
%ADD66R,0.0678X0.0804*%
G04:AMPARAMS|DCode=67|XSize=36mil|YSize=28mil|CornerRadius=8.5mil|HoleSize=0mil|Usage=FLASHONLY|Rotation=270.000|XOffset=0mil|YOffset=0mil|HoleType=Round|Shape=RoundedRectangle|*
%AMROUNDEDRECTD67*
21,1,0.0360,0.0110,0,0,270.0*
21,1,0.0190,0.0280,0,0,270.0*
1,1,0.0170,-0.0055,-0.0095*
1,1,0.0170,-0.0055,0.0095*
1,1,0.0170,0.0055,0.0095*
1,1,0.0170,0.0055,-0.0095*
%
%ADD67ROUNDEDRECTD67*%
G04:AMPARAMS|DCode=68|XSize=56mil|YSize=30mil|CornerRadius=9mil|HoleSize=0mil|Usage=FLASHONLY|Rotation=180.000|XOffset=0mil|YOffset=0mil|HoleType=Round|Shape=RoundedRectangle|*
%AMROUNDEDRECTD68*
21,1,0.0560,0.0120,0,0,180.0*
21,1,0.0380,0.0300,0,0,180.0*
1,1,0.0180,-0.0190,0.0060*
1,1,0.0180,0.0190,0.0060*
1,1,0.0180,0.0190,-0.0060*
1,1,0.0180,-0.0190,-0.0060*
%
%ADD68ROUNDEDRECTD68*%
%ADD69R,0.0803X0.0370*%
%ADD70R,0.0213X0.0232*%
G04:AMPARAMS|DCode=71|XSize=56mil|YSize=30mil|CornerRadius=9mil|HoleSize=0mil|Usage=FLASHONLY|Rotation=90.000|XOffset=0mil|YOffset=0mil|HoleType=Round|Shape=RoundedRectangle|*
%AMROUNDEDRECTD71*
21,1,0.0560,0.0120,0,0,90.0*
21,1,0.0380,0.0300,0,0,90.0*
1,1,0.0180,0.0060,0.0190*
1,1,0.0180,0.0060,-0.0190*
1,1,0.0180,-0.0060,-0.0190*
1,1,0.0180,-0.0060,0.0190*
%
%ADD71ROUNDEDRECTD71*%
%ADD72O,0.0926X0.0198*%
%ADD73O,0.0576X0.0316*%
%ADD74R,0.1418X0.0769*%
%ADD75R,0.0532X0.0532*%
%ADD76R,0.0532X0.0532*%
%ADD77R,0.0376X0.0443*%
%ADD78R,0.0399X0.1009*%
%ADD79R,0.3653X0.5324*%
%ADD80R,0.0150X0.0236*%
%ADD81R,0.0150X0.0236*%
%ADD82R,0.1851X0.0966*%
%ADD83C,0.0760*%
%ADD84R,0.0651X0.0651*%
%ADD85C,0.0651*%
%ADD86C,0.0630*%
%ADD87C,0.0808*%
%ADD88R,0.0808X0.0808*%
%ADD89C,0.0572*%
%ADD90R,0.0572X0.0572*%
%ADD91R,0.0808X0.0808*%
%ADD92C,0.2816*%
%ADD93C,0.0336*%
G36*
X41364Y11993D02*
X41614D01*
Y11894D01*
X41364D01*
Y11796D01*
X41614D01*
Y11698D01*
X41364D01*
Y11643D01*
X40526D01*
Y11698D01*
X40276D01*
Y11796D01*
X40526D01*
Y11894D01*
X40276D01*
Y11993D01*
X40526D01*
Y12047D01*
X41364D01*
Y11993D01*
D02*
G37*
G36*
X49041D02*
X49291D01*
Y11894D01*
X49041D01*
Y11796D01*
X49291D01*
Y11698D01*
X49041D01*
Y11643D01*
X48203D01*
Y11698D01*
X47953D01*
Y11796D01*
X48203D01*
Y11894D01*
X47953D01*
Y11993D01*
X48203D01*
Y12047D01*
X49041D01*
Y11993D01*
D02*
G37*
G36*
X33646Y11342D02*
X33480D01*
Y11594D01*
X33646D01*
Y11342D01*
D02*
G37*
G36*
X33842D02*
X33677D01*
Y11594D01*
X33842D01*
Y11342D01*
D02*
G37*
G36*
X33686Y11993D02*
X33937D01*
Y11894D01*
X33686D01*
Y11796D01*
X33937D01*
Y11698D01*
X33686D01*
Y11643D01*
X32849D01*
Y11698D01*
X32598D01*
Y11796D01*
X32849D01*
Y11894D01*
X32598D01*
Y11993D01*
X32849D01*
Y12047D01*
X33686D01*
Y11993D01*
D02*
G37*
G36*
X41126Y11342D02*
X40961D01*
Y11594D01*
X41126D01*
Y11342D01*
D02*
G37*
G36*
X40929D02*
X40764D01*
Y11594D01*
X40929D01*
Y11342D01*
D02*
G37*
G36*
X41520D02*
X41354D01*
Y11594D01*
X41520D01*
Y11342D01*
D02*
G37*
G36*
X41323D02*
X41157D01*
Y11594D01*
X41323D01*
Y11342D01*
D02*
G37*
G36*
X33449Y11342D02*
X33283D01*
Y11594D01*
X33449D01*
Y11342D01*
D02*
G37*
G36*
X48606Y11342D02*
X48441D01*
Y11594D01*
X48606D01*
Y11342D01*
D02*
G37*
G36*
X48803D02*
X48638D01*
Y11594D01*
X48803D01*
Y11342D01*
D02*
G37*
G36*
X48213D02*
X48047D01*
Y11594D01*
X48213D01*
Y11342D01*
D02*
G37*
G36*
X48409D02*
X48244D01*
Y11594D01*
X48409D01*
Y11342D01*
D02*
G37*
G36*
X49000D02*
X48835D01*
Y11594D01*
X49000D01*
Y11342D01*
D02*
G37*
G36*
X33055Y11342D02*
X32890D01*
Y11594D01*
X33055D01*
Y11342D01*
D02*
G37*
G36*
X33252D02*
X33087D01*
Y11594D01*
X33252D01*
Y11342D01*
D02*
G37*
G36*
X49197Y11342D02*
X49032D01*
Y11594D01*
X49197D01*
Y11342D01*
D02*
G37*
G36*
X32858Y11342D02*
X32693D01*
Y11594D01*
X32858D01*
Y11342D01*
D02*
G37*
G36*
X40732Y11342D02*
X40567D01*
Y11594D01*
X40732D01*
Y11342D01*
D02*
G37*
G36*
X49197Y12097D02*
X49032D01*
Y12349D01*
X49197D01*
Y12097D01*
D02*
G37*
G36*
X32858Y12097D02*
X32693D01*
Y12349D01*
X32858D01*
Y12097D01*
D02*
G37*
G36*
X48803Y12097D02*
X48638D01*
Y12349D01*
X48803D01*
Y12097D01*
D02*
G37*
G36*
X49000D02*
X48835D01*
Y12349D01*
X49000D01*
Y12097D01*
D02*
G37*
G36*
X33055Y12097D02*
X32890D01*
Y12349D01*
X33055D01*
Y12097D01*
D02*
G37*
G36*
X33646D02*
X33480D01*
Y12349D01*
X33646D01*
Y12097D01*
D02*
G37*
G36*
X33842D02*
X33677D01*
Y12349D01*
X33842D01*
Y12097D01*
D02*
G37*
G36*
X33252D02*
X33087D01*
Y12349D01*
X33252D01*
Y12097D01*
D02*
G37*
G36*
X33449D02*
X33283D01*
Y12349D01*
X33449D01*
Y12097D01*
D02*
G37*
G36*
X48606Y12097D02*
X48441D01*
Y12349D01*
X48606D01*
Y12097D01*
D02*
G37*
G36*
X40732D02*
X40567D01*
Y12349D01*
X40732D01*
Y12097D01*
D02*
G37*
G36*
X40929D02*
X40764D01*
Y12349D01*
X40929D01*
Y12097D01*
D02*
G37*
G36*
X40535Y11342D02*
X40370D01*
Y11594D01*
X40535D01*
Y11342D01*
D02*
G37*
G36*
Y12097D02*
X40370D01*
Y12349D01*
X40535D01*
Y12097D01*
D02*
G37*
G36*
X41126D02*
X40961D01*
Y12349D01*
X41126D01*
Y12097D01*
D02*
G37*
G36*
X48213D02*
X48047D01*
Y12349D01*
X48213D01*
Y12097D01*
D02*
G37*
G36*
X48409D02*
X48244D01*
Y12349D01*
X48409D01*
Y12097D01*
D02*
G37*
G36*
X41323D02*
X41157D01*
Y12349D01*
X41323D01*
Y12097D01*
D02*
G37*
G36*
X41520D02*
X41354D01*
Y12349D01*
X41520D01*
Y12097D01*
D02*
G37*
%LPC*%
G36*
X40869Y11924D02*
X40711D01*
Y11767D01*
X40869D01*
Y11924D01*
D02*
G37*
G36*
X41179D02*
X41021D01*
Y11767D01*
X41179D01*
Y11924D01*
D02*
G37*
G36*
X48856D02*
X48698D01*
Y11767D01*
X48856D01*
Y11924D01*
D02*
G37*
G36*
X48546D02*
X48388D01*
Y11767D01*
X48546D01*
Y11924D01*
D02*
G37*
G36*
X33191Y11924D02*
X33034D01*
Y11767D01*
X33191D01*
Y11924D01*
D02*
G37*
G36*
X33501D02*
X33344D01*
Y11767D01*
X33501D01*
Y11924D01*
D02*
G37*
%LPD*%
D63*
X6693Y6442D02*
D03*
Y5842D02*
D03*
X3346Y9346D02*
D03*
Y9946D02*
D03*
Y8165D02*
D03*
Y8765D02*
D03*
Y7023D02*
D03*
Y7623D02*
D03*
Y5842D02*
D03*
Y6442D02*
D03*
X4705Y4375D02*
D03*
Y3775D02*
D03*
Y2795D02*
D03*
Y3395D02*
D03*
X36368Y2446D02*
D03*
Y1846D02*
D03*
X48130Y2850D02*
D03*
Y3450D02*
D03*
X48071Y4936D02*
D03*
Y5536D02*
D03*
X49705Y12637D02*
D03*
Y12037D02*
D03*
X42028Y12637D02*
D03*
Y12037D02*
D03*
X34350Y12637D02*
D03*
Y12037D02*
D03*
X50197Y12637D02*
D03*
Y12037D02*
D03*
X42520Y12637D02*
D03*
Y12037D02*
D03*
X34843Y12637D02*
D03*
Y12037D02*
D03*
X49705Y11053D02*
D03*
Y11653D02*
D03*
X42028Y11053D02*
D03*
Y11653D02*
D03*
X34350Y11053D02*
D03*
Y11653D02*
D03*
X50197D02*
D03*
Y11053D02*
D03*
X42520Y11653D02*
D03*
Y11053D02*
D03*
X34843Y11653D02*
D03*
Y11053D02*
D03*
X51181Y12033D02*
D03*
Y12633D02*
D03*
X43504Y12033D02*
D03*
Y12633D02*
D03*
X35827Y12033D02*
D03*
Y12633D02*
D03*
D64*
X6093Y5490D02*
D03*
Y5990D02*
D03*
Y6490D02*
D03*
Y6990D02*
D03*
X3947Y5490D02*
D03*
Y5990D02*
D03*
Y6490D02*
D03*
Y6990D02*
D03*
D65*
X7008Y3199D02*
D03*
Y3455D02*
D03*
Y3711D02*
D03*
Y3967D02*
D03*
X5354Y3199D02*
D03*
Y3455D02*
D03*
Y3711D02*
D03*
Y3967D02*
D03*
D66*
X6181Y3583D02*
D03*
D67*
X7613Y2835D02*
D03*
X8213D02*
D03*
X8213Y3307D02*
D03*
X7613D02*
D03*
X7613Y3780D02*
D03*
X8213D02*
D03*
X7613Y4252D02*
D03*
X8213D02*
D03*
X7613Y4724D02*
D03*
X8213D02*
D03*
X12347Y3740D02*
D03*
X11747D02*
D03*
X12347Y4213D02*
D03*
X11747D02*
D03*
X34793Y2933D02*
D03*
X35393D02*
D03*
X35768D02*
D03*
X36368D02*
D03*
X49995Y1870D02*
D03*
X50595D02*
D03*
X49995Y2362D02*
D03*
X50595D02*
D03*
X49011Y1870D02*
D03*
X49611D02*
D03*
X49011Y2362D02*
D03*
X49611D02*
D03*
X44394Y3740D02*
D03*
X43794D02*
D03*
X47643Y5305D02*
D03*
X47043D02*
D03*
X47643Y5807D02*
D03*
X47043D02*
D03*
X47643Y6890D02*
D03*
X47043D02*
D03*
X46658Y5305D02*
D03*
X46058D02*
D03*
Y5807D02*
D03*
X46658D02*
D03*
Y6388D02*
D03*
X46058D02*
D03*
Y6890D02*
D03*
X46658D02*
D03*
X47643Y6388D02*
D03*
X47043D02*
D03*
X7869Y11122D02*
D03*
X8469D02*
D03*
X11413D02*
D03*
X12013D02*
D03*
X14956D02*
D03*
X15556D02*
D03*
X18499D02*
D03*
X19099D02*
D03*
X22043D02*
D03*
X22643D02*
D03*
X25586D02*
D03*
X26186D02*
D03*
X29129D02*
D03*
X29729D02*
D03*
D68*
X34203Y2506D02*
D03*
Y1786D02*
D03*
X45374Y6825D02*
D03*
Y7545D02*
D03*
X44685Y6825D02*
D03*
Y7545D02*
D03*
X43996Y6825D02*
D03*
Y7545D02*
D03*
D69*
X35394Y1654D02*
D03*
Y2087D02*
D03*
D70*
X35866Y2451D02*
D03*
X35551D02*
D03*
X35236D02*
D03*
X34921D02*
D03*
Y1289D02*
D03*
X35236D02*
D03*
X35551D02*
D03*
X35866D02*
D03*
D71*
X35557Y630D02*
D03*
X34837D02*
D03*
D72*
X45118Y4525D02*
D03*
Y4275D02*
D03*
Y4025D02*
D03*
Y3775D02*
D03*
Y3525D02*
D03*
Y3275D02*
D03*
Y3025D02*
D03*
Y2775D02*
D03*
Y2525D02*
D03*
Y2275D02*
D03*
Y2025D02*
D03*
Y1775D02*
D03*
X47008Y4525D02*
D03*
Y4275D02*
D03*
Y4025D02*
D03*
Y3775D02*
D03*
Y3525D02*
D03*
Y3275D02*
D03*
Y3025D02*
D03*
Y2775D02*
D03*
Y2525D02*
D03*
Y2275D02*
D03*
Y2025D02*
D03*
Y1775D02*
D03*
D73*
X48683Y4490D02*
D03*
Y3990D02*
D03*
Y3490D02*
D03*
Y2990D02*
D03*
X50923Y4490D02*
D03*
Y3990D02*
D03*
Y3490D02*
D03*
Y2990D02*
D03*
X48683Y6852D02*
D03*
Y6352D02*
D03*
Y5852D02*
D03*
Y5352D02*
D03*
X50923Y6852D02*
D03*
Y6352D02*
D03*
Y5852D02*
D03*
Y5352D02*
D03*
D74*
X51693Y11348D02*
D03*
X54016D02*
D03*
X44016D02*
D03*
X46339D02*
D03*
X36339D02*
D03*
X38661D02*
D03*
D75*
X6075Y12402D02*
D03*
X2531D02*
D03*
X51968Y8043D02*
D03*
X51969Y4500D02*
D03*
X9449Y12374D02*
D03*
X12992Y12374D02*
D03*
X16535Y12374D02*
D03*
X20079Y12374D02*
D03*
X23622D02*
D03*
X27165D02*
D03*
X30709Y12374D02*
D03*
X25157Y2980D02*
D03*
D76*
X4949Y12402D02*
D03*
X1406D02*
D03*
X51968Y6917D02*
D03*
X51969Y3374D02*
D03*
X9449Y11248D02*
D03*
X12992Y11248D02*
D03*
X16535Y11248D02*
D03*
X20079Y11248D02*
D03*
X23622D02*
D03*
X27165D02*
D03*
X30709D02*
D03*
X25157Y4106D02*
D03*
D77*
X8169Y12455D02*
D03*
X8543Y11758D02*
D03*
X7795D02*
D03*
X11713Y12455D02*
D03*
X12087Y11758D02*
D03*
X11339D02*
D03*
X15256Y12455D02*
D03*
X15630Y11758D02*
D03*
X14882D02*
D03*
X18799Y12455D02*
D03*
X19173Y11758D02*
D03*
X18425D02*
D03*
X22343Y12455D02*
D03*
X22717Y11758D02*
D03*
X21969D02*
D03*
X25886Y12455D02*
D03*
X26260Y11758D02*
D03*
X25512D02*
D03*
X29429Y12455D02*
D03*
X29803Y11758D02*
D03*
X29055D02*
D03*
D78*
X43051Y7890D02*
D03*
X42551D02*
D03*
X42051D02*
D03*
X41551D02*
D03*
X41051D02*
D03*
X40551D02*
D03*
X40051D02*
D03*
X39551D02*
D03*
X39051D02*
D03*
X38551D02*
D03*
X38051D02*
D03*
D79*
X40551Y4110D02*
D03*
D80*
X49114Y12223D02*
D03*
X41437D02*
D03*
X33760D02*
D03*
D81*
X48917D02*
D03*
X48720D02*
D03*
X48524D02*
D03*
X48327D02*
D03*
X48130D02*
D03*
Y11468D02*
D03*
X48327D02*
D03*
X48524D02*
D03*
X48720D02*
D03*
X48917D02*
D03*
X49114D02*
D03*
X41437D02*
D03*
X41240D02*
D03*
X41043D02*
D03*
X40846D02*
D03*
X40650D02*
D03*
X40453D02*
D03*
Y12223D02*
D03*
X40650D02*
D03*
X40846D02*
D03*
X41043D02*
D03*
X41240D02*
D03*
X33563D02*
D03*
X33366D02*
D03*
X33169D02*
D03*
X32972D02*
D03*
X32776D02*
D03*
Y11468D02*
D03*
X32972D02*
D03*
X33169D02*
D03*
X33366D02*
D03*
X33563D02*
D03*
X33760D02*
D03*
D82*
X36732Y7874D02*
D03*
X33740D02*
D03*
D83*
X33268Y10039D02*
D03*
X28543D02*
D03*
X30709Y9567D02*
D03*
X52953D02*
D03*
X8858Y2362D02*
D03*
X25984D02*
D03*
X6102Y4528D02*
D03*
X26575D02*
D03*
D84*
X11000Y1500D02*
D03*
X24000D02*
D03*
D85*
X12000D02*
D03*
X13000D02*
D03*
X14000D02*
D03*
X15000D02*
D03*
X16000D02*
D03*
X17000D02*
D03*
X18000D02*
D03*
X19000D02*
D03*
X20000D02*
D03*
X21000D02*
D03*
X22000D02*
D03*
X26000D02*
D03*
X25000D02*
D03*
X27000D02*
D03*
X28000D02*
D03*
X29000D02*
D03*
X30000D02*
D03*
D86*
X18000Y6000D02*
D03*
X17000D02*
D03*
X18000Y5000D02*
D03*
X17000D02*
D03*
X16000D02*
D03*
X15000D02*
D03*
X14000D02*
D03*
X13000D02*
D03*
X16000Y6000D02*
D03*
X15000D02*
D03*
X14000D02*
D03*
X13000D02*
D03*
X12000Y5000D02*
D03*
Y6000D02*
D03*
X19000Y4000D02*
D03*
X20000D02*
D03*
X21000D02*
D03*
X23000D02*
D03*
X24000Y3000D02*
D03*
X23000D02*
D03*
X22000D02*
D03*
X21000D02*
D03*
X20000D02*
D03*
X19000D02*
D03*
X18000D02*
D03*
X17000D02*
D03*
X16000D02*
D03*
X15000D02*
D03*
X14000D02*
D03*
X13000D02*
D03*
X12000D02*
D03*
X11000D02*
D03*
Y4000D02*
D03*
Y5000D02*
D03*
Y6000D02*
D03*
Y7000D02*
D03*
Y8000D02*
D03*
Y9000D02*
D03*
X12000D02*
D03*
X13000D02*
D03*
X14000D02*
D03*
X15000D02*
D03*
X16000D02*
D03*
X17000D02*
D03*
X18000D02*
D03*
X19000D02*
D03*
X20000D02*
D03*
X21000D02*
D03*
X22000D02*
D03*
X23000D02*
D03*
X24000D02*
D03*
D87*
X2362Y3543D02*
D03*
Y4921D02*
D03*
Y8465D02*
D03*
X52953Y8071D02*
D03*
Y4528D02*
D03*
X44882Y13386D02*
D03*
X43504D02*
D03*
X42126D02*
D03*
X40748D02*
D03*
X8268D02*
D03*
X11811D02*
D03*
X15354D02*
D03*
X18898D02*
D03*
X22441D02*
D03*
X25984D02*
D03*
X29528D02*
D03*
X52559D02*
D03*
X51181D02*
D03*
X49803D02*
D03*
X48425D02*
D03*
X37205D02*
D03*
X35827D02*
D03*
X34449D02*
D03*
X33071D02*
D03*
X1181D02*
D03*
X4724D02*
D03*
D88*
X2362Y6299D02*
D03*
Y9843D02*
D03*
X52953Y6693D02*
D03*
Y3150D02*
D03*
D89*
X3917Y3189D02*
D03*
X44094Y4528D02*
D03*
D90*
X3917Y3976D02*
D03*
X44094Y5315D02*
D03*
D91*
X46260Y13386D02*
D03*
X9646D02*
D03*
X13189D02*
D03*
X16732D02*
D03*
X20276D02*
D03*
X23819D02*
D03*
X27362D02*
D03*
X30906D02*
D03*
X53937D02*
D03*
X38583D02*
D03*
X2559D02*
D03*
X6102D02*
D03*
D92*
X5512Y9646D02*
D03*
X32480Y4724D02*
D03*
D93*
X35581Y1654D02*
D03*
X35187D02*
D03*
Y2087D02*
D03*
X35581D02*
D03*
M02*
