M48
;Layer_Color=9474304
;FILE_FORMAT=2:4
INCH,TZ
;TYPE=PLATED
T1F00S00C0.0138
T2F00S00C0.0315
T3F00S00C0.0354
T4F00S00C0.0380
T5F00S00C0.0400
T6F00S00C0.0551
T7F00S00C0.1260
%
T01
X43780Y3228
X46260Y2677
X46339Y2008
X47795Y2480
X48150Y2441
X47913Y4567
X48031Y5906
Y6299
X46850Y5827
X46772Y4882
X46378Y4016
X46850Y6890
X45276Y6378
X44843
X44409
X43976
X44921Y11063
X45866Y12008
X46260
X46693
X47795Y12165
Y11811
X48120Y11841
X48425Y11850
X48740
X49085Y11841
X49409Y11860
X49921Y11850
Y12205
X49911Y11486
X48780Y11142
X48524Y10886
X48268Y11142
X47756
X48455Y12687
X53543Y12047
X53976
Y10669
X53465Y10630
X54771Y8858
X54926Y6157
X54134Y6220
X53327Y5827
X53307Y5413
X52904
Y5817
X52480
X52451Y5413
X51614Y5906
X51614Y6299
X52283Y2411
X52264Y1959
X52805Y1929
X52795Y2392
X53366
X53317Y1998
X54134Y2717
X54946Y2702
X42864Y11053
X42244Y11378
Y11857
X41476Y11796
X41102Y11850
X40748
X40413Y11796
X40167Y11968
X40197Y12283
X40778Y12687
X40512Y11102
X40079
X40846Y10846
X41122Y11122
X39094Y12008
X38661
X38150
X36220Y11968
X34623Y11890
X34570Y11417
X34045Y11821
X33691Y11831
X33386Y11850
X33071
X32736Y11894
X32972Y11122
X33228Y10866
X32717
X33504Y11102
X35236Y11024
X33061Y12766
X29803Y10669
X29409Y10787
X27264Y9646
X27559Y9350
X27854Y9055
X37466Y8661
X38543Y8661
X40051Y8610
X39551Y7102
X39646Y6457
X39173
X39409Y5984
X39882
X40354
X40827
X41299
X41772
X41535Y5512
X41063
X40591
X40118
X39646
X39173
X39409Y5039
X39882
X40354
X40827
X41299
X41772
X41535Y4567
X41063
X40591
X40118
X39646
X39173
X39409Y4094
X39882
X40354
X40827
X41299
X41772
X41535Y3622
X41063
X40591
X40118
X39646
X39173
X39409Y3150
X39882
X40354
X40827
X41299
X41772
X41535Y2677
X41063
X40591
X40118
X39646
X39173
X39409Y2205
X39882
X40354
X40827
X41299
X41772
X41535Y1732
X41063
X40591
X40118
X39646
X39173
X36811Y1772
Y2953
X35581Y2087
X35187
Y1654
X35581
X34154Y1378
X33661
Y1772
X34350Y689
X42008Y1732
Y2677
Y3622
Y4567
Y5512
Y6457
X41535
X41063
X40591
X40118
X41551Y7150
X26969Y8858
X26673Y9154
X26378Y9449
X26575Y11220
X25866Y11457
X23071Y11260
X22362Y11417
X19488Y11299
X18780Y11457
X15945Y11299
X15276Y11417
X12402Y11339
X11732Y11457
X22598Y7323
Y6968
X23465Y7323
Y8110
X18268Y787
X17520
X9921Y1732
Y2835
X9646Y4252
X8583Y4252
X8543Y3307
X6339Y3425
X6024
Y3780
X6339
X5354Y2835
X4331
X7087Y5827
X9094Y6457
X9252Y7165
X8858Y7402
X9764Y6693
X10157Y8819
Y9213
X9370
Y8857
X8858Y11299
X8189Y11457
X2756Y7559
X30709Y14370
X31102
Y14764
X30709
X31914Y15094
X32165Y14843
X36384Y15033
X43504Y14606
T02
X44094Y4528
Y5315
X3917Y3976
Y3189
T03
X27000Y1500
X28000
X29000
X30000
X26000
X25000
X24000
X22000
X21000
X20000
X19000
X18000
X17000
X16000
X15000
X14000
X13000
X12000
X11000
T04
X12000Y3000
X13000
X14000
X15000
X16000
X17000
X18000
X19000
Y4000
X20000
X21000
Y3000
X22000
X23000
Y4000
X24000Y3000
X20000
X18000Y5000
Y6000
X17000
Y5000
X16000
X15000
X14000
X13000
Y6000
X14000
X15000
X16000
Y9000
X15000
X14000
X13000
X12000
Y6000
Y5000
X17000Y9000
X18000
X19000
X20000
X21000
X22000
X23000
X24000
X11000
Y8000
Y7000
Y6000
Y5000
Y4000
Y3000
T05
X52953Y9567
X33268Y10039
X30709Y9567
X28543Y10039
X26575Y4528
X25984Y2362
X8858
X6102Y4528
T06
X52953Y3150
Y4528
Y6693
Y8071
X2362Y8465
Y9843
Y6299
Y4921
Y3543
X2559Y13386
X1181
X4724
X6102
X8268
X9646
X11811
X13189
X15354
X16732
X18898
X20276
X22441
X23819
X25984
X27362
X29528
X30906
X33071
X34449
X35827
X37205
X38583
X40748
X42126
X43504
X44882
X46260
X48425
X49803
X51181
X52559
X53937
T07
X32480Y4724
X5512Y9646
M30
