G04 Layer_Color=16711935*
%FSLAX24Y24*%
%MOIN*%
G70*
G01*
G75*
G04:AMPARAMS|DCode=67|XSize=36mil|YSize=28mil|CornerRadius=8.5mil|HoleSize=0mil|Usage=FLASHONLY|Rotation=270.000|XOffset=0mil|YOffset=0mil|HoleType=Round|Shape=RoundedRectangle|*
%AMROUNDEDRECTD67*
21,1,0.0360,0.0110,0,0,270.0*
21,1,0.0190,0.0280,0,0,270.0*
1,1,0.0170,-0.0055,-0.0095*
1,1,0.0170,-0.0055,0.0095*
1,1,0.0170,0.0055,0.0095*
1,1,0.0170,0.0055,-0.0095*
%
%ADD67ROUNDEDRECTD67*%
G04:AMPARAMS|DCode=71|XSize=56mil|YSize=30mil|CornerRadius=9mil|HoleSize=0mil|Usage=FLASHONLY|Rotation=90.000|XOffset=0mil|YOffset=0mil|HoleType=Round|Shape=RoundedRectangle|*
%AMROUNDEDRECTD71*
21,1,0.0560,0.0120,0,0,90.0*
21,1,0.0380,0.0300,0,0,90.0*
1,1,0.0180,0.0060,0.0190*
1,1,0.0180,0.0060,-0.0190*
1,1,0.0180,-0.0060,-0.0190*
1,1,0.0180,-0.0060,0.0190*
%
%ADD71ROUNDEDRECTD71*%
%ADD83C,0.0760*%
%ADD84R,0.0651X0.0651*%
%ADD85C,0.0651*%
%ADD86C,0.0630*%
%ADD87C,0.0808*%
%ADD88R,0.0808X0.0808*%
%ADD89C,0.0572*%
%ADD90R,0.0572X0.0572*%
%ADD91R,0.0808X0.0808*%
%ADD92C,0.2816*%
%ADD93C,0.0336*%
%ADD94C,0.0454*%
D67*
X35870Y14055D02*
D03*
X36470D02*
D03*
X54346Y3051D02*
D03*
X54946D02*
D03*
Y3543D02*
D03*
X54346D02*
D03*
X54946Y4035D02*
D03*
X54346D02*
D03*
X54341Y4528D02*
D03*
X54941D02*
D03*
X54326Y6594D02*
D03*
X54926D02*
D03*
Y7087D02*
D03*
X54326D02*
D03*
X54921Y7579D02*
D03*
X54321D02*
D03*
X54321Y8071D02*
D03*
X54921D02*
D03*
X40054Y7087D02*
D03*
X40654D02*
D03*
X39670Y8661D02*
D03*
X39070D02*
D03*
Y9154D02*
D03*
X39670D02*
D03*
X40050D02*
D03*
X40650D02*
D03*
D71*
X36746Y7874D02*
D03*
X37466D02*
D03*
D83*
X33268Y10039D02*
D03*
X28543D02*
D03*
X30709Y9567D02*
D03*
X52953D02*
D03*
X8858Y2362D02*
D03*
X25984D02*
D03*
X6102Y4528D02*
D03*
X26575D02*
D03*
D84*
X11000Y1500D02*
D03*
X24000D02*
D03*
D85*
X12000D02*
D03*
X13000D02*
D03*
X14000D02*
D03*
X15000D02*
D03*
X16000D02*
D03*
X17000D02*
D03*
X18000D02*
D03*
X19000D02*
D03*
X20000D02*
D03*
X21000D02*
D03*
X22000D02*
D03*
X26000D02*
D03*
X25000D02*
D03*
X27000D02*
D03*
X28000D02*
D03*
X29000D02*
D03*
X30000D02*
D03*
D86*
X18000Y6000D02*
D03*
X17000D02*
D03*
X18000Y5000D02*
D03*
X17000D02*
D03*
X16000D02*
D03*
X15000D02*
D03*
X14000D02*
D03*
X13000D02*
D03*
X16000Y6000D02*
D03*
X15000D02*
D03*
X14000D02*
D03*
X13000D02*
D03*
X12000Y5000D02*
D03*
Y6000D02*
D03*
X19000Y4000D02*
D03*
X20000D02*
D03*
X21000D02*
D03*
X23000D02*
D03*
X24000Y3000D02*
D03*
X23000D02*
D03*
X22000D02*
D03*
X21000D02*
D03*
X20000D02*
D03*
X19000D02*
D03*
X18000D02*
D03*
X17000D02*
D03*
X16000D02*
D03*
X15000D02*
D03*
X14000D02*
D03*
X13000D02*
D03*
X12000D02*
D03*
X11000D02*
D03*
Y4000D02*
D03*
Y5000D02*
D03*
Y6000D02*
D03*
Y7000D02*
D03*
Y8000D02*
D03*
Y9000D02*
D03*
X12000D02*
D03*
X13000D02*
D03*
X14000D02*
D03*
X15000D02*
D03*
X16000D02*
D03*
X17000D02*
D03*
X18000D02*
D03*
X19000D02*
D03*
X20000D02*
D03*
X21000D02*
D03*
X22000D02*
D03*
X23000D02*
D03*
X24000D02*
D03*
D87*
X2362Y3543D02*
D03*
Y4921D02*
D03*
Y8465D02*
D03*
X52953Y8071D02*
D03*
Y4528D02*
D03*
X44882Y13386D02*
D03*
X43504D02*
D03*
X42126D02*
D03*
X40748D02*
D03*
X8268D02*
D03*
X11811D02*
D03*
X15354D02*
D03*
X18898D02*
D03*
X22441D02*
D03*
X25984D02*
D03*
X29528D02*
D03*
X52559D02*
D03*
X51181D02*
D03*
X49803D02*
D03*
X48425D02*
D03*
X37205D02*
D03*
X35827D02*
D03*
X34449D02*
D03*
X33071D02*
D03*
X1181D02*
D03*
X4724D02*
D03*
D88*
X2362Y6299D02*
D03*
Y9843D02*
D03*
X52953Y6693D02*
D03*
Y3150D02*
D03*
D89*
X3917Y3189D02*
D03*
X44094Y4528D02*
D03*
D90*
X3917Y3976D02*
D03*
X44094Y5315D02*
D03*
D91*
X46260Y13386D02*
D03*
X9646D02*
D03*
X13189D02*
D03*
X16732D02*
D03*
X20276D02*
D03*
X23819D02*
D03*
X27362D02*
D03*
X30906D02*
D03*
X53937D02*
D03*
X38583D02*
D03*
X2559D02*
D03*
X6102D02*
D03*
D92*
X5512Y9646D02*
D03*
X32480Y4724D02*
D03*
D93*
X35581Y1654D02*
D03*
X35187D02*
D03*
Y2087D02*
D03*
X35581D02*
D03*
D94*
X17008Y3583D02*
D03*
X41575Y7126D02*
D03*
M02*
